<?xml version="1.0" encoding="UTF-8" standalone="no"?>
<!-- Created with Inkscape (http://www.inkscape.org/) -->

<svg
   width="210mm"
   height="297mm"
   viewBox="0 0 210 297"
   version="1.1"
   id="svg1"
   inkscape:version="1.3.2 (091e20e, 2023-11-25, custom)"
   sodipodi:docname="icons.svg"
   xml:space="preserve"
   inkscape:export-filename="icons.png"
   inkscape:export-xdpi="113.58048"
   inkscape:export-ydpi="113.58048"
   xmlns:inkscape="http://www.inkscape.org/namespaces/inkscape"
   xmlns:sodipodi="http://sodipodi.sourceforge.net/DTD/sodipodi-0.dtd"
   xmlns="http://www.w3.org/2000/svg"
   xmlns:svg="http://www.w3.org/2000/svg"><sodipodi:namedview
     id="namedview1"
     pagecolor="#505050"
     bordercolor="#eeeeee"
     borderopacity="1"
     inkscape:showpageshadow="0"
     inkscape:pageopacity="0"
     inkscape:pagecheckerboard="0"
     inkscape:deskcolor="#505050"
     inkscape:document-units="mm"
     inkscape:zoom="4.9489682"
     inkscape:cx="307.43782"
     inkscape:cy="528.08987"
     inkscape:window-width="1920"
     inkscape:window-height="1009"
     inkscape:window-x="1912"
     inkscape:window-y="176"
     inkscape:window-maximized="1"
     inkscape:current-layer="svg1"
     showguides="true" /><defs
     id="defs1"><inkscape:path-effect
       effect="bspline"
       id="path-effect34"
       is_visible="true"
       lpeversion="1.3"
       weight="33.333333"
       steps="2"
       helper_size="0"
       apply_no_weight="true"
       apply_with_weight="true"
       only_selected="false"
       uniform="false" /><inkscape:path-effect
       effect="mirror_symmetry"
       start_point="118.58275,103.40797"
       end_point="118.72693,122.88237"
       center_point="118.65484,113.14517"
       id="path-effect33"
       is_visible="true"
       lpeversion="1.2"
       lpesatellites=""
       mode="free"
       discard_orig_path="false"
       fuse_paths="false"
       oposite_fuse="false"
       split_items="false"
       split_open="false"
       link_styles="false" /><inkscape:path-effect
       effect="mirror_symmetry"
       start_point="118.58275,103.40797"
       end_point="118.72693,122.88237"
       center_point="118.65484,113.14517"
       id="path-effect15"
       is_visible="true"
       lpeversion="1.2"
       lpesatellites=""
       mode="free"
       discard_orig_path="false"
       fuse_paths="false"
       oposite_fuse="false"
       split_items="false"
       split_open="false"
       link_styles="false" /><inkscape:path-effect
       effect="mirror_symmetry"
       start_point="118.58275,103.40797"
       end_point="118.72693,122.88237"
       center_point="118.65484,113.14517"
       id="path-effect15-5"
       is_visible="true"
       lpeversion="1.2"
       lpesatellites=""
       mode="free"
       discard_orig_path="false"
       fuse_paths="false"
       oposite_fuse="false"
       split_items="false"
       split_open="false"
       link_styles="false" /></defs><path
     id="path1"
     style="fill:#000000;stroke:none;stroke-width:0.264583;stroke-opacity:1"
     inkscape:transform-center-x="-0.012929264"
     inkscape:transform-center-y="2.4329103"
     sodipodi:type="inkscape:offset"
     inkscape:radius="0"
     inkscape:original="M 49.833984 42.273438 L -0.15234375 128.32812 L 99.365234 128.58984 L 49.833984 42.273438 z "
     d="M 49.833984,42.273438 -0.15234375,128.32812 99.365234,128.58984 Z"
     transform="matrix(-0.1701542,0,0,-0.1701542,107.48359,132.61441)"
     inkscape:export-filename="spawn.png"
     inkscape:export-xdpi="96"
     inkscape:export-ydpi="96" /><path
     id="path2"
     style="fill:#008000;stroke:none;stroke-width:0.264583;stroke-opacity:1"
     inkscape:transform-center-x="-0.010125683"
     inkscape:transform-center-y="1.9283709"
     sodipodi:type="inkscape:offset"
     inkscape:radius="0"
     inkscape:original="M 49.833984 42.273438 L -0.15234375 128.32812 L 99.365234 128.58984 L 49.833984 42.273438 z "
     d="M 49.833984,42.273438 -0.15234375,128.32812 99.365234,128.58984 Z"
     transform="matrix(-0.13330222,0,0,-0.13486747,105.65549,129.07145)" /><text
     xml:space="preserve"
     style="font-style:normal;font-variant:normal;font-weight:normal;font-stretch:normal;font-size:6.00265px;font-family:roboto;-inkscape-font-specification:roboto;fill:#808080;stroke:#ffffff;stroke-width:0.0450199;stroke-opacity:1"
     x="93.441185"
     y="104.07806"
     id="text3"><tspan
       sodipodi:role="line"
       id="tspan3"
       style="stroke-width:0.0450199"
       x="93.441185"
       y="104.07806" /></text><text
     xml:space="preserve"
     style="font-style:normal;font-variant:normal;font-weight:normal;font-stretch:normal;font-size:6.00265px;font-family:roboto;-inkscape-font-specification:roboto;fill:#000000;stroke:#ffffff;stroke-width:0.0450199"
     x="97.001419"
     y="117.63503"
     id="text1"
     inkscape:export-filename="spawn.png"
     inkscape:export-xdpi="96"
     inkscape:export-ydpi="96"><tspan
       sodipodi:role="line"
       id="tspan1"
       style="fill:#000000;stroke-width:0.0450199"
       x="97.001419"
       y="117.63503">S</tspan><tspan
       sodipodi:role="line"
       style="fill:#000000;stroke-width:0.0450199"
       x="97.001419"
       y="125.13834"
       id="tspan4" /></text><path
     id="path4"
     style="fill:#000000;stroke:none;stroke-width:0.264583;stroke-opacity:1"
     inkscape:transform-center-y="-1.3652089e-06"
     sodipodi:type="inkscape:offset"
     inkscape:radius="0"
     inkscape:original="M 64.191406 98.638672 L 55.769531 103.5 L 55.769531 113.22656 L 64.191406 118.08984 L 72.613281 113.22656 L 72.613281 103.5 L 64.191406 98.638672 z "
     d="M 64.191406,98.638672 55.769531,103.5 v 9.72656 l 8.421875,4.86328 8.421875,-4.86328 V 103.5 Z"
     transform="translate(54.504626,9.9451568)"
     inkscape:export-filename="respawns.png"
     inkscape:export-xdpi="39.175003"
     inkscape:export-ydpi="39.175003" /><path
     id="path5"
     style="fill:#3636ff;fill-opacity:1;stroke:#000000;stroke-width:0.264583;stroke-opacity:1"
     inkscape:transform-center-y="2.4345549e-06"
     sodipodi:type="inkscape:offset"
     inkscape:radius="0"
     inkscape:original="M 64.191406 98.638672 L 55.769531 103.5 L 55.769531 113.22656 L 64.191406 118.08984 L 72.613281 113.22656 L 72.613281 103.5 L 64.191406 98.638672 z "
     d="M 64.191406,98.638672 55.769531,103.5 v 9.72656 l 8.421875,4.86328 8.421875,-4.86328 V 103.5 Z"
     transform="matrix(0.86418492,0,0,0.85630349,63.222787,25.516726)" /><path
     id="path6"
     style="fill:#800000;stroke:none;stroke-width:0.264583;stroke-opacity:1"
     inkscape:transform-center-x="-0.0018046224"
     inkscape:transform-center-y="0.33621094"
     sodipodi:type="inkscape:offset"
     inkscape:radius="0"
     inkscape:original="M 49.833984 42.273438 L -0.15234375 128.32812 L 99.365234 128.58984 L 49.833984 42.273438 z "
     d="M 49.833984,42.273438 -0.15234375,128.32812 99.365234,128.58984 Z"
     transform="matrix(-0.02372191,0,0,-0.02351379,100.20848,126.41542)" /><path
     id="path6-7"
     style="fill:#800000;stroke:none;stroke-width:0.264583;stroke-opacity:1"
     inkscape:transform-center-x="-0.0040621442"
     inkscape:transform-center-y="0.25300738"
     sodipodi:type="inkscape:offset"
     inkscape:radius="0"
     inkscape:original="M 49.833984 42.273438 L -0.15234375 128.32812 L 99.365234 128.58984 L 49.833984 42.273438 z "
     d="M 49.833984,42.273438 -0.15234375,128.32812 99.365234,128.58984 Z"
     transform="matrix(-0.05338746,0,0,-0.01769443,121.34665,128.78301)" /><path
     style="fill:#ffffff;fill-opacity:1;stroke:none;stroke-width:0.264583"
     d="m 119.59456,117.63099 1.09594,0.274 1.23294,-5.93635 -1.59825,-0.91329"
     id="path12"
     sodipodi:nodetypes="cccc" /><path
     style="fill:#ffffff;fill-opacity:1;stroke:none;stroke-width:0.264583"
     d="m 123.65867,112.97325 1.73524,0.95895 -3.15083,5.20572 -0.86762,-0.86762"
     id="path13" /><path
     style="fill:#ffffff;fill-opacity:1;stroke:none;stroke-width:0.264583"
     d="m 122.74539,119.68589 3.0595,-3.60748 0.0457,1.96356 -2.69418,2.64853"
     id="path14" /><path
     style="fill:#ffffff;fill-opacity:1;stroke:none;stroke-width:0.264583"
     d="m 123.47602,121.42113 2.4202,-1.64392 v 1.78091 l -2.4202,0.95895"
     id="path15" /><g
     id="g15"
     inkscape:path-effect="#path-effect15"><path
       style="fill:#ffffff;fill-opacity:1;stroke:none;stroke-width:0.264583"
       d="m 119.59456,117.63099 1.09594,0.274 1.23294,-5.93635 -1.59825,-0.91329 m -2.54355,6.58906 -1.09176,0.2902 -1.3207,-5.91745 1.58455,-0.93685"
       id="path7"
       sodipodi:nodetypes="cccc"
       inkscape:original-d="m 119.59456,117.63099 1.09594,0.274 1.23294,-5.93635 -1.59825,-0.91329" /><path
       style="fill:#ffffff;fill-opacity:1;stroke:none;stroke-width:0.264583"
       d="m 123.65867,112.97325 1.73524,0.95895 -3.15083,5.20572 -0.86762,-0.86762 m -7.72645,-5.22294 -1.72085,0.98453 3.22756,5.1585 0.85468,-0.88037"
       id="path8"
       inkscape:original-d="m 123.65867,112.97325 1.73524,0.95895 -3.15083,5.20572 -0.86762,-0.86762" /><path
       style="fill:#ffffff;fill-opacity:1;stroke:none;stroke-width:0.264583"
       d="m 122.74539,119.68589 3.0595,-3.60748 0.0457,1.96356 -2.69418,2.64853 m -8.49483,-0.94476 -3.11258,-3.56179 -0.0166,1.96403 2.7331,2.60834"
       id="path9"
       inkscape:original-d="m 122.74539,119.68589 3.0595,-3.60748 0.0457,1.96356 -2.69418,2.64853" /><path
       style="fill:#ffffff;fill-opacity:1;stroke:none;stroke-width:0.264583"
       d="m 123.47602,121.42113 2.4202,-1.64392 v 1.78091 l -2.4202,0.95895 m -9.51929,-1.02546 -2.44428,-1.60791 0.0264,1.78072 2.43413,0.92301"
       id="path11"
       inkscape:original-d="m 123.47602,121.42113 2.4202,-1.64392 v 1.78091 l -2.4202,0.95895" /></g><path
     id="path3"
     style="fill:#ffa236;fill-opacity:1;stroke:none;stroke-width:0.264583"
     d="m 118.69611,117.27036 a 4.972578,4.972578 0 0 0 -4.97282,4.97282 4.972578,4.972578 0 0 0 0.27182,1.58957 l 4.68602,2.74867 4.70255,-2.71301 a 4.972578,4.972578 0 0 0 0.28474,-1.62523 4.972578,4.972578 0 0 0 -4.97231,-4.97282 z" /><path
     style="fill:#ffffff;fill-opacity:1;stroke:none;stroke-width:0.264583"
     d="m 123.47602,122.24308 -0.0913,-1.05028"
     id="path10" /><path
     id="path4-0"
     style="fill:#000000;stroke:none;stroke-width:0.264583;stroke-opacity:1"
     inkscape:transform-center-y="-1.3652089e-06"
     sodipodi:type="inkscape:offset"
     inkscape:radius="0"
     inkscape:original="M 64.191406 98.638672 L 55.769531 103.5 L 55.769531 113.22656 L 64.191406 118.08984 L 72.613281 113.22656 L 72.613281 103.5 L 64.191406 98.638672 z "
     d="M 64.191406,98.638672 55.769531,103.5 v 9.72656 l 8.421875,4.86328 8.421875,-4.86328 V 103.5 Z"
     transform="translate(75.706903,9.7290001)"
     inkscape:export-filename="health.png"
     inkscape:export-xdpi="39.175003"
     inkscape:export-ydpi="39.175003" /><path
     id="path5-4"
     style="fill:#cccccc;fill-opacity:1;stroke:#000000;stroke-width:0.264583;stroke-opacity:1"
     inkscape:transform-center-y="2.4345549e-06"
     sodipodi:type="inkscape:offset"
     inkscape:radius="0"
     inkscape:original="M 64.191406 98.638672 L 55.769531 103.5 L 55.769531 113.22656 L 64.191406 118.08984 L 72.613281 113.22656 L 72.613281 103.5 L 64.191406 98.638672 z "
     d="M 64.191406,98.638672 55.769531,103.5 v 9.72656 l 8.421875,4.86328 8.421875,-4.86328 V 103.5 Z"
     transform="matrix(0.86418492,0,0,0.85630349,84.425064,25.300569)" /><path
     id="path6-7-0"
     style="fill:#800000;stroke:none;stroke-width:0.264583;stroke-opacity:1"
     inkscape:transform-center-x="-0.0040621442"
     inkscape:transform-center-y="0.25300738"
     sodipodi:type="inkscape:offset"
     inkscape:radius="0"
     inkscape:original="M 49.833984 42.273438 L -0.15234375 128.32812 L 99.365234 128.58984 L 49.833984 42.273438 z "
     d="M 49.833984,42.273438 -0.15234375,128.32812 99.365234,128.58984 Z"
     transform="matrix(-0.05338746,0,0,-0.01769443,142.54892,128.56685)" /><path
     style="fill:#ffffff;fill-opacity:1;stroke:none;stroke-width:0.264583"
     d="m 144.67829,122.02692 -0.0913,-1.05028"
     id="path10-0" /><rect
     style="fill:#800000;stroke-width:0.156429"
     id="rect1"
     width="3.1964948"
     height="11.324723"
     x="138.30006"
     y="112.37963" /><rect
     style="fill:#800000;stroke-width:0.156429"
     id="rect2"
     width="3.1964948"
     height="11.324723"
     x="116.44375"
     y="-145.56067"
     transform="rotate(90)" /><g
     id="g33"><path
       id="path20"
       style="fill:#000000;stroke:none;stroke-width:0.264583;stroke-opacity:1"
       inkscape:transform-center-y="-1.3652089e-06"
       sodipodi:type="inkscape:offset"
       inkscape:radius="0"
       inkscape:original="M 64.191406 98.638672 L 55.769531 103.5 L 55.769531 113.22656 L 64.191406 118.08984 L 72.613281 113.22656 L 72.613281 103.5 L 64.191406 98.638672 z "
       d="M 64.191406,98.638672 55.769531,103.5 v 9.72656 l 8.421875,4.86328 8.421875,-4.86328 V 103.5 Z"
       transform="translate(54.375468,30.997892)"
       inkscape:export-filename="respawns.png"
       inkscape:export-xdpi="39.175003"
       inkscape:export-ydpi="39.175003" /><path
       id="path21"
       style="fill:#3636ff;fill-opacity:1;stroke:#000000;stroke-width:0.264583;stroke-opacity:1"
       inkscape:transform-center-y="2.4345549e-06"
       sodipodi:type="inkscape:offset"
       inkscape:radius="0"
       inkscape:original="M 64.191406 98.638672 L 55.769531 103.5 L 55.769531 113.22656 L 64.191406 118.08984 L 72.613281 113.22656 L 72.613281 103.5 L 64.191406 98.638672 z "
       d="M 64.191406,98.638672 55.769531,103.5 v 9.72656 l 8.421875,4.86328 8.421875,-4.86328 V 103.5 Z"
       transform="matrix(0.86418492,0,0,0.85630349,63.093629,46.569461)" /><path
       style="fill:#ffffff;fill-opacity:1;stroke:none;stroke-width:0.264583"
       d="m 119.4654,138.68373 1.09594,0.274 1.23294,-5.93635 -1.59825,-0.91329"
       id="path23"
       sodipodi:nodetypes="cccc" /><path
       style="fill:#ffffff;fill-opacity:1;stroke:none;stroke-width:0.264583"
       d="m 123.52951,134.02599 1.73524,0.95895 -3.15083,5.20572 -0.86762,-0.86762"
       id="path24" /><path
       style="fill:#ffffff;fill-opacity:1;stroke:none;stroke-width:0.264583"
       d="m 122.61623,140.73863 3.0595,-3.60748 0.0457,1.96356 -2.69418,2.64853"
       id="path25" /><path
       style="fill:#ffffff;fill-opacity:1;stroke:none;stroke-width:0.264583"
       d="m 123.34686,142.47387 2.4202,-1.64392 v 1.78091 l -2.4202,0.95895"
       id="path26" /><g
       id="g30"
       inkscape:path-effect="#path-effect33"
       transform="translate(-0.12915788,21.052735)"><path
         style="fill:#ffffff;fill-opacity:1;stroke:none;stroke-width:0.264583"
         d="m 119.59456,117.63099 1.09594,0.274 1.23294,-5.93635 -1.59825,-0.91329 m -2.54355,6.58906 -1.09176,0.2902 -1.3207,-5.91745 1.58455,-0.93685"
         id="path27"
         sodipodi:nodetypes="cccc"
         inkscape:original-d="m 119.59456,117.63099 1.09594,0.274 1.23294,-5.93635 -1.59825,-0.91329" /><path
         style="fill:#ffffff;fill-opacity:1;stroke:none;stroke-width:0.264583"
         d="m 123.65867,112.97325 1.73524,0.95895 -3.15083,5.20572 -0.86762,-0.86762 m -7.72645,-5.22294 -1.72085,0.98453 3.22756,5.1585 0.85468,-0.88037"
         id="path28"
         inkscape:original-d="m 123.65867,112.97325 1.73524,0.95895 -3.15083,5.20572 -0.86762,-0.86762" /><path
         style="fill:#ffffff;fill-opacity:1;stroke:none;stroke-width:0.264583"
         d="m 122.74539,119.68589 3.0595,-3.60748 0.0457,1.96356 -2.69418,2.64853 m -8.49483,-0.94476 -3.11258,-3.56179 -0.0166,1.96403 2.7331,2.60834"
         id="path29"
         inkscape:original-d="m 122.74539,119.68589 3.0595,-3.60748 0.0457,1.96356 -2.69418,2.64853" /><path
         style="fill:#ffffff;fill-opacity:1;stroke:none;stroke-width:0.264583"
         d="m 123.47602,121.42113 2.4202,-1.64392 v 1.78091 l -2.4202,0.95895 m -9.51929,-1.02546 -2.44428,-1.60791 0.0264,1.78072 2.43413,0.92301"
         id="path30"
         inkscape:original-d="m 123.47602,121.42113 2.4202,-1.64392 v 1.78091 l -2.4202,0.95895" /></g><path
       id="path31"
       style="fill:#ffa236;fill-opacity:1;stroke:none;stroke-width:0.264583"
       d="m 118.56695,138.3231 a 4.972578,4.972578 0 0 0 -4.97282,4.97282 4.972578,4.972578 0 0 0 0.27182,1.58957 l 4.68602,2.74867 4.70255,-2.71301 a 4.972578,4.972578 0 0 0 0.28474,-1.62523 4.972578,4.972578 0 0 0 -4.97231,-4.97282 z" /><path
       style="fill:#ffffff;fill-opacity:1;stroke:none;stroke-width:0.264583"
       d="m 123.34686,143.29582 -0.0913,-1.05028"
       id="path32" /></g><rect
     style="fill:#000000;stroke-width:0.255769"
     id="rect33"
     width="17.500893"
     height="1.4207368"
     x="130.05391"
     y="-119.27724"
     transform="rotate(90)" /><rect
     style="fill:#000000;stroke-width:0.255769"
     id="rect34"
     width="17.500893"
     height="1.4207368"
     x="130.06247"
     y="-119.27724"
     transform="rotate(90)" /><g
     id="g39"
     transform="translate(-20.088646,0.49110775)"><g
       id="g38"><g
         id="g37"
         transform="translate(-0.98221546,-0.70158248)"><g
           id="g20"><path
             id="path16"
             style="fill:#000000;stroke:none;stroke-width:0.264583;stroke-opacity:1"
             inkscape:transform-center-y="-1.3652089e-06"
             d="m 64.191345,98.638721 -8.421708,4.861199 v 9.72654 l 8.421708,4.86327 0.0098,-0.006 V 98.644406 Z"
             transform="translate(75.448587,31.233788)" /><path
             id="path17"
             style="fill:#cccccc;fill-opacity:1;stroke:#000000;stroke-width:0.264583;stroke-opacity:1"
             inkscape:transform-center-y="2.4345549e-06"
             d="m 64.191335,98.63849 -8.421934,4.86166 v 9.72633 l 8.421934,4.86346 0.01136,-0.007 V 98.645128 Z"
             transform="matrix(0.86418492,0,0,0.85630349,84.166748,46.805357)" /><path
             id="path18"
             style="fill:#800000;stroke:none;stroke-width:0.264583;stroke-opacity:1"
             inkscape:transform-center-x="-0.0040621442"
             inkscape:transform-center-y="0.25300738"
             d="M 99.363592,128.58058 49.833551,42.280056 49.46573,42.922564 v 85.511986 z"
             transform="matrix(-0.05338746,0,0,-0.01769443,142.2906,150.07164)" /><path
             id="rect19"
             style="fill:#800000;stroke-width:0.156429"
             d="m 138.04158,133.88467 v 11.32437 h 1.60817 v -11.32437 z" /><path
             id="rect20"
             style="fill:#800000;stroke-width:0.156429"
             d="m 137.9485,-133.97775 h 3.19671 v -5.672 h -3.19671 z"
             transform="rotate(90)" /></g><path
           id="rect35"
           style="fill:#000000;stroke-width:0.255769"
           d="m 130.30039,-138.99294 h 17.50074 v -0.65681 h -17.50074 z"
           transform="rotate(90)" /></g></g></g><g
     id="g36"><path
       id="path22"
       style="fill:#800000;stroke:none;stroke-width:0.264583;stroke-opacity:1"
       inkscape:transform-center-x="-0.0040621442"
       inkscape:transform-center-y="0.25300738"
       sodipodi:type="inkscape:offset"
       inkscape:radius="0"
       inkscape:original="M 49.833984 42.273438 L -0.15234375 128.32812 L 99.365234 128.58984 L 49.833984 42.273438 z "
       d="M 49.833984,42.273438 -0.15234375,128.32812 99.365234,128.58984 Z"
       transform="matrix(-0.05338746,0,0,-0.01769443,121.21749,149.83575)" /><rect
       style="fill:#800000;stroke-width:0.264583"
       id="rect36"
       width="0.27491862"
       height="0.086816408"
       x="118.42791"
       y="147.56308" /></g><path
     id="path4-0-3"
     style="fill:#000000;stroke:none;stroke-width:0.264583;stroke-opacity:1"
     inkscape:transform-center-y="-1.3652089e-06"
     sodipodi:type="inkscape:offset"
     inkscape:radius="0"
     inkscape:original="M 64.191406 98.638672 L 55.769531 103.5 L 55.769531 113.22656 L 64.191406 118.08984 L 72.613281 113.22656 L 72.613281 103.5 L 64.191406 98.638672 z "
     d="M 64.191406,98.638672 55.769531,103.5 v 9.72656 l 8.421875,4.86328 8.421875,-4.86328 V 103.5 Z"
     transform="translate(98.48255,9.9066398)"
     inkscape:export-filename="shrine_speed.png"
     inkscape:export-xdpi="39.175003"
     inkscape:export-ydpi="39.175003" /><path
     id="path5-4-1"
     style="fill:#cccccc;fill-opacity:1;stroke:#000000;stroke-width:0.264583;stroke-opacity:1"
     inkscape:transform-center-y="2.4345549e-06"
     sodipodi:type="inkscape:offset"
     inkscape:radius="0"
     inkscape:original="M 64.191406 98.638672 L 55.769531 103.5 L 55.769531 113.22656 L 64.191406 118.08984 L 72.613281 113.22656 L 72.613281 103.5 L 64.191406 98.638672 z "
     d="M 64.191406,98.638672 55.769531,103.5 v 9.72656 l 8.421875,4.86328 8.421875,-4.86328 V 103.5 Z"
     transform="matrix(0.86418492,0,0,0.85630349,107.20071,25.478209)" /><path
     id="path6-7-0-0"
     style="fill:#800000;stroke:none;stroke-width:0.264583;stroke-opacity:1"
     inkscape:transform-center-x="-0.0040621442"
     inkscape:transform-center-y="0.25300738"
     sodipodi:type="inkscape:offset"
     inkscape:radius="0"
     inkscape:original="M 49.833984 42.273438 L -0.15234375 128.32812 L 99.365234 128.58984 L 49.833984 42.273438 z "
     d="M 49.833984,42.273438 -0.15234375,128.32812 99.365234,128.58984 Z"
     transform="matrix(-0.05338746,0,0,-0.01769443,165.32456,128.7445)" /><path
     style="fill:#ffffff;fill-opacity:1;stroke:none;stroke-width:0.264583"
     d="m 167.45393,122.20457 -0.0913,-1.05028"
     id="path10-0-9" /><path
     id="path19"
     style="fill:#002255;stroke-width:0.377651"
     inkscape:transform-center-x="-0.53110109"
     inkscape:transform-center-y="4.8500643e-06"
     d="m 164.56491,113.12717 v 1.79368 l 2.02934,3.26027 -2.02934,3.26078 v 1.92598 l 3.18689,-5.12061 z" /><path
     id="path53"
     style="fill:#002255;stroke-width:0.377651"
     inkscape:transform-center-x="-0.53110109"
     inkscape:transform-center-y="4.8500643e-06"
     d="m 162.57853,113.12717 v 1.79368 l 2.02933,3.26028 -2.02933,3.26078 v 1.92597 l 3.18689,-5.1206 z" /><path
     id="path54"
     style="fill:#002255;stroke-width:0.377651"
     inkscape:transform-center-x="-0.53110109"
     inkscape:transform-center-y="4.8500643e-06"
     d="m 160.61554,113.12717 v 1.79368 l 2.02933,3.26028 -2.02933,3.26078 v 1.92597 l 3.18689,-5.1206 z" /><path
     id="path55"
     style="fill:#002255;stroke-width:0.377651;fill-opacity:1"
     inkscape:transform-center-x="-0.53110109"
     inkscape:transform-center-y="4.8500643e-06"
     d="m 158.62514,113.12717 v 1.79368 l 2.02933,3.26028 -2.02933,3.26078 v 1.92597 l 3.18689,-5.1206 z" /><path
     id="path56"
     style="fill:#000000;stroke:none;stroke-width:0.264583;stroke-opacity:1"
     inkscape:transform-center-y="-1.3652089e-06"
     sodipodi:type="inkscape:offset"
     inkscape:radius="0"
     inkscape:original="M 64.191406 98.638672 L 55.769531 103.5 L 55.769531 113.22656 L 64.191406 118.08984 L 72.613281 113.22656 L 72.613281 103.5 L 64.191406 98.638672 z "
     d="M 64.191406,98.638672 55.769531,103.5 v 9.72656 l 8.421875,4.86328 8.421875,-4.86328 V 103.5 Z"
     transform="translate(75.657732,30.673482)"
     inkscape:export-filename="shrine_health_or_speed.png"
     inkscape:export-xdpi="39.175003"
     inkscape:export-ydpi="39.175003" /><path
     id="path57"
     style="fill:#cccccc;fill-opacity:1;stroke:#000000;stroke-width:0.264583;stroke-opacity:1"
     inkscape:transform-center-y="2.4345549e-06"
     sodipodi:type="inkscape:offset"
     inkscape:radius="0"
     inkscape:original="M 64.191406 98.638672 L 55.769531 103.5 L 55.769531 113.22656 L 64.191406 118.08984 L 72.613281 113.22656 L 72.613281 103.5 L 64.191406 98.638672 z "
     d="M 64.191406,98.638672 55.769531,103.5 v 9.72656 l 8.421875,4.86328 8.421875,-4.86328 V 103.5 Z"
     transform="matrix(0.86418492,0,0,0.85630349,84.375892,46.245051)" /><path
     id="path58"
     style="fill:#800000;stroke:none;stroke-width:0.264583;stroke-opacity:1"
     inkscape:transform-center-x="-0.0040621442"
     inkscape:transform-center-y="0.25300738"
     sodipodi:type="inkscape:offset"
     inkscape:radius="0"
     inkscape:original="M 49.833984 42.273438 L -0.15234375 128.32812 L 99.365234 128.58984 L 49.833984 42.273438 z "
     d="M 49.833984,42.273438 -0.15234375,128.32812 99.365234,128.58984 Z"
     transform="matrix(-0.05338746,0,0,-0.01769443,142.49974,149.51134)" /><path
     style="fill:#ffffff;fill-opacity:1;stroke:none;stroke-width:0.264583"
     d="m 144.62911,142.97141 -0.0913,-1.05028"
     id="path59" /><path
     id="path60"
     style="fill:#002255;stroke-width:0.377651"
     inkscape:transform-center-x="-0.53110109"
     inkscape:transform-center-y="4.8500643e-06"
     d="m 141.74009,133.89401 v 1.79368 l 2.02934,3.26027 -2.02934,3.26078 v 1.92598 l 3.18689,-5.12061 z" /><path
     id="path61"
     style="fill:#002255;stroke-width:0.377651;fill-opacity:1"
     inkscape:transform-center-x="-0.53110109"
     inkscape:transform-center-y="4.8500643e-06"
     d="m 139.75371,133.89401 v 1.79368 l 2.02933,3.26028 -2.02933,3.26078 v 1.92597 l 3.18689,-5.1206 z" /><path
     id="path62"
     style="fill:#002255;stroke-width:0.377651"
     inkscape:transform-center-x="-0.53110109"
     inkscape:transform-center-y="4.8500643e-06"
     d="m 137.79072,133.89401 v 1.79368 l 2.02933,3.26028 -2.02933,3.26078 v 1.92597 l 3.18689,-5.1206 z" /><path
     id="path63"
     style="fill:#0000ff;stroke-width:0.377651"
     inkscape:transform-center-x="-0.53110109"
     inkscape:transform-center-y="4.8500643e-06"
     d="m 135.80032,133.89401 v 1.79368 l 2.02933,3.26028 -2.02933,3.26078 v 1.92597 l 3.18689,-5.1206 z" /><g
     id="g71"
     transform="translate(1.169304,0.09354433)"><g
       id="g70"><g
         id="g69"
         transform="translate(-0.98221546,-0.70158248)"><g
           id="g68"><path
             id="path64"
             style="fill:#000000;stroke:none;stroke-width:0.264583;stroke-opacity:1"
             inkscape:transform-center-y="-1.3652089e-06"
             d="m 64.191345,98.638721 -8.421708,4.861199 v 9.72654 l 8.421708,4.86327 0.0098,-0.006 V 98.644406 Z"
             transform="translate(75.448587,31.233788)" /><path
             id="path65"
             style="fill:#cccccc;fill-opacity:1;stroke:#000000;stroke-width:0.264583;stroke-opacity:1"
             inkscape:transform-center-y="2.4345549e-06"
             d="m 64.191335,98.63849 -8.421934,4.86166 v 9.72633 l 8.421934,4.86346 0.01136,-0.007 V 98.645128 Z"
             transform="matrix(0.86418492,0,0,0.85630349,84.166748,46.805357)" /><path
             id="path66"
             style="fill:#800000;stroke:none;stroke-width:0.264583;stroke-opacity:1"
             inkscape:transform-center-x="-0.0040621442"
             inkscape:transform-center-y="0.25300738"
             d="M 99.363592,128.58058 49.833551,42.280056 49.46573,42.922564 v 85.511986 z"
             transform="matrix(-0.05338746,0,0,-0.01769443,142.2906,150.07164)" /><path
             id="path67"
             style="fill:#800000;stroke-width:0.156429"
             d="m 138.04158,133.88467 v 11.32437 h 1.60817 v -11.32437 z" /><path
             id="path68"
             style="fill:#800000;stroke-width:0.156429"
             d="m 137.9485,-133.97775 h 3.19671 v -5.672 h -3.19671 z"
             transform="rotate(90)" /></g><path
           id="path69"
           style="fill:#000000;stroke-width:0.255769"
           d="m 130.30039,-138.99294 h 17.50074 v -0.65681 h -17.50074 z"
           transform="rotate(90)" /></g></g></g><g
     id="g72"
     transform="translate(21.22287,-0.36248429)"><path
       id="path71"
       style="fill:#800000;stroke:none;stroke-width:0.264583;stroke-opacity:1"
       inkscape:transform-center-x="-0.0040621442"
       inkscape:transform-center-y="0.25300738"
       sodipodi:type="inkscape:offset"
       inkscape:radius="0"
       inkscape:original="M 49.833984 42.273438 L -0.15234375 128.32812 L 99.365234 128.58984 L 49.833984 42.273438 z "
       d="M 49.833984,42.273438 -0.15234375,128.32812 99.365234,128.58984 Z"
       transform="matrix(-0.05338746,0,0,-0.01769443,121.21749,149.83575)" /><rect
       style="fill:#800000;stroke-width:0.264583"
       id="rect71"
       width="0.27491862"
       height="0.086816408"
       x="118.42791"
       y="147.56308" /></g><rect
     style="fill:#000000;stroke-width:0.255769"
     id="rect72"
     width="17.500893"
     height="1.4207368"
     x="129.6918"
     y="-140.60478"
     transform="rotate(90)" /><path
     style="fill:#d38d5f;stroke-width:0.210178"
     d="m 77.930586,125.04807 c 0.440342,0.79189 1.321026,2.37569 4.145332,2.77164 2.824306,0.39593 7.592044,-0.39595 9.975961,-0.78531 2.383916,-0.38935 2.383916,-0.37616 2.315586,2.57373 -0.06832,2.9499 -0.204985,8.83619 -0.296093,11.7926 -0.0911,2.95642 -0.136665,2.98281 -2.94579,3.00262 -2.809124,0.0198 -8.381609,0.033 -11.122352,-3.27322 -2.740744,-3.30621 -2.649641,-9.93161 -2.596496,-13.29717 0.05314,-3.36556 0.06833,-3.47113 0.07592,-3.52392 0.0076,-0.0528 0.0076,-0.0529 0.447934,0.73903 z"
     id="path38" /><path
     id="path34"
     style="fill:#000000;stroke-width:0.210178"
     d="m 78.271478,126.2232 c -0.104485,0 -0.19017,0.0523 -0.19017,0.11627 0,0.0641 0.06147,0.11628 0.136426,0.11628 0.225585,0 0.550385,0.35919 0.483175,0.53433 -0.06584,0.1716 -0.448834,0.22659 -0.532784,0.0765 -0.02684,-0.048 -0.03311,-0.0222 -0.01395,0.0568 0.0476,0.19654 -0.445672,0.95053 -0.625801,0.95653 -0.171396,0.006 -0.199624,0.23771 -0.02894,0.23771 0.064,0 0.116272,0.10454 0.116272,0.23254 0,0.17211 0.07747,0.23306 0.297656,0.23306 0.163769,0 0.271925,-0.0423 0.240295,-0.0935 -0.03163,-0.0512 0.0441,-0.15628 0.167949,-0.23358 0.275933,-0.17232 0.292254,-0.0565 0.03256,0.23048 -0.105913,0.11703 -0.328474,0.21614 -0.494544,0.22014 l -0.30179,0.007 0.278536,0.11162 c 0.212483,0.085 0.330259,0.0655 0.494544,-0.0832 0.118595,-0.10666 0.216007,-0.15364 0.216007,-0.10284 0,0.0509 -0.09143,0.159 -0.202572,0.2403 -0.190574,0.13935 -0.188904,0.16332 0.02739,0.42013 0.172262,0.2045 0.141573,0.19227 -0.124024,-0.0481 -0.451435,-0.40855 -0.644654,-0.4169 -0.273885,-0.0119 l 0.282154,0.30851 -0.262,-0.0646 c -0.144086,-0.0355 -0.232757,-0.0173 -0.196887,0.0408 0.03586,0.058 -0.01201,0.10542 -0.106453,0.10542 -0.09444,0 -0.198207,-0.0657 -0.230477,-0.14573 -0.03229,-0.08 -0.0627,-0.001 -0.0677,0.17467 -0.0091,0.31699 -0.003,0.31988 0.746724,0.31988 h 0.756543 v -0.93276 -0.93276 l 2.510441,0.031 2.510958,0.031 -0.03669,0.79737 c -0.03625,0.78728 -0.03224,0.7991 0.311092,0.95033 0.29289,0.12903 0.283597,0.20304 -0.02015,0.16174 -0.09436,-0.0128 -0.31182,0.35893 -0.24753,0.42323 0.02548,0.0255 0.216977,-0.10893 0.425297,-0.2992 0.208321,-0.19027 0.451232,-0.34624 0.539502,-0.34624 0.22849,0 0.320953,-0.19854 0.19637,-0.42116 -0.07278,-0.1301 -0.132155,-0.14861 -0.187585,-0.0589 -0.04463,0.0722 -0.13096,0.13126 -0.19172,0.13126 -0.06076,0 -0.04535,-0.10427 0.03411,-0.23151 0.147616,-0.23637 0.671793,0.11401 0.671793,0.44907 0,0.0615 0.06573,0.13509 0.145728,0.16329 0.103237,0.0363 0.06841,0.15691 -0.11989,0.41652 -0.357268,0.49256 -0.153473,0.4652 0.307475,-0.0414 0.203822,-0.22398 0.420161,-0.40721 0.480591,-0.40721 0.06044,0 0.07973,-0.0787 0.04289,-0.17466 -0.03684,-0.0959 -0.0093,-0.17467 0.06149,-0.17467 0.07084,0 0.129192,0.0749 0.129192,0.1664 0,0.1834 0.349404,0.26617 0.843359,0.19947 0.31388,-0.0424 0.319877,-0.0583 0.319877,-0.84439 v -0.80099 h 2.438611 2.438087 l 0.0346,0.84336 0.0341,0.84336 1.1343,0.0336 c 0.18719,0.005 0.32271,0.007 0.45475,0.008 0.002,-0.0989 0.007,-0.27074 0.009,-0.36432 -0.21561,0.0954 -0.59811,0.0217 -0.52762,-0.17156 0.0707,-0.19393 0.0633,-0.19393 -0.15813,0 -0.38453,0.33674 -0.45665,0.22898 -0.0977,-0.14573 0.41926,-0.43763 0.24948,-0.46033 -0.216,-0.0289 -0.32626,0.30234 -0.33482,0.30409 -0.15297,0.0336 0.10585,-0.15745 0.31073,-0.35172 0.45527,-0.43202 0.24635,-0.13677 0.24812,-0.14699 0.03,-0.15399 -0.29226,-0.01 -0.71081,-0.31704 -0.59273,-0.43512 0.0486,-0.0486 0.15486,0.003 0.23668,0.11472 0.0818,0.11184 0.27391,0.20199 0.42684,0.19999 0.25598,-0.003 0.26187,-0.0158 0.0744,-0.15813 -0.112,-0.085 -0.20251,-0.22736 -0.20154,-0.31626 0.001,-0.13092 0.0221,-0.12932 0.11007,0.01 0.19897,0.31461 0.25309,0.034 0.0755,-0.39119 -0.20782,-0.49734 -0.33606,-0.55068 -0.23978,-0.0997 0.0622,0.29132 0.0532,0.3018 -0.0982,0.11628 -0.0915,-0.11207 -0.14115,-0.33463 -0.11058,-0.49455 0.0474,-0.24816 0.0124,-0.29094 -0.23927,-0.29094 -0.16211,0 -0.31355,-0.0559 -0.33641,-0.12454 -0.0242,-0.0726 -0.17401,-0.0207 -0.35863,0.12454 -0.17446,0.1374 -0.317297,0.19766 -0.317297,0.13436 0,-0.0633 0.0657,-0.13831 0.145727,-0.16691 0.059,-0.0211 0.0886,-0.0623 0.0811,-0.10284 -0.10331,0.0165 -0.186787,0.0284 -0.300747,0.047 -0.002,3e-4 -0.005,7.3e-4 -0.007,0.001 -0.007,0.006 -0.0142,0.01 -0.0212,0.016 -0.18251,0.16518 -0.4504,0.17998 -0.635103,0.0879 -0.254035,0.0412 -0.522486,0.0828 -0.808736,0.12764 -0.09269,0.15189 -0.115345,0.34198 -0.01809,0.49041 0.10677,0.16297 0.148894,0.29535 0.09353,0.29456 -0.05536,-8e-4 -0.218706,-0.18402 -0.363285,-0.40721 -0.07606,-0.11743 -0.159396,-0.22132 -0.232027,-0.29559 -0.05582,0.008 -0.09221,0.0153 -0.148829,0.0238 0.02504,0.0499 0.06017,0.10719 0.111622,0.1726 0.132636,0.16863 0.240145,0.36536 0.238745,0.43666 -0.0031,0.15522 -0.295033,-0.19668 -0.517798,-0.58549 -0.209496,0.0308 -0.430329,0.0607 -0.648539,0.0909 -0.0061,0.0111 -0.02387,0.0123 -0.04909,0.007 -0.661327,0.0913 -1.346166,0.17597 -2.046387,0.24753 -0.09818,0.33731 -0.298053,0.73781 -0.453719,0.86041 -0.155508,0.12245 -0.143504,0.14121 0.08992,0.14521 0.148562,0.002 0.348944,-0.0745 0.444934,-0.17053 0.096,-0.096 0.233705,-0.17467 0.305925,-0.17467 0.09705,0 0.097,0.0337 5.17e-4,0.13022 -0.07172,0.0718 -0.104741,0.19787 -0.07338,0.27957 0.03136,0.0817 -0.0076,0.1882 -0.08682,0.2372 -0.10162,0.0628 -0.12164,0.0298 -0.06718,-0.11214 0.07983,-0.20795 0.08818,-0.20789 -0.590145,-0.0129 -0.16631,0.0477 -0.261999,0.0254 -0.261999,-0.062 0,-0.0908 -0.101626,-0.0712 -0.29869,0.0579 -0.234498,0.1537 -0.334171,0.16602 -0.465088,0.0574 -0.20122,-0.16699 -0.213467,-0.067 -0.03359,0.27595 0.132504,0.25266 0.131566,0.25297 -0.117823,0.0315 -0.248159,-0.22044 -0.253868,-0.22002 -0.556038,0.0579 l -0.305408,0.28112 0.143661,-0.27595 c 0.07903,-0.15164 0.256129,-0.3053 0.393774,-0.3421 0.241669,-0.0645 0.240067,-0.0699 -0.04082,-0.14934 -0.276477,-0.0782 -0.277768,-0.0825 -0.02894,-0.0935 0.237966,-0.0105 0.394222,-0.24443 0.163297,-0.24443 -0.09304,0 -0.229233,-0.29251 -0.322977,-0.61495 -0.843193,0.035 -1.644358,0.0292 -2.350761,-0.0388 -0.0015,0.001 -0.0025,0.003 -0.0041,0.004 -0.02246,0.0139 -0.05303,0.005 -0.08527,-0.0134 -0.103023,-0.0108 -0.208439,-0.02 -0.306958,-0.0336 0.0065,0.0314 0.0082,0.057 -0.0021,0.0672 -0.01718,0.0172 -0.06432,-0.0191 -0.125057,-0.0884 -0.281292,-0.0434 -0.543786,-0.0985 -0.787032,-0.16381 -0.119328,0.18363 -0.21689,0.30986 -0.218591,0.26716 -0.0016,-0.0413 0.05781,-0.16335 0.132292,-0.28887 -0.06495,-0.0183 -0.124235,-0.0397 -0.186552,-0.0594 -0.04571,0.0653 -0.09813,0.12646 -0.147795,0.16743 -0.169401,0.13974 -0.17497,0.12936 -0.05374,-0.0982 0.02371,-0.0445 0.03605,-0.0749 0.05684,-0.11576 -0.162067,-0.0558 -0.31775,-0.1141 -0.461987,-0.17828 0.0027,0.003 0.0034,0.004 0.0062,0.007 0.12191,0.13757 0.16286,0.25011 0.09095,0.25011 -0.07197,0 -0.100908,0.0787 -0.06408,0.17467 0.09942,0.25908 4.11e-4,0.21276 -0.313675,-0.14573 -0.154188,-0.17654 -0.205529,-0.25467 -0.113689,-0.17467 0.269861,0.23503 0.40869,0.16675 0.178284,-0.0878 -0.116227,-0.1284 -0.268801,-0.2228 -0.338481,-0.2098 -0.231639,0.0432 -0.650089,-0.15229 -0.650089,-0.30335 0,-0.22452 -0.4085,-0.64957 -0.624251,-0.64957 z m 2.624129,3.78168 c -0.166866,-5.2e-4 -0.29161,0.007 -0.33383,0.0233 -0.16169,0.062 -0.228094,1.54957 -0.07596,1.7017 v 5.2e-4 c 0.04266,0.0427 0.458404,0.0775 0.923458,0.0775 0.957276,0 0.964842,-0.0103 0.879532,-1.17718 l -0.03927,-0.53796 -0.766878,-0.0615 c -0.210955,-0.0171 -0.420178,-0.0258 -0.587044,-0.0264 z m 8.634098,0.007 c -0.167552,-0.001 -0.283475,0.005 -0.307475,0.0176 -0.10794,0.0577 -0.11681,1.59367 -0.0098,1.70067 v 5.2e-4 c 0.04266,0.0427 0.456464,0.0775 0.919324,0.0775 h 0.841809 l 0.04082,-0.49454 c 0.02245,-0.27198 0.0247,-0.65894 0.0052,-0.8599 l -0.03566,-0.36535 -0.837158,-0.0527 c -0.23022,-0.0145 -0.449464,-0.0227 -0.617017,-0.0238 z m -10.990543,1.2144 c -0.064,0 -0.146095,0.0787 -0.182935,0.17466 -0.04366,0.11374 -0.225074,0.17415 -0.520382,0.17415 -0.380326,0 -0.452685,0.0388 -0.452685,0.24082 0,0.19121 0.05398,0.2273 0.261999,0.1757 0.143987,-0.0356 0.196272,-0.0347 0.116272,0.002 -0.192801,0.0885 -0.187917,0.6289 0.0057,0.6289 0.08319,0 0.221811,-0.0652 0.307991,-0.14521 0.12602,-0.11713 0.139347,-0.11578 0.06925,0.008 -0.04793,0.0845 -0.199488,0.19884 -0.336931,0.25424 -0.239393,0.0966 -0.237312,0.10152 0.04444,0.10852 0.279161,0.007 0.777441,0.42921 0.65319,0.55346 -0.03215,0.0322 -0.12701,-0.0513 -0.21084,-0.18552 -0.08383,-0.13422 -0.270882,-0.24443 -0.415478,-0.24443 -0.288586,0 -0.35548,0.17232 -0.104387,0.26872 0.181887,0.0698 0.338778,0.5457 0.179834,0.5457 -0.058,0 -0.10542,-0.10455 -0.10542,-0.23254 0,-0.15511 -0.07792,-0.23255 -0.23306,-0.23255 -0.127992,0 -0.232544,0.0523 -0.232544,0.11628 0,0.0641 0.08433,0.11627 0.187585,0.11627 0.143057,0 0.175509,0.0847 0.135909,0.3545 -0.05902,0.40217 0.07384,0.54508 0.31781,0.34261 0.09104,-0.0754 0.23256,-0.11051 0.31471,-0.0775 0.09388,0.0377 0.07374,0.0632 -0.05426,0.0692 -0.137183,0.006 -0.203605,0.10427 -0.203605,0.30024 0,0.19635 -0.06616,0.29421 -0.203605,0.29921 -0.174119,0.007 -0.170055,0.0225 0.02894,0.108 l 0.232544,0.10026 -0.232544,0.01 c -0.174457,0.007 -0.293673,0.0376 -0.361735,0.0734 0.0066,0.0443 0.01277,0.0886 0.01964,0.1328 0.05645,0.0182 0.139836,0.0306 0.257349,0.031 0.472051,0.002 0.49261,-0.0124 0.42323,-0.28887 -0.04015,-0.15999 -0.02807,-0.29162 0.02687,-0.29249 0.05494,-9e-4 0.226341,-0.0353 0.380339,-0.0765 0.194638,-0.0521 0.254584,-0.0346 0.197404,0.0579 -0.173591,0.28088 0.618608,0.0448 1.054199,-0.3142 0.284486,-0.23482 0.462387,-0.31612 0.492477,-0.22582 0.0259,0.0777 -0.0058,0.15875 -0.07028,0.18035 -0.364437,0.12147 -0.559527,0.37713 -0.266651,0.34933 0.263471,-0.025 0.290938,0.0131 0.290938,0.40825 0,0.28194 -0.05401,0.43663 -0.152445,0.43666 -0.08383,1e-5 -0.12326,0.0466 -0.08785,0.10387 0.03541,0.0573 -0.0232,0.1379 -0.129708,0.1788 -0.106508,0.0409 -0.236224,0.007 -0.288354,-0.0754 -0.06788,-0.10694 -0.09534,-0.0857 -0.09664,0.0744 -0.0031,0.38624 0.338517,0.67485 0.54932,0.46405 0.09623,-0.0962 0.199207,-0.15062 0.228927,-0.12092 0.02971,0.0297 -0.05121,0.15922 -0.179834,0.28784 l -0.233578,0.23357 -0.387056,-0.56999 c -0.513275,-0.7568 -0.645973,-0.73446 -0.205155,0.0346 l 0.350366,0.61081 -0.34985,-0.40721 c -0.192512,-0.22399 -0.351667,-0.44654 -0.353467,-0.49454 -0.0017,-0.0481 -0.05726,-0.0873 -0.123506,-0.0873 -0.07835,0 -0.0726,0.0917 0.01602,0.26199 l 0.13591,0.26149 -0.277503,-0.25322 c -0.24709,-0.22566 -0.302285,-0.23528 -0.503328,-0.0873 -0.364742,0.2684 -0.477713,0.19089 -0.181385,-0.12454 0.150302,-0.16 0.218205,-0.29094 0.150896,-0.29094 -0.06732,0 -0.188882,0.0799 -0.269751,0.17725 -0.07163,0.0865 -0.191377,0.1289 -0.302308,0.11731 0.07443,0.41162 0.159809,0.81862 0.258899,1.21801 h 0.429948 c 0.596003,0 1.019199,0.0534 1.105359,0.13953 0.108597,0.10861 0.139527,0.10861 0.139527,0 0,-0.0768 0.119856,-0.13953 0.266133,-0.13953 0.185858,0 0.265617,0.0682 0.265617,0.22634 0,0.16665 -0.03761,0.19446 -0.14366,0.10646 -0.248609,-0.20633 -0.845928,0.0812 -0.851628,0.40979 -0.0019,0.10752 0.724435,0.0372 1.074353,-0.10387 0.169793,-0.0685 0.203547,-0.0172 0.203605,0.30851 7.5e-5,0.42214 -0.575682,0.5596 -0.971,0.23151 -0.107936,-0.0895 -0.258999,-0.10172 -0.440283,-0.0346 -0.151775,0.0559 -0.341123,0.0794 -0.421163,0.0512 -0.09836,-0.0346 -0.119929,0.0166 -0.06563,0.15813 0.06613,0.17229 0.03141,0.16364 -0.196371,-0.0486 -0.0052,-0.005 -0.01257,-0.009 -0.01809,-0.014 0.04887,0.1414 0.09978,0.28083 0.152962,0.41858 0.03414,-0.0866 0.140248,0.18593 0.211356,0.51108 0.106217,0.23917 0.220298,0.47078 0.342098,0.69453 0.0558,0.008 0.135217,0.0473 0.19017,0.10025 0.0608,0.0587 0.234728,0.12433 0.386539,0.14573 0.109454,0.0154 0.01599,0.19784 -0.162264,0.4346 0.06724,0.0988 0.136436,0.19569 0.20774,0.2899 0.841754,-0.89107 0.921414,-1.09296 0.435115,-1.09296 -0.294768,0 -0.349333,-0.0453 -0.349333,-0.29093 0,-0.26649 0.04339,-0.29094 0.515215,-0.29094 h 0.515214 l 0.03721,-1.01803 c 0.0207,-0.55998 0.01185,-1.88239 -0.02015,-2.93832 l -0.0584,-1.91978 -0.872815,-0.0579 -0.872298,-0.0584 -0.05839,-0.8723 c -0.04383,-0.65751 -0.09774,-0.86472 -0.218075,-0.83922 -0.10164,0.0215 -0.13473,-0.0311 -0.09095,-0.14522 0.03784,-0.0986 0.01646,-0.17931 -0.04754,-0.17931 z m 5.845121,0.0341 c -0.225651,0.0243 -0.469457,0.57453 -0.537952,1.26969 -0.04259,0.43218 -0.113363,0.78063 -0.157613,0.77463 -0.78891,-0.11283 -1.53479,0.0364 -1.53479,0.30696 0,0.15999 -0.06324,0.29042 -0.140043,0.29042 -0.108599,0 -0.108599,0.0315 0,0.14005 0.180639,0.18064 0.180639,0.93609 0,1.11672 -0.108599,0.10853 -0.108599,0.13953 0,0.13953 0.326238,0 0.178848,2.42941 -0.152446,2.51251 -0.169083,0.0425 -0.366595,0.012 -0.468188,-0.0724 -0.146296,-0.1214 -0.163349,-0.11357 -0.102319,0.0455 0.04765,0.1241 0.208559,0.19068 0.460437,0.19068 0.347948,0 0.391513,0.0369 0.424263,0.36122 l 0.03617,0.36122 1.861901,0.0522 c 1.023937,0.0288 1.911183,0.10218 1.971973,0.16278 v -5.1e-4 c 0.06079,0.0606 0.191749,0.10632 0.290938,0.10232 0.127825,-0.006 0.112743,-0.0376 -0.05219,-0.10852 -0.164495,-0.0707 -0.0195,-0.10201 0.494544,-0.10801 l 0.727087,-0.008 v -0.87229 c 0,-0.98167 -0.07625,-0.9225 1.12603,-0.8754 0.678463,0.0266 0.735872,-0.13553 0.735872,-2.08411 v -1.6366 h -0.901754 -0.901754 v -0.84387 -0.84336 l -1.134814,-0.0336 c -0.957189,-0.0281 -1.134298,-0.005 -1.134298,0.14573 0,0.22213 0.768701,0.25208 0.848011,0.0331 0.04214,-0.11636 0.101621,-0.11636 0.298689,0 0.135486,0.08 0.384108,0.14573 0.552421,0.14573 h 0.305925 l -0.08165,0.76171 c -0.05101,0.47631 -0.03609,0.8156 0.03927,0.9064 0.08923,0.10751 -0.01303,0.24999 -0.393257,0.54777 -0.517869,0.40556 -0.716047,0.79918 -0.318327,0.632 0.433788,-0.18231 0.753967,-0.20002 0.848527,-0.047 0.07897,0.12782 0.137529,0.12035 0.316776,-0.0419 0.271113,-0.24539 0.457833,-0.26325 0.259933,-0.0248 -0.254708,0.30691 0.0027,0.18783 0.532784,-0.2465 0.361523,-0.29625 0.51418,-0.36789 0.51418,-0.24081 0,0.0994 -0.104551,0.21416 -0.232544,0.25476 -0.127992,0.0406 -0.232544,0.12465 -0.232544,0.18655 0,0.0685 0.09079,0.0634 0.232544,-0.0124 0.221884,-0.11875 0.232544,-0.088 0.232544,0.65061 0,0.6754 -0.0225,0.75571 -0.174666,0.62942 -0.09736,-0.0808 -0.17415,-0.0933 -0.17415,-0.0284 0,0.064 0.07816,0.18178 0.17415,0.26148 0.096,0.0797 0.174666,0.21377 0.174666,0.29817 0,0.30819 -0.264563,0.30377 -0.564823,-0.009 -0.306916,-0.32007 -0.141782,-0.29491 0.244946,0.0372 0.116914,0.1004 0.203605,0.12117 0.203605,0.0486 0,-0.1458 -0.696999,-0.67242 -0.699699,-0.52865 -9.8e-4,0.0523 -0.05269,0.0169 -0.114721,-0.0791 -0.08906,-0.13782 -0.113322,-0.11234 -0.114722,0.12195 -0.0017,0.2873 -0.187447,0.5762 -0.37052,0.5762 -0.04919,0 -0.05944,-0.0786 -0.02274,-0.17415 0.0367,-0.0956 0.113759,-0.14496 0.171049,-0.10956 0.05729,0.0354 0.104387,-0.0693 0.104387,-0.23306 0,-0.16376 -0.05279,-0.29765 -0.116789,-0.29765 -0.064,0 -0.116854,0.0652 -0.117822,0.14521 -0.0012,0.0991 -0.03622,0.0911 -0.109554,-0.0248 -0.09343,-0.1478 -0.164633,-0.14317 -0.536402,0.0341 -0.235689,0.1124 -0.394973,0.23753 -0.353983,0.27853 0.04099,0.041 0.13666,0.0127 0.21239,-0.063 0.07573,-0.0758 0.245012,-0.13728 0.376204,-0.13694 0.201116,5.2e-4 0.18373,0.0346 -0.110587,0.21704 -0.239584,0.14858 -0.412043,0.18407 -0.549837,0.11317 -0.158909,-0.0817 -0.216102,-0.0421 -0.274402,0.19017 -0.06602,0.26306 -0.132079,0.29352 -0.636137,0.29352 -0.309265,0 -0.5939,0.0512 -0.63252,0.11369 -0.04333,0.0695 0.154628,0.0977 0.516765,0.0723 0.322827,-0.0228 0.587044,-0.0261 0.587044,-0.007 0,0.0189 0.03516,0.12598 0.07803,0.23771 0.05315,0.13851 0.03442,0.17626 -0.05839,0.11886 -0.249404,-0.15414 -0.140466,0.0751 0.279053,0.58704 0.228273,0.27856 0.354623,0.50643 0.280603,0.50643 -0.07402,0 -0.232827,-0.11801 -0.35295,-0.262 -0.120122,-0.14396 -0.220109,-0.19627 -0.222209,-0.11627 -0.0055,0.20579 -0.462886,0.18148 -0.543636,-0.0289 -0.09434,-0.24588 -0.224793,-0.21705 -0.224793,0.0496 0,0.12323 0.03734,0.2009 0.0832,0.1726 0.04586,-0.0283 0.11638,0.002 0.15658,0.0667 0.09251,0.14977 -0.175567,0.15109 -0.406177,0.002 -0.142005,-0.0918 -0.144374,-0.11272 -0.01137,-0.11472 0.130013,-10e-4 0.12421,-0.0452 -0.02894,-0.21446 -0.105909,-0.11703 -0.192753,-0.27056 -0.192753,-0.34106 0,-0.0705 -0.117492,-0.15111 -0.261483,-0.1788 -0.221966,-0.0427 -0.212376,-0.0526 0.06201,-0.0661 0.194125,-0.01 0.350847,0.0553 0.391707,0.16175 0.04935,0.1286 0.108732,0.14389 0.215491,0.0553 0.10676,-0.0885 0.16614,-0.0733 0.21549,0.0553 0.03746,0.0976 0.160917,0.17667 0.274919,0.17467 0.172372,-0.002 0.159976,-0.0393 -0.07596,-0.22066 -0.156043,-0.11991 -0.348851,-0.19308 -0.427881,-0.16278 -0.07903,0.0303 -0.202295,-0.0543 -0.273885,-0.1881 -0.105665,-0.19749 -0.172657,-0.21992 -0.357601,-0.12092 -0.127494,0.0682 -0.227893,0.0748 -0.227893,0.015 0,-0.0588 0.104552,-0.13455 0.232544,-0.16795 0.127992,-0.0335 0.232544,-0.1181 0.232544,-0.1881 0,-0.1593 -0.194202,-0.16654 -0.290422,-0.0109 -0.03955,0.0641 -0.131619,0.11627 -0.204639,0.11627 -0.09268,0 -0.08913,-0.0437 0.0124,-0.14521 0.08,-0.0799 0.31301,-0.14631 0.517798,-0.14831 0.280338,-0.002 0.36822,-0.0524 0.35605,-0.20361 -0.0089,-0.11043 0.03339,-0.20102 0.09405,-0.20102 0.06066,0 0.07831,-0.0523 0.03876,-0.11627 -0.150426,-0.24339 -0.512588,-0.12962 -0.461988,0.14521 l 0.04806,0.262 -0.200504,-0.24856 c -0.129324,-0.16062 -0.396127,-0.27651 -0.752926,-0.32711 -0.30398,-0.0431 -0.552421,-0.13353 -0.552421,-0.20103 0,-0.0675 -0.135356,-0.034 -0.300757,0.0744 -0.283131,0.18617 -0.314168,0.18576 -0.523999,-0.004 -0.308955,-0.2796 -0.325193,-1.2422 -0.01912,-1.13223 0.154187,0.0554 0.135051,-0.002 -0.07855,-0.23667 -0.380544,-0.41756 -0.162265,-0.39 0.327112,0.0413 0.216658,0.19097 0.452162,0.34565 0.523482,0.34365 0.07133,-0.002 0.02811,-0.0807 -0.09612,-0.17467 -0.124226,-0.0939 -0.173554,-0.17053 -0.109554,-0.17053 0.064,0 0.217873,0.0765 0.342098,0.17053 0.261288,0.19755 0.447251,0.23131 0.342614,0.062 -0.0783,-0.1266 0.66644,-0.1671 0.79065,-0.0429 0.04041,0.0404 0.02031,0.18431 -0.04496,0.31988 -0.102259,0.2124 -0.09753,0.22063 0.03359,0.0599 0.118504,-0.14524 0.299822,-0.17394 0.820622,-0.13074 0.562304,0.0466 0.668693,0.0255 0.668693,-0.13333 0,-0.14365 -0.114266,-0.18913 -0.476457,-0.18913 -0.536014,0 -1.118629,-0.2922 -1.22008,-0.61185 -0.04659,-0.14651 -0.136587,-0.19059 -0.290939,-0.14159 -0.243267,0.0772 -0.296181,-0.0578 -0.09973,-0.25425 0.06788,-0.0679 0.126108,-0.33593 0.129708,-0.59531 0.0064,-0.46023 0.332678,-0.76758 0.510046,-0.4806 0.03584,0.058 -0.0165,0.10542 -0.116272,0.10542 -0.09977,0 -0.181384,0.0504 -0.181384,0.11214 0,0.13409 0.387293,0.35663 0.603064,0.34623 0.0842,-0.004 0.03183,-0.0563 -0.116272,-0.11575 -0.148102,-0.0594 -0.236657,-0.16039 -0.196887,-0.22479 0.04331,-0.0701 0.240932,-0.002 0.492476,0.16846 0.521957,0.35468 0.594877,0.31148 0.584977,-0.34571 -0.0091,-0.60013 -0.09183,-0.59817 -0.192753,0.004 l -0.06925,0.4129 -0.407211,-0.35037 c -0.27365,-0.23512 -0.363288,-0.37938 -0.273368,-0.44028 0.293528,-0.19885 0.229285,-0.55465 -0.10697,-0.59325 -0.177074,-0.0204 -0.294053,-0.0822 -0.259933,-0.13746 0.03412,-0.0552 0.0074,-0.13398 -0.05943,-0.17518 -0.03093,-0.0191 -0.06285,-0.0267 -0.09508,-0.0233 z m 8.329207,0.0972 c -0.0181,0.003 -0.0464,0.0367 -0.0879,0.10076 -0.062,0.096 -0.11324,0.55406 -0.1142,1.01803 l -0.002,0.84388 -0.843361,0.0134 c -0.463972,0.008 -0.869754,0.0133 -0.901754,0.0103 -0.03193,-0.002 -0.04282,0.82925 -0.02377,1.84795 l 0.03462,1.85208 h 0.514702 c 0.39775,0 0.49988,0.0375 0.45061,0.16588 -0.0758,0.19749 0.422743,0.11116 0.563793,-0.0977 0.0522,-0.0772 0.0862,-0.0473 0.0873,0.077 9.8e-4,0.112 -0.0901,0.21056 -0.20206,0.21756 -0.19392,0.0129 -0.19392,0.016 0,0.0667 0.15797,0.0413 0.20361,0.17704 0.20361,0.60668 0,0.30417 0.0349,0.58761 0.0775,0.63097 0.0427,0.0427 0.58887,0.0775 1.21388,0.0775 h 0.2589 c 0.005,-0.19746 0.0102,-0.38131 0.0155,-0.58601 -0.24502,-0.26825 -0.40204,-0.29358 -0.40204,-0.061 0,0.17884 -0.20986,0.35965 -0.30592,0.26355 -0.0317,-0.0317 0.0939,-0.23334 0.27905,-0.44804 0.18514,-0.21472 0.37107,-0.48546 0.41341,-0.60151 0.0109,-0.03 0.0243,-0.0553 0.0398,-0.0765 0.002,-0.0718 0.003,-0.12512 0.005,-0.19741 -0.022,0.002 -0.0439,0.005 -0.0651,0.0119 -0.13903,0.0481 -0.12782,0.0142 0.0408,-0.12299 0.0125,-0.0101 0.0168,-0.0142 0.0279,-0.0232 0.001,-0.0433 0.002,-0.0744 0.003,-0.11783 -0.0213,0.005 -0.0337,0.007 -0.0605,0.0134 -0.20157,0.0476 -0.26149,0.0111 -0.26149,-0.15968 0,-0.23761 -0.30323,-0.59267 -0.67799,-0.79323 -0.3379,-0.18084 -0.34947,-1.29036 -0.0134,-1.29036 0.12433,0 0.22583,-0.0787 0.22583,-0.17467 0,-0.0959 -0.0447,-0.17467 -0.0992,-0.17467 -0.16261,0 0.37698,-1.03579 0.5426,-1.04179 0.0837,-0.003 0.11965,-0.0573 0.0801,-0.12144 -0.094,-0.15201 -0.4874,-0.14988 -0.56327,0.003 -0.0326,0.0656 -0.0459,0.0535 -0.03,-0.0264 0.0159,-0.0798 0.15584,-0.17657 0.31109,-0.21497 0.27825,-0.0689 0.27882,-0.0709 0.031,-0.15296 -0.13826,-0.0458 -0.34164,-0.22545 -0.45217,-0.39895 l -0.20102,-0.31522 0.36484,0.34158 c 0.20079,0.18796 0.36535,0.28779 0.36535,0.22169 0,-0.066 -0.10519,-0.21507 -0.23358,-0.33125 -0.12838,-0.11618 -0.20717,-0.23723 -0.17518,-0.26923 0.032,-0.032 0.17186,0.0415 0.31109,0.16381 0.22682,0.19919 0.24533,0.20104 0.1788,0.0186 -0.0601,-0.16483 -0.008,-0.20361 0.2713,-0.20361 0.0881,0 0.15384,0.007 0.20516,0.0207 0.003,-0.12329 0.007,-0.25569 0.009,-0.37517 -0.20375,10e-4 -0.35042,-4.7e-4 -0.59634,0.005 -0.57973,0.0123 -0.78574,-0.0233 -0.78704,-0.13642 -6.5e-4,-0.0563 -0.009,-0.083 -0.0269,-0.0796 z m -1.57148,2.84117 c 0.06713,0.002 0.251419,0.11863 0.443899,0.28318 0.424101,0.36257 0.700681,0.46932 0.457861,0.17674 -0.202831,-0.2444 0.006,-0.21074 0.32039,0.0517 0.29048,0.24233 0.37093,0.99497 0.11627,1.08727 -0.08,0.029 0.0768,0.1435 0.34882,0.25477 0.27198,0.11127 0.49454,0.27532 0.49454,0.36432 0,0.11471 -0.0677,0.0941 -0.23254,-0.0708 -0.128,-0.12798 -0.30753,-0.23254 -0.39895,-0.23254 -0.0914,0 -0.24876,-0.0824 -0.34933,-0.18294 -0.10056,-0.1006 -0.18242,-0.13099 -0.18242,-0.0677 0,0.0633 -0.0352,0.20659 -0.078,0.31832 -0.0515,0.13431 -0.034,0.17568 0.0522,0.12248 0.0731,-0.0452 0.19146,0.0341 0.26975,0.18035 l 0.13952,0.26045 -0.32608,-0.21394 c -0.282311,-0.18494 -0.316501,-0.18786 -0.253731,-0.0243 0.0912,0.23743 0.0352,0.24049 -0.15709,0.009 -0.0821,-0.0988 -0.23,-0.1487 -0.32815,-0.1111 -0.1463,0.0561 -0.14246,0.0292 0.0191,-0.14935 0.30547,-0.33754 0.23209,-0.44746 -0.094,-0.14107 -0.307653,0.28903 -0.43676,0.0872 -0.14521,-0.22686 0.11636,-0.1254 0.11636,-0.14012 0,-0.0744 -0.108905,0.0615 -0.145728,-0.0836 -0.145728,-0.57722 0,-0.53821 0.03218,-0.64691 0.174668,-0.59221 0.2375,0.0911 0.22036,-0.041 -0.0289,-0.22325 -0.11189,-0.0818 -0.173886,-0.17855 -0.137976,-0.21445 0.0045,-0.004 0.0116,-0.007 0.02119,-0.006 z m -7.856368,5.672 c -0.01175,-0.009 -0.02744,0.009 -0.04548,0.0532 -0.03912,0.0969 -0.330806,0.14521 -0.874882,0.14521 h -0.815971 l -0.643372,0.69608 c -0.353747,0.38279 -0.690208,0.66699 -0.747758,0.63149 -0.05755,-0.0356 -0.09044,-0.008 -0.07286,0.061 6.46e-4,0.003 -0.0043,0.0106 -0.0052,0.0145 0.08861,0.094 0.179513,0.18524 0.272851,0.27337 0.394847,-0.48109 1.354398,-1.32653 1.592668,-1.32653 0.181534,0 0.208256,0.11196 0.208256,0.87281 0,0.47998 0.03882,0.87268 0.08682,0.87282 0.048,1.5e-4 0.07034,-0.36631 0.04909,-0.81442 l -0.03876,-0.81442 h 0.358634 0.358635 v 1.05988 1.05988 l -0.410828,-0.048 c -0.361026,-0.0421 -0.419982,-0.012 -0.485242,0.24804 -0.0071,0.0283 -0.01674,0.0554 -0.02584,0.0827 0.117554,0.0619 0.236618,0.12135 0.357084,0.17829 0.0332,-0.12571 0.134654,-0.13798 0.448552,-0.13798 0.392795,0 0.465087,-0.0374 0.465087,-0.24029 0,-0.33846 0.209713,-0.6904 0.411345,-0.6904 0.135501,0 0.170532,0.19113 0.170532,0.93224 v 0.70694 c 0.211842,0.0645 0.425026,0.12535 0.639754,0.17931 0.236296,-0.0257 0.444397,-0.0759 0.488343,-0.12402 0.05319,-0.0582 -0.0039,-0.0672 -0.132292,-0.0207 -0.214861,0.0776 -0.216315,0.0708 -0.02739,-0.13798 0.188334,-0.20811 0.18511,-0.23808 -0.05581,-0.5581 -0.13993,-0.1855 -0.182318,-0.27224 -0.09457,-0.19224 0.217458,0.19824 0.352704,0.18296 0.270785,-0.0305 -0.05069,-0.1321 -0.01334,-0.15623 0.149344,-0.0966 0.209609,0.0767 0.209551,0.0714 0.0052,-0.16175 -0.13755,-0.15688 -0.168053,-0.26739 -0.08733,-0.31729 0.06817,-0.0421 0.124023,-0.13661 0.124023,-0.20981 0,-0.0732 -0.19887,0.0609 -0.441833,0.29817 -0.424576,0.41459 -0.441349,0.42065 -0.436149,0.14986 0.003,-0.15494 0.04732,-0.32377 0.0987,-0.37517 0.05138,-0.0514 0.05597,0.01 0.01033,0.13591 -0.0728,0.20105 -0.04511,0.19469 0.226343,-0.0527 0.29059,-0.26482 0.297607,-0.2952 0.116272,-0.49557 -0.240903,-0.2662 -0.363774,-0.17569 -0.143144,0.10542 0.147328,0.18767 0.143814,0.19171 -0.04134,0.0465 -0.161174,-0.12671 -0.203605,-0.12854 -0.203605,-0.01 0,0.0824 -0.02994,0.1199 -0.06666,0.0832 -0.07121,-0.0712 0.262932,-0.78652 0.36742,-0.78652 0.03413,0 0.03433,0.0445 5.16e-4,0.0992 -0.0338,0.0547 0.07512,0.22498 0.242363,0.37827 l 0.304374,0.27854 -0.218591,-0.34882 c -0.196532,-0.31412 -0.197914,-0.33288 -0.01395,-0.18707 0.112435,0.0893 0.234621,0.13179 0.271301,0.0951 0.03668,-0.0367 -0.04303,-0.13531 -0.17725,-0.21911 -0.134224,-0.0838 -0.244429,-0.22628 -0.244429,-0.31678 0,-0.12493 -0.06271,-0.11144 -0.261483,0.0568 l -0.262,0.22169 0.219108,-0.2589 c 0.120546,-0.14252 0.261106,-0.23314 0.312126,-0.20154 0.05102,0.0314 0.125691,0.004 0.165881,-0.061 0.0402,-0.0651 0.371156,-0.1151 0.735356,-0.1111 0.557026,0.006 0.616478,0.0258 0.374137,0.12247 -0.222537,0.0888 -0.251628,0.13746 -0.127124,0.21446 0.207733,0.12839 0.473357,0.0265 0.473357,-0.1819 0,-0.0892 0.08767,-0.16227 0.19482,-0.16227 0.177672,0 -0.03664,0.34242 -0.436149,0.69712 -0.127887,0.11354 -0.223577,0.47961 -0.106454,0.40721 0.148032,-0.0915 0.145896,0.0165 -0.0057,0.29972 -0.06909,0.12907 -0.07426,0.22479 -0.0124,0.22479 0.05931,0 0.140708,0.13095 0.180868,0.29094 0.06946,0.27675 0.354146,0.40214 0.436666,0.19224 0.02133,-0.0543 0.196101,0.002 0.38809,0.12609 l 0.348816,0.22479 -0.45837,-0.077 c -0.407689,-0.0689 -0.441269,-0.0576 -0.306441,0.10491 0.08338,0.10049 0.192942,0.15707 0.243912,0.12557 0.159952,-0.0988 0.462357,0.0762 0.476457,0.27595 0.01158,0.164 0.021,0.16233 0.06666,-0.0124 0.02927,-0.11203 0.127808,-0.2036 0.219108,-0.2036 0.100523,0 0.166398,-0.11788 0.166398,-0.29818 0,-0.16378 -0.0471,-0.26846 -0.104387,-0.23306 -0.05729,0.0354 -0.135956,-0.018 -0.174666,-0.11885 -0.116688,-0.30409 -0.08174,-0.32727 0.162264,-0.10646 0.127991,0.11584 0.233061,0.35581 0.233061,0.5333 0,0.1775 0.0869,0.40987 0.19327,0.51625 0.149245,0.14923 0.160265,0.214 0.04754,0.2837 -0.08108,0.0501 0.117555,0.0904 0.446484,0.0904 h 0.592729 v -0.91933 c 0,-0.82374 0.02504,-0.9282 0.241329,-1.0082 0.13273,-0.0495 -0.260116,-0.0676 -0.872815,-0.0408 l -1.114144,0.0491 v -0.91571 -0.91571 l -2.094446,0.0222 c -1.896271,0.0204 -2.095347,0.004 -2.103747,-0.17415 -0.0028,-0.0606 -0.01047,-0.096 -0.02222,-0.1049 z m -4.158919,0.31264 c 0.05423,0.0929 0.110173,0.18373 0.167431,0.27337 0.03139,-0.014 0.06091,-0.0215 0.08268,-0.01 0.03016,0.0161 -0.06871,-0.088 -0.219625,-0.23202 -0.01167,-0.0111 -0.01971,-0.0208 -0.03049,-0.0315 z m 14.612027,0.002 c -1.11778,0 -1.69498,0.1221 -1.69498,0.35864 0,0.0727 0.0787,0.10201 0.17466,0.0651 0.26874,-0.10312 0.24144,0.80576 -0.0289,0.96325 -0.19393,0.11313 -0.19393,0.11847 0,0.12247 0.112,0.002 0.20361,0.056 0.20361,0.11989 0,0.0645 -0.30671,0.11627 -0.687301,0.11627 -0.629988,0 -0.682098,-0.0192 -0.626318,-0.23254 0.0871,-0.33316 -0.06737,-0.28822 -0.198954,0.0579 -0.09444,0.2484 -0.18422,0.29094 -0.613916,0.29094 -0.561561,0 -0.782381,0.15247 -0.782381,0.54002 0,0.5275 0.491581,0.46734 0.683679,-0.0837 0.239413,-0.68678 0.479557,-0.42003 0.479557,0.53278 h 5.17e-4 c 0,0.69813 0.03452,0.87281 0.17415,0.87281 0.158803,0 0.227162,-0.14081 0.186552,-0.38343 -0.0085,-0.0507 0.0902,-0.0359 0.219104,0.0331 0.28826,0.15427 0.30798,0.25253 0.031,0.15503 -0.15194,-0.0535 -0.172042,-0.0368 -0.07803,0.0656 0.179842,0.19598 0.561392,0.0355 0.394292,-0.16588 -0.0913,-0.10998 -0.0855,-0.217 0.0217,-0.38861 0.12805,-0.20503 0.10966,-0.27931 -0.13849,-0.55242 l -0.286804,-0.31575 0.316264,0.22325 c 0.17397,0.12285 0.32284,0.32831 0.33124,0.4563 0.0127,0.19378 0.0303,0.18372 0.10439,-0.0584 l 0.0894,-0.29094 0.12454,0.29094 c 0.0686,0.15993 0.12829,0.22572 0.13229,0.14572 0.004,-0.0799 0.0625,-0.14572 0.13023,-0.14572 0.0678,0 0.0993,0.0393 0.0703,0.0873 -0.0291,0.048 0.0211,0.15554 0.1111,0.23874 0.13512,0.1249 0.17591,0.11997 0.23306,-0.0289 0.0381,-0.0992 0.13891,-0.18035 0.22428,-0.18035 0.0854,0 0.19134,-0.0584 0.23512,-0.12919 0.0555,-0.0899 -0.0392,-0.10461 -0.31316,-0.0496 l -0.39274,0.0785 0.34882,-0.22324 c 0.2088,-0.13357 0.37881,-0.17755 0.42323,-0.10955 0.1065,0.16294 0.33331,-0.009 0.33331,-0.2527 0,-0.11355 0.0344,-0.24162 0.077,-0.28422 0.0708,-0.0708 0.10442,-0.17507 0.10749,-0.29611 4.5e-4,-0.0129 0.001,-0.0247 0.002,-0.0377 -0.007,-0.22254 -0.11563,-0.49726 -0.31264,-0.74518 -0.18813,-0.23674 -0.31161,-0.46096 -0.27441,-0.49816 0.0372,-0.0372 0.1721,0.0627 0.29973,0.22169 0.22471,0.28006 0.22963,0.28091 0.15864,0.0274 -0.0496,-0.17726 -0.0445,-0.23426 0.1664,-0.25269 0.003,-0.10169 0.006,-0.2505 0.009,-0.35657 -0.0605,-4e-4 -0.0991,-0.002 -0.16743,-0.002 z" /></svg>
