<?xml version="1.0" encoding="UTF-8" standalone="no"?>
<!-- Created with Inkscape (http://www.inkscape.org/) -->

<svg
   width="210mm"
   height="297mm"
   viewBox="0 0 210 297"
   version="1.1"
   id="svg1"
   inkscape:version="1.3.2 (091e20e, 2023-11-25, custom)"
   sodipodi:docname="icons.svg"
   xml:space="preserve"
   inkscape:export-filename="icons.png"
   inkscape:export-xdpi="113.58048"
   inkscape:export-ydpi="113.58048"
   xmlns:inkscape="http://www.inkscape.org/namespaces/inkscape"
   xmlns:sodipodi="http://sodipodi.sourceforge.net/DTD/sodipodi-0.dtd"
   xmlns="http://www.w3.org/2000/svg"
   xmlns:svg="http://www.w3.org/2000/svg"><sodipodi:namedview
     id="namedview1"
     pagecolor="#505050"
     bordercolor="#eeeeee"
     borderopacity="1"
     inkscape:showpageshadow="0"
     inkscape:pageopacity="0"
     inkscape:pagecheckerboard="0"
     inkscape:deskcolor="#505050"
     inkscape:document-units="mm"
     inkscape:zoom="4.9489682"
     inkscape:cx="612.95605"
     inkscape:cy="356.13484"
     inkscape:window-width="1920"
     inkscape:window-height="1009"
     inkscape:window-x="1912"
     inkscape:window-y="176"
     inkscape:window-maximized="1"
     inkscape:current-layer="svg1"
     showguides="true"><sodipodi:guide
       position="162.8997,210.80537"
       orientation="1,0"
       id="guide38"
       inkscape:locked="false" /><sodipodi:guide
       position="166.42821,200.01935"
       orientation="0,-1"
       id="guide39"
       inkscape:locked="false" /><sodipodi:guide
       position="98.985488,182.10947"
       orientation="1,0"
       id="guide72"
       inkscape:locked="false" /><sodipodi:guide
       position="176.29201,165.77673"
       orientation="0,-1"
       id="guide73"
       inkscape:locked="false" /></sodipodi:namedview><defs
     id="defs1"><inkscape:path-effect
       effect="bspline"
       id="path-effect34"
       is_visible="true"
       lpeversion="1.3"
       weight="33.333333"
       steps="2"
       helper_size="0"
       apply_no_weight="true"
       apply_with_weight="true"
       only_selected="false"
       uniform="false" /><inkscape:path-effect
       effect="mirror_symmetry"
       start_point="118.58275,103.40797"
       end_point="118.72693,122.88237"
       center_point="118.65484,113.14517"
       id="path-effect33"
       is_visible="true"
       lpeversion="1.2"
       lpesatellites=""
       mode="free"
       discard_orig_path="false"
       fuse_paths="false"
       oposite_fuse="false"
       split_items="false"
       split_open="false"
       link_styles="false" /><inkscape:path-effect
       effect="mirror_symmetry"
       start_point="118.58275,103.40797"
       end_point="118.72693,122.88237"
       center_point="118.65484,113.14517"
       id="path-effect15"
       is_visible="true"
       lpeversion="1.2"
       lpesatellites=""
       mode="free"
       discard_orig_path="false"
       fuse_paths="false"
       oposite_fuse="false"
       split_items="false"
       split_open="false"
       link_styles="false" /><inkscape:path-effect
       effect="mirror_symmetry"
       start_point="118.58275,103.40797"
       end_point="118.72693,122.88237"
       center_point="118.65484,113.14517"
       id="path-effect15-5"
       is_visible="true"
       lpeversion="1.2"
       lpesatellites=""
       mode="free"
       discard_orig_path="false"
       fuse_paths="false"
       oposite_fuse="false"
       split_items="false"
       split_open="false"
       link_styles="false" /></defs><path
     id="path2"
     style="fill:#008000;stroke:none;stroke-width:0.264583;stroke-opacity:1"
     inkscape:transform-center-x="-0.010125683"
     inkscape:transform-center-y="1.9283709"
     sodipodi:type="inkscape:offset"
     inkscape:radius="0"
     inkscape:original="M 49.833984 42.273438 L -0.15234375 128.32812 L 99.365234 128.58984 L 49.833984 42.273438 z "
     d="M 49.833984,42.273438 -0.15234375,128.32812 99.365234,128.58984 Z"
     transform="matrix(-0.13330222,0,0,-0.13486747,105.65549,129.07145)"
     inkscape:export-filename=".\spawn.png"
     inkscape:export-xdpi="52.5"
     inkscape:export-ydpi="52.5" /><path
     style="fill:#ffffff;stroke-width:0.264583"
     d="m 94.949083,116.4944 1.684065,-0.72174 4.865072,-0.0267 1.57714,0.69501 -4.06314,7.67184"
     id="path73" /><path
     id="path1"
     style="fill:#000000;stroke:none;stroke-width:0.264583;stroke-opacity:1"
     inkscape:transform-center-x="-0.012929264"
     inkscape:transform-center-y="2.4329103"
     d="M 99.364027 128.58974 L 49.833017 42.274155 L -0.15354776 128.32855 L 99.364027 128.58974 z M 88.588626 122.74344 L 10.624891 122.53693 L 49.784425 54.328148 L 88.588626 122.74344 z "
     transform="matrix(-0.1701542,0,0,-0.1701542,107.48359,132.61441)" /><text
     xml:space="preserve"
     style="font-style:normal;font-variant:normal;font-weight:normal;font-stretch:normal;font-size:6.00265px;font-family:roboto;-inkscape-font-specification:roboto;fill:#808080;stroke:#ffffff;stroke-width:0.0450199;stroke-opacity:1"
     x="93.441185"
     y="104.07806"
     id="text3"><tspan
       sodipodi:role="line"
       id="tspan3"
       style="stroke-width:0.0450199"
       x="93.441185"
       y="104.07806" /></text><path
     id="path4"
     style="fill:#000000;stroke:none;stroke-width:0.264583;stroke-opacity:1"
     inkscape:transform-center-y="-1.3652089e-06"
     sodipodi:type="inkscape:offset"
     inkscape:radius="0"
     inkscape:original="M 64.191406 98.638672 L 55.769531 103.5 L 55.769531 113.22656 L 64.191406 118.08984 L 72.613281 113.22656 L 72.613281 103.5 L 64.191406 98.638672 z "
     d="M 64.191406,98.638672 55.769531,103.5 v 9.72656 l 8.421875,4.86328 8.421875,-4.86328 V 103.5 Z"
     transform="translate(54.504626,9.9451568)"
     inkscape:export-filename="respawns.png"
     inkscape:export-xdpi="39.175003"
     inkscape:export-ydpi="39.175003" /><path
     id="path5"
     style="fill:#3636ff;fill-opacity:1;stroke:#000000;stroke-width:0.264583;stroke-opacity:1"
     inkscape:transform-center-y="2.4345549e-06"
     sodipodi:type="inkscape:offset"
     inkscape:radius="0"
     inkscape:original="M 64.191406 98.638672 L 55.769531 103.5 L 55.769531 113.22656 L 64.191406 118.08984 L 72.613281 113.22656 L 72.613281 103.5 L 64.191406 98.638672 z "
     d="M 64.191406,98.638672 55.769531,103.5 v 9.72656 l 8.421875,4.86328 8.421875,-4.86328 V 103.5 Z"
     transform="matrix(0.86418492,0,0,0.85630349,63.222787,25.516726)" /><path
     id="path6"
     style="fill:#ff0000;stroke:none;stroke-width:0.264583;stroke-opacity:1"
     inkscape:transform-center-x="-0.0018046224"
     inkscape:transform-center-y="0.33621094"
     sodipodi:type="inkscape:offset"
     inkscape:radius="0"
     inkscape:original="M 49.833984 42.273438 L -0.15234375 128.32812 L 99.365234 128.58984 L 49.833984 42.273438 z "
     d="M 49.833984,42.273438 -0.15234375,128.32812 99.365234,128.58984 Z"
     transform="matrix(-0.02372191,0,0,-0.02351379,100.20848,126.41542)" /><path
     id="path6-7"
     style="fill:#ff0000;stroke:none;stroke-width:0.264583;stroke-opacity:1"
     inkscape:transform-center-x="-0.0040621442"
     inkscape:transform-center-y="0.25300738"
     sodipodi:type="inkscape:offset"
     inkscape:radius="0"
     inkscape:original="M 49.833984 42.273438 L -0.15234375 128.32812 L 99.365234 128.58984 L 49.833984 42.273438 z "
     d="M 49.833984,42.273438 -0.15234375,128.32812 99.365234,128.58984 Z"
     transform="matrix(-0.05338746,0,0,-0.01769443,121.34665,128.78301)" /><path
     style="fill:#ffffff;fill-opacity:1;stroke:none;stroke-width:0.264583"
     d="m 119.59456,117.63099 1.09594,0.274 1.23294,-5.93635 -1.59825,-0.91329"
     id="path12"
     sodipodi:nodetypes="cccc" /><path
     style="fill:#ffffff;fill-opacity:1;stroke:none;stroke-width:0.264583"
     d="m 123.65867,112.97325 1.73524,0.95895 -3.15083,5.20572 -0.86762,-0.86762"
     id="path13" /><path
     style="fill:#ffffff;fill-opacity:1;stroke:none;stroke-width:0.264583"
     d="m 122.74539,119.68589 3.0595,-3.60748 0.0457,1.96356 -2.69418,2.64853"
     id="path14" /><path
     style="fill:#ffffff;fill-opacity:1;stroke:none;stroke-width:0.264583"
     d="m 123.47602,121.42113 2.4202,-1.64392 v 1.78091 l -2.4202,0.95895"
     id="path15" /><g
     id="g15"
     inkscape:path-effect="#path-effect15"><path
       style="fill:#ffffff;fill-opacity:1;stroke:none;stroke-width:0.264583"
       d="m 119.59456,117.63099 1.09594,0.274 1.23294,-5.93635 -1.59825,-0.91329 m -2.54355,6.58906 -1.09176,0.2902 -1.3207,-5.91745 1.58455,-0.93685"
       id="path7"
       sodipodi:nodetypes="cccc"
       inkscape:original-d="m 119.59456,117.63099 1.09594,0.274 1.23294,-5.93635 -1.59825,-0.91329" /><path
       style="fill:#ffffff;fill-opacity:1;stroke:none;stroke-width:0.264583"
       d="m 123.65867,112.97325 1.73524,0.95895 -3.15083,5.20572 -0.86762,-0.86762 m -7.72645,-5.22294 -1.72085,0.98453 3.22756,5.1585 0.85468,-0.88037"
       id="path8"
       inkscape:original-d="m 123.65867,112.97325 1.73524,0.95895 -3.15083,5.20572 -0.86762,-0.86762" /><path
       style="fill:#ffffff;fill-opacity:1;stroke:none;stroke-width:0.264583"
       d="m 122.74539,119.68589 3.0595,-3.60748 0.0457,1.96356 -2.69418,2.64853 m -8.49483,-0.94476 -3.11258,-3.56179 -0.0166,1.96403 2.7331,2.60834"
       id="path9"
       inkscape:original-d="m 122.74539,119.68589 3.0595,-3.60748 0.0457,1.96356 -2.69418,2.64853" /><path
       style="fill:#ffffff;fill-opacity:1;stroke:none;stroke-width:0.264583"
       d="m 123.47602,121.42113 2.4202,-1.64392 v 1.78091 l -2.4202,0.95895 m -9.51929,-1.02546 -2.44428,-1.60791 0.0264,1.78072 2.43413,0.92301"
       id="path11"
       inkscape:original-d="m 123.47602,121.42113 2.4202,-1.64392 v 1.78091 l -2.4202,0.95895" /></g><path
     id="path3"
     style="fill:#ffa236;fill-opacity:1;stroke:none;stroke-width:0.264583"
     d="m 118.69611,117.27036 a 4.972578,4.972578 0 0 0 -4.97282,4.97282 4.972578,4.972578 0 0 0 0.27182,1.58957 l 4.68602,2.74867 4.70255,-2.71301 a 4.972578,4.972578 0 0 0 0.28474,-1.62523 4.972578,4.972578 0 0 0 -4.97231,-4.97282 z" /><path
     style="fill:#ffffff;fill-opacity:1;stroke:none;stroke-width:0.264583"
     d="m 123.47602,122.24308 -0.0913,-1.05028"
     id="path10" /><path
     id="path4-0"
     style="fill:#000000;stroke:none;stroke-width:0.264583;stroke-opacity:1"
     inkscape:transform-center-y="-1.3652089e-06"
     sodipodi:type="inkscape:offset"
     inkscape:radius="0"
     inkscape:original="M 64.191406 98.638672 L 55.769531 103.5 L 55.769531 113.22656 L 64.191406 118.08984 L 72.613281 113.22656 L 72.613281 103.5 L 64.191406 98.638672 z "
     d="M 64.191406,98.638672 55.769531,103.5 v 9.72656 l 8.421875,4.86328 8.421875,-4.86328 V 103.5 Z"
     transform="translate(75.706903,9.7290001)"
     inkscape:export-filename="shrine_health.png"
     inkscape:export-xdpi="39.175003"
     inkscape:export-ydpi="39.175003" /><path
     id="path5-4"
     style="fill:#cccccc;fill-opacity:1;stroke:#000000;stroke-width:0.264583;stroke-opacity:1"
     inkscape:transform-center-y="2.4345549e-06"
     sodipodi:type="inkscape:offset"
     inkscape:radius="0"
     inkscape:original="M 64.191406 98.638672 L 55.769531 103.5 L 55.769531 113.22656 L 64.191406 118.08984 L 72.613281 113.22656 L 72.613281 103.5 L 64.191406 98.638672 z "
     d="M 64.191406,98.638672 55.769531,103.5 v 9.72656 l 8.421875,4.86328 8.421875,-4.86328 V 103.5 Z"
     transform="matrix(0.86418492,0,0,0.85630349,84.462868,25.33829)" /><path
     id="path6-7-0"
     style="fill:#ff0000;stroke:none;stroke-width:0.264583;stroke-opacity:1"
     inkscape:transform-center-x="-0.0040621442"
     inkscape:transform-center-y="0.25300738"
     sodipodi:type="inkscape:offset"
     inkscape:radius="0"
     inkscape:original="M 49.833984 42.273438 L -0.15234375 128.32812 L 99.365234 128.58984 L 49.833984 42.273438 z "
     d="M 49.833984,42.273438 -0.15234375,128.32812 99.365234,128.58984 Z"
     transform="matrix(-0.05338746,0,0,-0.01769443,142.54892,128.56685)" /><path
     style="fill:#ffffff;fill-opacity:1;stroke:none;stroke-width:0.264583"
     d="m 144.67829,122.02692 -0.0913,-1.05028"
     id="path10-0" /><rect
     style="fill:#800000;stroke-width:0.156429"
     id="rect1"
     width="3.1964948"
     height="11.324723"
     x="138.30006"
     y="112.37963" /><rect
     style="fill:#800000;stroke-width:0.156429"
     id="rect2"
     width="3.1964948"
     height="11.324723"
     x="116.44375"
     y="-145.56067"
     transform="rotate(90)" /><g
     id="g33"
     inkscape:export-filename=".\shrine_health_or_respawn.png"
     inkscape:export-xdpi="39.175003"
     inkscape:export-ydpi="39.175003"><path
       id="path20"
       style="fill:#000000;stroke:none;stroke-width:0.264583;stroke-opacity:1"
       inkscape:transform-center-y="-1.3652089e-06"
       sodipodi:type="inkscape:offset"
       inkscape:radius="0"
       inkscape:original="M 64.191406 98.638672 L 55.769531 103.5 L 55.769531 113.22656 L 64.191406 118.08984 L 72.613281 113.22656 L 72.613281 103.5 L 64.191406 98.638672 z "
       d="M 64.191406,98.638672 55.769531,103.5 v 9.72656 l 8.421875,4.86328 8.421875,-4.86328 V 103.5 Z"
       transform="translate(54.375468,30.997892)"
       inkscape:export-filename="respawns.png"
       inkscape:export-xdpi="39.175003"
       inkscape:export-ydpi="39.175003" /><path
       id="path21"
       style="fill:#3636ff;fill-opacity:1;stroke:#000000;stroke-width:0.264583;stroke-opacity:1"
       inkscape:transform-center-y="2.4345549e-06"
       sodipodi:type="inkscape:offset"
       inkscape:radius="0"
       inkscape:original="M 64.191406 98.638672 L 55.769531 103.5 L 55.769531 113.22656 L 64.191406 118.08984 L 72.613281 113.22656 L 72.613281 103.5 L 64.191406 98.638672 z "
       d="M 64.191406,98.638672 55.769531,103.5 v 9.72656 l 8.421875,4.86328 8.421875,-4.86328 V 103.5 Z"
       transform="matrix(0.86418492,0,0,0.85630349,63.093629,46.569461)" /><path
       style="fill:#ffffff;fill-opacity:1;stroke:none;stroke-width:0.264583"
       d="m 119.4654,138.68373 1.09594,0.274 1.23294,-5.93635 -1.59825,-0.91329"
       id="path23"
       sodipodi:nodetypes="cccc" /><path
       style="fill:#ffffff;fill-opacity:1;stroke:none;stroke-width:0.264583"
       d="m 123.52951,134.02599 1.73524,0.95895 -3.15083,5.20572 -0.86762,-0.86762"
       id="path24" /><path
       style="fill:#ffffff;fill-opacity:1;stroke:none;stroke-width:0.264583"
       d="m 122.61623,140.73863 3.0595,-3.60748 0.0457,1.96356 -2.69418,2.64853"
       id="path25" /><path
       style="fill:#ffffff;fill-opacity:1;stroke:none;stroke-width:0.264583"
       d="m 123.34686,142.47387 2.4202,-1.64392 v 1.78091 l -2.4202,0.95895"
       id="path26" /><g
       id="g30"
       inkscape:path-effect="#path-effect33"
       transform="translate(-0.12915788,21.052735)"><path
         style="fill:#ffffff;fill-opacity:1;stroke:none;stroke-width:0.264583"
         d="m 119.59456,117.63099 1.09594,0.274 1.23294,-5.93635 -1.59825,-0.91329 m -2.54355,6.58906 -1.09176,0.2902 -1.3207,-5.91745 1.58455,-0.93685"
         id="path27"
         sodipodi:nodetypes="cccc"
         inkscape:original-d="m 119.59456,117.63099 1.09594,0.274 1.23294,-5.93635 -1.59825,-0.91329" /><path
         style="fill:#ffffff;fill-opacity:1;stroke:none;stroke-width:0.264583"
         d="m 123.65867,112.97325 1.73524,0.95895 -3.15083,5.20572 -0.86762,-0.86762 m -7.72645,-5.22294 -1.72085,0.98453 3.22756,5.1585 0.85468,-0.88037"
         id="path28"
         inkscape:original-d="m 123.65867,112.97325 1.73524,0.95895 -3.15083,5.20572 -0.86762,-0.86762" /><path
         style="fill:#ffffff;fill-opacity:1;stroke:none;stroke-width:0.264583"
         d="m 122.74539,119.68589 3.0595,-3.60748 0.0457,1.96356 -2.69418,2.64853 m -8.49483,-0.94476 -3.11258,-3.56179 -0.0166,1.96403 2.7331,2.60834"
         id="path29"
         inkscape:original-d="m 122.74539,119.68589 3.0595,-3.60748 0.0457,1.96356 -2.69418,2.64853" /><path
         style="fill:#ffffff;fill-opacity:1;stroke:none;stroke-width:0.264583"
         d="m 123.47602,121.42113 2.4202,-1.64392 v 1.78091 l -2.4202,0.95895 m -9.51929,-1.02546 -2.44428,-1.60791 0.0264,1.78072 2.43413,0.92301"
         id="path30"
         inkscape:original-d="m 123.47602,121.42113 2.4202,-1.64392 v 1.78091 l -2.4202,0.95895" /></g><path
       id="path31"
       style="fill:#ffa236;fill-opacity:1;stroke:none;stroke-width:0.264583"
       d="m 118.56695,138.3231 a 4.972578,4.972578 0 0 0 -4.97282,4.97282 4.972578,4.972578 0 0 0 0.27182,1.58957 l 4.68602,2.74867 4.70255,-2.71301 a 4.972578,4.972578 0 0 0 0.28474,-1.62523 4.972578,4.972578 0 0 0 -4.97231,-4.97282 z" /><path
       style="fill:#ffffff;fill-opacity:1;stroke:none;stroke-width:0.264583"
       d="m 123.34686,143.29582 -0.0913,-1.05028"
       id="path32" /></g><rect
     style="fill:#000000;stroke-width:0.255769"
     id="rect33"
     width="17.500893"
     height="1.4207368"
     x="130.05391"
     y="-119.27724"
     transform="rotate(90)" /><rect
     style="fill:#000000;stroke-width:0.255769"
     id="rect34"
     width="17.500893"
     height="1.4207368"
     x="130.06247"
     y="-119.27724"
     transform="rotate(90)" /><g
     id="g39"
     transform="translate(-20.088646,0.49110775)"><g
       id="g38"><g
         id="g37"
         transform="translate(-0.98221546,-0.70158248)"><g
           id="g20"><path
             id="path16"
             style="fill:#000000;stroke:none;stroke-width:0.264583;stroke-opacity:1"
             inkscape:transform-center-y="-1.3652089e-06"
             d="m 64.191345,98.638721 -8.421708,4.861199 v 9.72654 l 8.421708,4.86327 0.0098,-0.006 V 98.644406 Z"
             transform="translate(75.448587,31.233788)" /><path
             id="path17"
             style="fill:#cccccc;fill-opacity:1;stroke:#000000;stroke-width:0.264583;stroke-opacity:1"
             inkscape:transform-center-y="2.4345549e-06"
             d="m 64.191335,98.63849 -8.421934,4.86166 v 9.72633 l 8.421934,4.86346 0.01136,-0.007 V 98.645128 Z"
             transform="matrix(0.86418492,0,0,0.85630349,84.166748,46.805357)" /><path
             id="path18"
             style="fill:#800000;stroke:none;stroke-width:0.264583;stroke-opacity:1"
             inkscape:transform-center-x="-0.0040621442"
             inkscape:transform-center-y="0.25300738"
             d="M 99.363592,128.58058 49.833551,42.280056 49.46573,42.922564 v 85.511986 z"
             transform="matrix(-0.05338746,0,0,-0.01769443,142.2906,150.07164)" /><path
             id="rect19"
             style="fill:#800000;stroke-width:0.156429"
             d="m 138.04158,133.88467 v 11.32437 h 1.60817 v -11.32437 z" /><path
             id="rect20"
             style="fill:#800000;stroke-width:0.156429"
             d="m 137.9485,-133.97775 h 3.19671 v -5.672 h -3.19671 z"
             transform="rotate(90)" /></g><path
           id="rect35"
           style="fill:#000000;stroke-width:0.255769"
           d="m 130.30039,-138.99294 h 17.50074 v -0.65681 h -17.50074 z"
           transform="rotate(90)" /></g></g></g><g
     id="g36"
     style="fill:#ff0000"><path
       id="path22"
       style="fill:#ff0000;stroke:none;stroke-width:0.264583;stroke-opacity:1"
       inkscape:transform-center-x="-0.0040621442"
       inkscape:transform-center-y="0.25300738"
       sodipodi:type="inkscape:offset"
       inkscape:radius="0"
       inkscape:original="M 49.833984 42.273438 L -0.15234375 128.32812 L 99.365234 128.58984 L 49.833984 42.273438 z "
       d="M 49.833984,42.273438 -0.15234375,128.32812 99.365234,128.58984 Z"
       transform="matrix(-0.05338746,0,0,-0.01769443,121.21749,149.83575)" /><rect
       style="fill:#ff0000;stroke-width:0.264583"
       id="rect36"
       width="0.27491862"
       height="0.086816408"
       x="118.42791"
       y="147.56308" /></g><path
     id="path4-0-3"
     style="fill:#000000;stroke:none;stroke-width:0.264583;stroke-opacity:1"
     inkscape:transform-center-y="-1.3652089e-06"
     sodipodi:type="inkscape:offset"
     inkscape:radius="0"
     inkscape:original="M 64.191406 98.638672 L 55.769531 103.5 L 55.769531 113.22656 L 64.191406 118.08984 L 72.613281 113.22656 L 72.613281 103.5 L 64.191406 98.638672 z "
     d="M 64.191406,98.638672 55.769531,103.5 v 9.72656 l 8.421875,4.86328 8.421875,-4.86328 V 103.5 Z"
     transform="translate(98.48255,9.9066398)"
     inkscape:export-filename="shrine_speed.png"
     inkscape:export-xdpi="39.175003"
     inkscape:export-ydpi="39.175003" /><path
     id="path5-4-1"
     style="fill:#cccccc;fill-opacity:1;stroke:#000000;stroke-width:0.264583;stroke-opacity:1"
     inkscape:transform-center-y="2.4345549e-06"
     sodipodi:type="inkscape:offset"
     inkscape:radius="0"
     inkscape:original="M 64.191406 98.638672 L 55.769531 103.5 L 55.769531 113.22656 L 64.191406 118.08984 L 72.613281 113.22656 L 72.613281 103.5 L 64.191406 98.638672 z "
     d="M 64.191406,98.638672 55.769531,103.5 v 9.72656 l 8.421875,4.86328 8.421875,-4.86328 V 103.5 Z"
     transform="matrix(0.86418492,0,0,0.85630349,107.20071,25.478209)" /><path
     id="path6-7-0-0"
     style="fill:#ff0000;stroke:none;stroke-width:0.264583;stroke-opacity:1"
     inkscape:transform-center-x="-0.0040621442"
     inkscape:transform-center-y="0.25300738"
     sodipodi:type="inkscape:offset"
     inkscape:radius="0"
     inkscape:original="M 49.833984 42.273438 L -0.15234375 128.32812 L 99.365234 128.58984 L 49.833984 42.273438 z "
     d="M 49.833984,42.273438 -0.15234375,128.32812 99.365234,128.58984 Z"
     transform="matrix(-0.05338746,0,0,-0.01769443,165.32456,128.7445)" /><path
     id="path19"
     style="fill:#002255;stroke-width:0.377651"
     inkscape:transform-center-x="-0.53110109"
     inkscape:transform-center-y="4.8500643e-06"
     d="m 164.56491,113.12717 v 1.79368 l 2.02934,3.26027 -2.02934,3.26078 v 1.92598 l 3.18689,-5.12061 z" /><path
     id="path53"
     style="fill:#002255;stroke-width:0.377651"
     inkscape:transform-center-x="-0.53110109"
     inkscape:transform-center-y="4.8500643e-06"
     d="m 162.57853,113.12717 v 1.79368 l 2.02933,3.26028 -2.02933,3.26078 v 1.92597 l 3.18689,-5.1206 z" /><path
     id="path54"
     style="fill:#002255;stroke-width:0.377651"
     inkscape:transform-center-x="-0.53110109"
     inkscape:transform-center-y="4.8500643e-06"
     d="m 160.61554,113.12717 v 1.79368 l 2.02933,3.26028 -2.02933,3.26078 v 1.92597 l 3.18689,-5.1206 z" /><path
     id="path55"
     style="fill:#002255;stroke-width:0.377651;fill-opacity:1"
     inkscape:transform-center-x="-0.53110109"
     inkscape:transform-center-y="4.8500643e-06"
     d="m 158.62514,113.12717 v 1.79368 l 2.02933,3.26028 -2.02933,3.26078 v 1.92597 l 3.18689,-5.1206 z" /><path
     id="path56"
     style="fill:#000000;stroke:none;stroke-width:0.264583;stroke-opacity:1"
     inkscape:transform-center-y="-1.3652089e-06"
     sodipodi:type="inkscape:offset"
     inkscape:radius="0"
     inkscape:original="M 64.191406 98.638672 L 55.769531 103.5 L 55.769531 113.22656 L 64.191406 118.08984 L 72.613281 113.22656 L 72.613281 103.5 L 64.191406 98.638672 z "
     d="M 64.191406,98.638672 55.769531,103.5 v 9.72656 l 8.421875,4.86328 8.421875,-4.86328 V 103.5 Z"
     transform="translate(75.657732,30.673482)"
     inkscape:export-filename="shrine_health_or_speed.png"
     inkscape:export-xdpi="39.175003"
     inkscape:export-ydpi="39.175003" /><path
     id="path57"
     style="fill:#cccccc;fill-opacity:1;stroke:#000000;stroke-width:0.264583;stroke-opacity:1"
     inkscape:transform-center-y="2.4345549e-06"
     sodipodi:type="inkscape:offset"
     inkscape:radius="0"
     inkscape:original="M 64.191406 98.638672 L 55.769531 103.5 L 55.769531 113.22656 L 64.191406 118.08984 L 72.613281 113.22656 L 72.613281 103.5 L 64.191406 98.638672 z "
     d="M 64.191406,98.638672 55.769531,103.5 v 9.72656 l 8.421875,4.86328 8.421875,-4.86328 V 103.5 Z"
     transform="matrix(0.86418492,0,0,0.85630349,84.375892,46.245051)" /><path
     id="path58"
     style="fill:#800000;stroke:none;stroke-width:0.264583;stroke-opacity:1"
     inkscape:transform-center-x="-0.0040621442"
     inkscape:transform-center-y="0.25300738"
     sodipodi:type="inkscape:offset"
     inkscape:radius="0"
     inkscape:original="M 49.833984 42.273438 L -0.15234375 128.32812 L 99.365234 128.58984 L 49.833984 42.273438 z "
     d="M 49.833984,42.273438 -0.15234375,128.32812 99.365234,128.58984 Z"
     transform="matrix(-0.05338746,0,0,-0.01769443,142.49974,149.51134)" /><path
     style="fill:#ffffff;fill-opacity:1;stroke:none;stroke-width:0.264583"
     d="m 144.62911,142.97141 -0.0913,-1.05028"
     id="path59" /><path
     id="path60"
     style="fill:#002255;stroke-width:0.377651"
     inkscape:transform-center-x="-0.53110109"
     inkscape:transform-center-y="4.8500643e-06"
     d="m 141.74009,133.89401 v 1.79368 l 2.02934,3.26027 -2.02934,3.26078 v 1.92598 l 3.18689,-5.12061 z" /><path
     id="path61"
     style="fill:#002255;stroke-width:0.377651;fill-opacity:1"
     inkscape:transform-center-x="-0.53110109"
     inkscape:transform-center-y="4.8500643e-06"
     d="m 139.75371,133.89401 v 1.79368 l 2.02933,3.26028 -2.02933,3.26078 v 1.92597 l 3.18689,-5.1206 z" /><path
     id="path62"
     style="fill:#002255;stroke-width:0.377651"
     inkscape:transform-center-x="-0.53110109"
     inkscape:transform-center-y="4.8500643e-06"
     d="m 137.79072,133.89401 v 1.79368 l 2.02933,3.26028 -2.02933,3.26078 v 1.92597 l 3.18689,-5.1206 z" /><path
     id="path63"
     style="fill:#0000ff;stroke-width:0.377651"
     inkscape:transform-center-x="-0.53110109"
     inkscape:transform-center-y="4.8500643e-06"
     d="m 135.80032,133.89401 v 1.79368 l 2.02933,3.26028 -2.02933,3.26078 v 1.92597 l 3.18689,-5.1206 z" /><g
     id="g71"
     transform="translate(1.169304,0.09354433)"><g
       id="g70"><g
         id="g69"
         transform="translate(-0.98221546,-0.70158248)"><g
           id="g68"><path
             id="path64"
             style="fill:#000000;stroke:none;stroke-width:0.264583;stroke-opacity:1"
             inkscape:transform-center-y="-1.3652089e-06"
             d="m 64.191345,98.638721 -8.421708,4.861199 v 9.72654 l 8.421708,4.86327 0.0098,-0.006 V 98.644406 Z"
             transform="translate(75.448587,31.233788)" /><path
             id="path65"
             style="fill:#cccccc;fill-opacity:1;stroke:#000000;stroke-width:0.264583;stroke-opacity:1"
             inkscape:transform-center-y="2.4345549e-06"
             d="m 64.191335,98.63849 -8.421934,4.86166 v 9.72633 l 8.421934,4.86346 0.01136,-0.007 V 98.645128 Z"
             transform="matrix(0.86418492,0,0,0.85630349,84.166748,46.805357)" /><path
             id="path66"
             style="fill:#800000;stroke:none;stroke-width:0.264583;stroke-opacity:1"
             inkscape:transform-center-x="-0.0040621442"
             inkscape:transform-center-y="0.25300738"
             d="M 99.363592,128.58058 49.833551,42.280056 49.46573,42.922564 v 85.511986 z"
             transform="matrix(-0.05338746,0,0,-0.01769443,142.2906,150.07164)" /><path
             id="path67"
             style="fill:#800000;stroke-width:0.156429"
             d="m 138.04158,133.88467 v 11.32437 h 1.60817 v -11.32437 z" /><path
             id="path68"
             style="fill:#800000;stroke-width:0.156429"
             d="m 137.9485,-133.97775 h 3.19671 v -5.672 h -3.19671 z"
             transform="rotate(90)" /></g><path
           id="path69"
           style="fill:#000000;stroke-width:0.255769"
           d="m 130.30039,-138.99294 h 17.50074 v -0.65681 h -17.50074 z"
           transform="rotate(90)" /></g></g></g><g
     id="g72"
     transform="translate(21.22287,-0.36248429)"
     style="fill:#ff0000"><path
       id="path71"
       style="fill:#ff0000;stroke:none;stroke-width:0.264583;stroke-opacity:1"
       inkscape:transform-center-x="-0.0040621442"
       inkscape:transform-center-y="0.25300738"
       sodipodi:type="inkscape:offset"
       inkscape:radius="0"
       inkscape:original="M 49.833984 42.273438 L -0.15234375 128.32812 L 99.365234 128.58984 L 49.833984 42.273438 z "
       d="M 49.833984,42.273438 -0.15234375,128.32812 99.365234,128.58984 Z"
       transform="matrix(-0.05338746,0,0,-0.01769443,121.21749,149.83575)" /><rect
       style="fill:#ff0000;stroke-width:0.264583"
       id="rect71"
       width="0.27491862"
       height="0.086816408"
       x="118.42791"
       y="147.56308" /></g><rect
     style="fill:#000000;stroke-width:0.255769"
     id="rect72"
     width="17.500893"
     height="1.4207368"
     x="129.6918"
     y="-140.60478"
     transform="rotate(90)" /><path
     id="rect37"
     style="fill:#000000;stroke-width:0.0910204"
     d="m 88.44127,131.2535 c 0.0065,0.0114 0.0098,0.0201 0.01778,0.0328 0.08843,0.14161 0.07702,0.24347 -0.06009,0.53546 -0.163699,0.3486 -0.18604,0.36168 -0.667009,0.38897 -0.925717,0.0524 -0.937426,0.45967 -0.01404,0.48798 l 0.512168,0.0158 -0.591633,0.0525 c -0.513432,0.0456 -0.591632,0.0767 -0.591632,0.23467 0,0.15048 0.07033,0.1871 0.405681,0.21101 l 0.40568,0.0288 -0.377593,0.16906 c -0.313028,0.14015 -0.394362,0.23168 -0.476256,0.53581 -0.09563,0.35513 -0.301328,0.64817 -0.454924,0.64817 -0.201335,0 -0.159496,-0.34144 0.101865,-0.83181 0.190843,-0.35806 0.257717,-0.57125 0.197862,-0.6311 -0.137056,-0.13706 -0.388698,-6.9e-4 -0.450124,0.24409 -0.03003,0.11963 -0.09101,0.21759 -0.135642,0.21759 -0.04464,0 -0.08124,0.062 -0.08124,0.13778 0,0.0758 -0.03804,0.20889 -0.08444,0.29581 -0.04641,0.0869 -0.104538,0.22462 -0.129242,0.30595 -0.02937,0.0967 -0.196968,0.16969 -0.484435,0.2112 -0.18726,0.027 -0.359941,0.0599 -0.501323,0.0876 v 0.29066 c 0.0636,0.005 0.268414,0.0151 0.461324,0.0226 0.33348,0.0129 0.356378,0.0322 0.391281,0.33119 0.02404,0.20595 -0.01243,0.36772 -0.10382,0.46061 -0.236848,0.24074 0.100785,0.40515 0.832161,0.40515 0.624369,0 0.764731,-0.0916 0.518211,-0.33812 -0.07462,-0.0746 -0.03247,-0.13745 0.159286,-0.23716 0.143421,-0.0746 0.363193,-0.22526 0.488346,-0.33492 l 0.227551,-0.19947 0.02898,0.23822 c 0.02239,0.1839 -0.07575,0.34519 -0.430747,0.70772 l -0.459724,0.4695 -0.599988,-0.0165 c -0.527346,-0.0145 -0.596173,0.003 -0.569588,0.14293 0.0191,0.10073 0.130422,0.17037 0.302394,0.18915 0.149755,0.0164 0.31119,0.0676 0.358748,0.11377 0.04756,0.0462 0.149957,0.0856 0.227551,0.0876 0.0776,0.002 0.273603,0.17603 0.435369,0.38684 0.161766,0.21081 0.401144,0.5147 0.532078,0.67537 0.130934,0.16066 0.222978,0.33726 0.204618,0.39233 -0.01836,0.0551 -0.39194,-0.2504 -0.830206,-0.67891 -0.438265,-0.42851 -0.836658,-0.77919 -0.885492,-0.77919 -0.292478,0 0.233876,0.85908 0.881226,1.4382 0.12878,0.1152 0.205424,0.23808 0.170308,0.27306 -0.03512,0.035 -0.136566,-0.026 -0.225418,-0.13564 -0.120296,-0.14837 -0.187772,-0.17293 -0.264528,-0.0962 -0.07676,0.0768 -0.168559,0.0405 -0.359104,-0.14204 -0.234922,-0.22507 -0.564433,-0.33177 -0.564433,-0.18275 0,0.0344 0.08627,0.15415 0.191641,0.2663 0.105367,0.11216 0.166237,0.24485 0.135286,0.29493 -0.09203,0.1489 -0.592959,-0.044 -0.801051,-0.30861 -0.135219,-0.17192 -0.249944,-0.22857 -0.403013,-0.19929 -0.01641,0.003 -0.03244,-0.001 -0.04924,-6.9e-4 v 1.44868 l 0.539545,0.005 c 2.724082,0.0242 3.219308,-0.02 3.397797,-0.304 0.06643,-0.10572 0.03919,-3.84941 -0.03058,-4.20186 -0.01579,-0.0798 0.122047,-0.106 0.47839,-0.0914 0.275337,0.0113 2.947858,0.047 5.938901,0.0795 4.257036,0.0462 5.467737,0.0346 5.573927,-0.0535 0.10918,-0.0906 0.14556,-0.0867 0.18649,0.0199 0.028,0.0729 0.0337,1.02084 0.0126,2.10663 -0.0368,1.89632 -0.0313,1.97803 0.14222,2.07089 0.15903,0.0851 0.17495,0.16352 0.13279,0.65687 -0.0555,0.64987 -0.0943,0.84912 -0.18204,0.93687 -0.10603,0.10604 -0.0709,0.2151 0.0693,0.2151 0.12001,0 0.61642,-0.43199 1.51251,-1.31641 0.25144,-0.24817 0.427,-0.33429 0.77367,-0.37955 0.52826,-0.069 0.6759,-0.16509 0.6759,-0.43999 0,-0.11126 0.0785,-0.27339 0.1744,-0.36017 0.0458,-0.0416 0.0803,-0.0688 0.11146,-0.0873 v -0.85349 c -0.0457,-0.0463 -0.0889,-0.089 -0.14364,-0.14826 -0.2594,-0.28095 -0.53075,-0.51068 -0.60284,-0.51057 -0.0721,1.1e-4 -0.38907,0.25057 -0.70452,0.55661 -0.31543,0.30603 -0.59607,0.53386 -0.62363,0.5063 -0.0276,-0.0276 0.0871,-0.2749 0.25493,-0.54968 0.2646,-0.43331 0.3594,-0.5137 0.71465,-0.60638 0.22528,-0.0588 0.46079,-0.12204 0.52337,-0.14062 0.0626,-0.0186 0.11378,-0.10214 0.11378,-0.18577 0,-0.1295 -0.0694,-0.14395 -0.46666,-0.0969 -0.45615,0.054 -0.80763,-0.0396 -0.80763,-0.21512 0,-0.0483 0.25839,-0.0878 0.57422,-0.0878 0.84714,0 1.24102,-0.38533 0.4814,-0.47092 -0.23138,-0.0261 -0.27988,-0.0861 -0.39199,-0.48479 -0.2777,-0.98769 -0.83722,-1.85493 -1.20211,-1.86308 -0.23996,-0.006 -0.0351,-0.0986 0.31502,-0.14346 0.40889,-0.0524 0.44564,-0.0785 0.37404,-0.26507 -0.0421,-0.10953 -0.20596,-0.14044 -0.7447,-0.14044 -0.408,0 -0.66927,-0.035 -0.63803,-0.0855 0.0301,-0.0487 0.32684,-0.0626 0.68798,-0.0324 0.60371,0.0506 0.63519,0.0437 0.63519,-0.14027 0,-0.22705 -0.31813,-0.33814 -0.73154,-0.25546 -0.14836,0.0297 -0.37143,0.0152 -0.49563,-0.032 -0.1923,-0.0731 -0.21766,-0.12679 -0.17067,-0.36177 0.0304,-0.15177 0.0357,-0.2759 0.0119,-0.2759 -0.22184,0 -0.74744,0.28104 -1.13171,0.60514 -0.514227,0.4337 -0.592054,0.46081 -0.756426,0.26275 -0.0924,-0.11134 -0.03901,-0.16772 0.323372,-0.34133 0.460794,-0.22075 0.586694,-0.3803 0.366744,-0.4647 -0.1725,-0.0662 -1.056451,0.35759 -1.05793,0.50719 -6.2e-4,0.0624 -0.133738,0.20584 -0.295817,0.31857 -0.162079,0.11274 -0.479065,0.34185 -0.704341,0.50914 -0.329557,0.24474 -0.440716,0.28492 -0.568877,0.20551 -0.247131,-0.15311 -0.192116,-0.27618 0.227551,-0.50914 0.21276,-0.1181 0.519954,-0.31482 0.682652,-0.43715 0.1627,-0.12232 0.295816,-0.19577 0.295816,-0.16302 0,0.0328 0.08192,0.0158 0.182041,-0.0378 0.246765,-0.13207 0.233744,-0.30777 -0.01795,-0.24195 -0.110033,0.0288 -0.25339,0.008 -0.318572,-0.046 -0.08562,-0.0711 -0.118575,-0.0694 -0.118575,0.006 0,0.0574 -0.105543,0.14457 -0.234485,0.19359 -0.12894,0.049 -0.410467,0.21021 -0.625587,0.35821 -0.215119,0.14801 -0.41677,0.24332 -0.448168,0.21191 -0.0314,-0.0314 -0.05707,-0.21157 -0.05707,-0.40052 0,-0.18895 -0.0472,-0.3727 -0.104886,-0.40835 -0.07553,-0.0467 -0.09074,0.0408 -0.05422,0.31306 0.05602,0.41769 0.02276,0.44548 -0.279995,0.23342 -0.207965,-0.14567 -0.471101,-0.1196 -0.471101,0.0465 0,0.0493 0.262563,0.36669 0.583454,0.70541 l 0.583455,0.61581 -0.228262,0.21138 c -0.274717,0.2546 -0.407718,0.17852 -0.556611,-0.3184 -0.111718,-0.37285 -0.706173,-1.11606 -0.892604,-1.11606 -0.213903,0 -0.230536,0.18108 -0.04125,0.44692 0.103288,0.14506 0.18773,0.29114 0.18773,0.32444 0,0.0333 0.122877,0.23913 0.273061,0.45741 0.266533,0.3874 0.338629,0.59163 0.208706,0.59163 -0.08428,0 -0.754828,-0.65523 -0.754828,-0.73758 0,-0.0349 -0.143358,-0.27634 -0.318571,-0.5367 -0.175215,-0.26037 -0.318572,-0.53356 -0.318572,-0.6071 0,-0.0866 -0.07215,-0.12356 -0.204796,-0.10471 -0.153394,0.0218 -0.202261,0.0863 -0.19484,0.25671 0.0054,0.12515 -0.0604,0.28898 -0.146308,0.36408 -0.193025,0.16873 -0.819361,1.1394 -0.819361,1.26984 0,0.0525 -0.102932,0.0955 -0.228796,0.0955 h -0.228795 l 0.246573,-0.38683 c 0.135643,-0.21277 0.312625,-0.46875 0.393413,-0.56888 0.342157,-0.42404 0.461417,-0.95572 0.214397,-0.95572 -0.175245,0 -0.321339,0.17369 -0.596077,0.70861 -0.127276,0.24782 -0.251952,0.3795 -0.34186,0.36088 -0.170329,-0.0353 -0.142548,-0.2528 0.09511,-0.74523 0.189207,-0.39203 0.224477,-0.68834 0.08195,-0.68834 -0.05006,0 -0.09102,-0.046 -0.09102,-0.10222 0,-0.0708 0.04179,-0.0673 0.135997,0.0108 0.111773,0.0928 0.167111,0.0745 0.310216,-0.10222 0.215545,-0.26619 0.155844,-0.38138 -0.172796,-0.33315 -0.178555,0.0262 -0.283941,-0.0153 -0.363905,-0.14328 -0.0086,-0.0138 -0.01413,-0.0201 -0.02169,-0.0315 H 92.90714 c -0.039,0.0827 -0.06015,0.29239 -0.04658,0.48123 0.02066,0.28766 -0.05333,0.6349 -0.179019,0.83999 -0.0094,0.0154 -0.227258,-0.10135 -0.484078,-0.25937 -0.448857,-0.27619 -0.792864,-0.30728 -0.714652,-0.0645 0.02015,0.0626 0.24891,0.27314 0.508256,0.46791 0.259345,0.19476 0.471457,0.40742 0.471457,0.47252 0,0.16002 -0.207678,0.27952 -0.252439,0.14524 -0.01964,-0.0589 -0.07946,-0.1072 -0.132797,-0.1072 -0.08538,0 -0.829437,-0.55458 -1.275885,-0.95091 -0.202547,-0.17981 -0.469462,-0.18732 -0.401948,-0.0114 0.05946,0.15496 -0.164331,0.3657 -0.299549,0.28214 -0.05226,-0.0323 -0.09493,-0.11773 -0.09493,-0.18987 0,-0.0721 -0.08462,-0.13119 -0.188085,-0.13119 -0.187993,0 -0.764879,-0.38055 -0.964069,-0.6359 -0.07361,-0.0944 -0.07762,-0.18726 -0.01333,-0.30738 0.0058,-0.0109 0.007,-0.0207 0.01138,-0.0313 z m 1.317484,0 c 0.0431,0.0959 0.112366,0.19615 0.186307,0.25794 0.231981,0.19377 0.348991,0.20887 0.494569,0.0633 0.105176,-0.10517 0.03102,-0.26055 -0.116265,-0.32123 z m 11.724026,0 c -3.8e-4,0.006 -0.002,0.005 -0.002,0.011 -0.004,0.096 0.0176,0.1497 0.0478,0.11946 0.0236,-0.0237 0.0255,-0.077 0.0149,-0.13048 z m 1.47535,0 c -0.0174,0.0165 -0.0283,0.0392 -0.0283,0.0641 0,0.05 0.0181,0.091 0.0402,0.091 0.0221,0 0.0654,-0.041 0.0964,-0.091 0.0154,-0.025 0.0186,-0.0477 0.0114,-0.0641 z m -8.83662,0.0601 c -0.03751,0.006 -0.0784,0.0411 -0.09795,0.0997 -0.02003,0.0601 0.01264,0.0927 0.07271,0.0727 0.06007,-0.02 0.10615,-0.0661 0.102397,-0.1024 -0.0056,-0.0545 -0.03965,-0.0764 -0.07715,-0.0701 z m -6.943858,0.21012 c -0.03929,0.005 -0.08297,0.0274 -0.131198,0.0674 -0.11247,0.0933 -0.119101,0.13585 -0.02969,0.19111 0.154426,0.0954 0.387431,-0.0979 0.265239,-0.22009 -0.03034,-0.0304 -0.06506,-0.0433 -0.104353,-0.0384 z m 15.378348,0.067 c -0.19579,0 -0.29742,0.14353 -0.22861,0.32283 0.0742,0.19329 0.3916,0.16167 0.4455,-0.0445 0.0549,-0.20986 0.001,-0.27839 -0.21689,-0.27839 z m -17.573326,0.48586 v 0.50025 c 0.01906,-0.006 0.03258,-0.0149 0.05333,-0.0201 0.197488,-0.0495 0.20874,-0.0776 0.113776,-0.28231 -0.03996,-0.0862 -0.105083,-0.15914 -0.167108,-0.19786 z m 4.199559,0.34399 c 0.09991,-0.0135 0.217827,0.0597 0.400169,0.22879 0.200807,0.1862 0.231007,0.25672 0.135642,0.31716 -0.181112,0.11477 -0.277464,0.0951 -0.558033,-0.11414 -0.200603,-0.14962 -0.231379,-0.21536 -0.148086,-0.31573 0.05692,-0.0686 0.110362,-0.10797 0.170308,-0.11608 z m 11.477627,0.0564 c 0.079,-0.0161 0.16627,0.003 0.30951,0.0468 0.39469,0.12114 0.41224,0.23683 0.0471,0.30986 -0.35527,0.0711 -0.40988,0.16978 -0.18222,0.32924 0.10063,0.0705 0.1559,0.1552 0.12284,0.18826 -0.0942,0.0942 -0.14508,0.0709 -0.48479,-0.22204 l -0.31857,-0.27466 0.24675,-0.21475 c 0.10972,-0.0955 0.18039,-0.14657 0.25937,-0.16266 z m -1.469476,0.20764 0.618298,0.46629 c 0.340008,0.25648 0.631428,0.52246 0.647628,0.59111 0.0496,0.21014 -0.23629,0.2422 -0.504164,0.0565 -0.139445,-0.0967 -0.326266,-0.2019 -0.415103,-0.23396 -0.120403,-0.0435 -0.146767,-0.11688 -0.103819,-0.28799 0.09302,-0.37061 -0.142832,-0.28352 -0.857583,0.31661 -0.382987,0.32157 -0.734956,0.54501 -0.855983,0.54328 -0.199442,-0.003 -0.200105,-0.006 -0.02346,-0.10399 0.169717,-0.0944 0.423499,-0.31962 1.186998,-1.05296 z m -8.489071,0.0262 c 0.07217,-0.015 0.166032,0.0694 0.416347,0.29457 0.220357,0.19818 0.554752,0.49258 0.742918,0.65422 0.188166,0.16162 0.316217,0.3357 0.284617,0.38683 -0.09037,0.14622 -0.144866,0.11564 -0.814206,-0.4583 -0.685168,-0.58751 -0.925725,-0.68058 -0.836072,-0.32338 0.04163,0.16588 0.0016,0.25242 -0.168886,0.36409 -0.326372,0.21385 -0.503101,0.18617 -0.503101,-0.0787 0,-0.16291 0.08184,-0.26631 0.295817,-0.37387 0.162699,-0.0818 0.363914,-0.23474 0.447101,-0.3399 0.0567,-0.0717 0.09216,-0.11651 0.135465,-0.12551 z m 12.478857,0.33778 c -0.12504,-0.002 -0.0706,0.27829 0.14648,0.75535 0.11813,0.25962 0.24485,0.6768 0.2816,0.9271 0.0368,0.2503 0.10687,0.50394 0.15591,0.56354 0.049,0.0596 0.14776,0.0859 0.21919,0.0585 0.15013,-0.0576 0.18183,-0.71566 0.0388,-0.80408 -0.05,-0.0309 -0.091,-0.13628 -0.091,-0.23413 0,-0.17974 -0.0228,-0.23753 -0.32142,-0.8126 -0.16218,-0.31233 -0.29343,-0.45092 -0.4295,-0.45368 z m -8.338853,0.10683 c 0.10628,0.0314 0.285299,0.24674 0.652253,0.73546 0.230778,0.30736 0.238309,0.33955 0.07982,0.33955 -0.236618,0 -0.939667,-0.76976 -0.869671,-0.95216 0.03622,-0.0944 0.07383,-0.14168 0.137598,-0.12285 z m -6.587599,0.0738 c 0.126366,0 0.921414,0.79885 0.928515,0.93296 0.0089,0.16735 -0.179508,0.0321 -0.601943,-0.43235 -0.252788,-0.2779 -0.398091,-0.50061 -0.326572,-0.50061 z m 13.407192,0 c 0.053,0 0.0711,0.041 0.0402,0.091 -0.0309,0.05 -0.0743,0.091 -0.0963,0.091 -0.0221,0 -0.0402,-0.041 -0.0402,-0.091 0,-0.05 0.0433,-0.091 0.0964,-0.091 z m 0.50719,0.26755 0.12373,0.23147 c 0.1137,0.21245 0.10313,0.25306 -0.12977,0.49616 -0.19226,0.20067 -0.32833,0.26104 -0.56177,0.24924 -0.16941,-0.009 -0.30822,-0.0376 -0.30844,-0.0645 -2.2e-4,-0.0269 0.19682,-0.24329 0.43786,-0.48071 z m -14.342284,0.15911 c 0.05787,-0.0146 0.143306,0.0629 0.356259,0.26471 0.197301,0.18696 0.330841,0.38816 0.303994,0.45812 -0.08559,0.22303 -0.459649,0.14076 -0.663809,-0.14596 -0.155259,-0.21803 -0.173291,-0.30705 -0.09244,-0.45811 0.03644,-0.0681 0.06128,-0.11 0.096,-0.11876 z m 4.944254,0.0638 c 0.03318,7.1e-4 0.05653,0.0373 0.05653,0.0958 0,0.15987 -0.05459,0.18331 -0.132619,0.0571 -0.0288,-0.0466 -0.0107,-0.11042 0.04018,-0.14186 0.01272,-0.008 0.02485,-0.0114 0.03591,-0.011 z m 8.41423,0.0267 c 0.0109,0.006 0.0162,0.0217 0.0162,0.0452 0,0.0757 -0.0717,0.19925 -0.15929,0.27449 -0.44056,0.37835 -0.52836,0.26278 -0.11128,-0.14649 0.13875,-0.13616 0.22166,-0.19296 0.25439,-0.17315 z m -2.171335,0.0407 c 0.105079,-0.0157 0.237405,0.053 0.458124,0.21582 l 0.308439,0.22755 -0.358927,-0.003 c -0.472014,-0.004 -0.72771,-0.14576 -0.58061,-0.32301 0.05663,-0.0682 0.109927,-0.10807 0.172974,-0.11751 z m -8.106501,0.005 c 0.05618,0.006 0.104221,0.0397 0.166041,0.10151 0.08278,0.0828 0.132449,0.16685 0.110398,0.18684 -0.08295,0.0752 -0.410149,0.1253 -0.563544,0.0862 -0.227721,-0.058 -0.196628,-0.19617 0.07164,-0.3184 0.09485,-0.0432 0.159274,-0.0629 0.215462,-0.0562 z m 3.411131,0.0743 c 0.06557,0 0.193295,0.0819 0.283905,0.18204 0.162254,0.17928 0.158918,0.18204 -0.216707,0.18204 -0.353185,0 -0.374125,-0.0135 -0.283905,-0.18204 0.05358,-0.10013 0.151135,-0.18204 0.216707,-0.18204 z m -6.950792,0.4615 c 0.05412,0.006 0.123386,0.0686 0.185596,0.18488 0.08868,0.16572 0.06168,0.22614 -0.201596,0.45137 -0.455628,0.38979 -0.597479,0.33685 -0.258484,-0.0965 0.0979,-0.12515 0.178985,-0.29923 0.180086,-0.38683 0.0014,-0.10896 0.04028,-0.15908 0.0944,-0.15289 z m 15.276837,0.0539 c 0.0332,7.1e-4 0.0587,0.0384 0.059,0.12177 3e-4,0.0751 0.0548,0.23223 0.12125,0.34915 0.15504,0.27303 0.10232,0.32087 -0.15502,0.14062 -0.13645,-0.0956 -0.19518,-0.21694 -0.17653,-0.36479 0.019,-0.15061 0.096,-0.24871 0.15128,-0.24675 z m 1.73722,0.30364 c -0.053,0 -0.0711,0.041 -0.0402,0.091 0.0309,0.05 0.0743,0.091 0.0964,0.091 0.0221,0 0.0402,-0.041 0.0402,-0.091 0,-0.05 -0.0433,-0.091 -0.0964,-0.091 z m -17.966748,0.20995 c 0.104806,-0.006 0.136857,0.22118 0.04711,0.45724 -0.09261,0.24358 -0.309978,0.32313 -0.415637,0.15217 -0.03094,-0.05 0.0076,-0.091 0.08569,-0.091 0.08977,0 0.141864,-0.0817 0.141864,-0.22222 0,-0.1222 0.04132,-0.24758 0.09173,-0.27875 0.0178,-0.011 0.03427,-0.0166 0.04924,-0.0174 z m 15.562528,0.24533 c 0.0709,0 0.5814,0.3518 0.755,0.52034 0.071,0.0688 0.0803,0.1168 0.0227,0.1168 -0.0537,0 -0.0976,0.0614 -0.0976,0.13653 0,0.2024 -0.11969,0.1668 -0.38239,-0.11378 -0.2298,-0.24544 -0.41683,-0.65989 -0.29777,-0.65989 z m -9.355544,0.7454 c -0.419063,-0.0348 -0.444618,0.093 -0.0448,0.22418 0.428526,0.14058 0.448708,0.13882 0.415459,-0.0366 -0.0211,-0.11132 -0.132646,-0.16781 -0.370659,-0.18756 z m -0.517323,0.1648 c -0.05301,0 -0.09635,0.041 -0.09635,0.091 0,0.05 0.0181,0.091 0.04018,0.091 0.02207,0 0.06541,-0.041 0.09635,-0.091 0.03094,-0.05 0.01284,-0.091 -0.04018,-0.091 z m 4.992609,0.0212 c -0.02968,0.003 -0.06806,0.0138 -0.115376,0.032 -0.08226,0.0316 -0.149507,0.11444 -0.149507,0.18417 0,0.17675 0.241136,0.15912 0.310927,-0.0227 0.05447,-0.14194 0.04299,-0.20259 -0.04604,-0.19342 z m -9.106125,0.12391 c 0.06571,-0.005 0.08889,0.0597 0.0368,0.19538 -0.03222,0.0839 -0.163607,0.24527 -0.291905,0.35838 -0.252692,0.22278 -0.307489,0.24344 -0.40017,0.15076 -0.0927,-0.0927 -0.07224,-0.21244 0.03626,-0.21244 0.05329,0 0.200442,-0.12292 0.326926,-0.27324 0.118172,-0.14044 0.22638,-0.21418 0.292083,-0.21884 z m 14.097663,0.13084 c 0.10994,0.005 0.56888,0.43503 0.56888,0.5335 0,0.19978 -0.16742,0.17163 -0.39572,-0.0666 -0.2314,-0.24153 -0.31718,-0.47288 -0.17316,-0.46683 z m -9.488868,0.0882 c -0.081,0 -0.121961,0.041 -0.09102,0.091 0.03094,0.05 0.0719,0.091 0.09102,0.091 0.01912,0 0.06008,-0.041 0.09102,-0.091 0.03094,-0.05 -0.01002,-0.091 -0.09102,-0.091 z m 11.710698,0.0366 c -0.15516,0.0959 -0.13143,0.19184 0.12195,0.49297 0.0227,0.0269 0.0376,0.0572 0.0583,0.0862 v -0.50826 c -0.0822,-0.063 -0.14724,-0.0913 -0.18027,-0.0709 z m -16.332115,0.73332 c 0.0198,0.0179 0.02489,0.0732 0.02489,0.17458 0,0.27171 -0.02671,0.28947 -0.172085,0.1143 -0.07856,-0.0947 -0.07021,-0.15185 0.03449,-0.23875 0.05845,-0.0485 0.09291,-0.0681 0.112709,-0.0501 z m 14.090735,0.17653 c 0.009,-0.002 0.0177,-2.6e-4 0.0247,0.006 0.028,0.028 1.6e-4,0.10146 -0.062,0.1632 -0.0899,0.0892 -0.10042,0.0789 -0.051,-0.0508 0.0256,-0.0674 0.0606,-0.11252 0.0884,-0.11911 z m 1.73383,0.0222 c 0.008,0.003 0.0143,0.009 0.0176,0.0187 0.0227,0.0674 0.16629,0.26505 0.3191,0.4391 l 0.27787,0.31644 -0.25689,0.2208 c -0.29656,0.25481 -0.50457,0.29713 -0.30222,0.0615 0.39704,-0.46232 0.24897,-0.56218 -0.2967,-0.20017 -0.3773,0.25031 -0.8661,0.36649 -0.79802,0.18969 0.0167,-0.0433 0.25206,-0.31982 0.52301,-0.61439 0.27451,-0.29846 0.45724,-0.45057 0.51625,-0.43164 z m -10.143259,1.8028 c -0.404958,0.003 -0.684786,0.0125 -0.712874,0.0304 -0.234509,0.14948 -0.301505,0.62955 -0.301505,2.16032 0,1.51609 0.06601,1.9797 0.305771,2.15 0.08828,0.0627 3.792998,0.004 4.131472,-0.0651 0.188692,-0.0387 0.204796,-0.0918 0.204796,-0.6743 0,-0.53904 0.02682,-0.64651 0.18204,-0.72958 0.236313,-0.12647 0.233364,-0.27306 -0.0055,-0.27306 -0.181105,0 -0.186976,-0.0424 -0.16853,-1.23037 0.01051,-0.67671 1.41e-4,-1.24944 -0.02311,-1.27269 -0.05582,-0.0558 -2.397675,-0.10481 -3.612548,-0.0956 z m 7.999129,0.1088 c 0.0423,-0.004 0.0983,-0.001 0.17155,0.002 0.1761,0.009 0.34569,0.0775 0.39146,0.15929 0.0444,0.0793 0.14019,0.14417 0.21279,0.14417 0.18556,0 0.16448,0.0802 -0.0729,0.27822 -0.23339,0.1947 -0.69161,0.23322 -0.75056,0.0631 -0.0217,-0.0626 -0.0512,-0.23665 -0.0654,-0.38683 -0.0184,-0.19327 -0.0139,-0.24973 0.11306,-0.25991 z m -12.904629,0.48888 c -0.162698,-6.9e-4 -0.295816,0.0396 -0.295816,0.0896 0,0.11562 0.276202,0.11562 0.455102,0 0.103605,-0.0669 0.06519,-0.0886 -0.159286,-0.0896 z m 15.736569,6.9e-4 c -0.1059,0.1506 -0.18534,0.30379 -0.15182,0.35803 0.0406,0.0657 0.0913,0.0942 0.15182,0.088 z m -9.122837,0.24284 c 0.204671,0 0.382321,0.0185 0.394836,0.0413 0.01252,0.0227 -0.263959,0.30448 -0.614387,0.62594 -0.350428,0.32147 -0.893138,0.8475 -1.20602,1.16905 -0.312882,0.32155 -0.572915,0.54807 -0.577766,0.50328 -0.0048,-0.0448 -0.0016,-0.23506 0.0071,-0.42275 0.01391,-0.30099 0.110629,-0.43429 0.819895,-1.12905 0.74529,-0.73004 0.831454,-0.78771 1.176331,-0.78771 z m 8.411557,0.0281 c -0.16902,0 -0.2543,0.0796 -0.3623,0.33812 -0.19055,0.45604 -0.13331,1.40087 0.10044,1.65917 0.41022,0.45328 0.63291,0.13024 0.64657,-0.93812 0.0115,-0.90056 -0.0461,-1.05917 -0.38471,-1.05917 z m -10.156054,0.004 c 0.02556,-0.002 0.04324,0.0351 0.07235,0.11023 0.0342,0.0882 0.01166,0.22136 -0.05013,0.29581 -0.250012,0.30125 -0.380668,0.0443 -0.142219,-0.27964 0.06087,-0.0827 0.09444,-0.12424 0.119999,-0.1264 z m 2.933628,0.26844 c 0.0924,0 0.09193,0.0284 -0.0021,0.14169 -0.07093,0.0855 -0.109519,0.33809 -0.09742,0.63714 0.01676,0.41432 -0.0053,0.49546 -0.135286,0.49546 -0.168804,0 -0.625073,0.3202 -1.128332,0.79198 -0.191784,0.17979 -0.413662,0.29921 -0.5575,0.29955 -0.13141,3.4e-4 -0.366926,0.0263 -0.523367,0.0576 -0.183726,0.0368 -0.284439,0.0207 -0.284439,-0.0455 0,-0.0563 0.03952,-0.1024 0.08782,-0.1024 0.0483,0 0.427174,-0.32 0.841938,-0.7111 1.382415,-1.30355 1.682381,-1.56441 1.798718,-1.56441 z m 5.175006,0.75252 c -0.0327,0.004 -0.0652,0.0198 -0.0939,0.0485 -0.0513,0.0513 -0.0658,0.13793 -0.0322,0.19235 h -1.8e-4 c 0.0892,0.14437 0.32355,0.12107 0.32355,-0.0321 0,-0.13347 -0.0993,-0.22153 -0.19733,-0.20871 z m 2.7587,0.11254 c -0.002,0.01 -0.0128,0.0285 -0.0128,0.0357 v 1.8e-4 c 0,0.0295 0.005,0.0566 0.0128,0.0816 z m -3.80135,0.40923 c -0.41939,0 -0.762469,0.0311 -0.762469,0.069 0,0.0824 0.651339,0.2951 0.903449,0.2951 0.098,0 0.20338,0.041 0.23431,0.091 0.084,0.13598 0.37169,0.10983 0.50061,-0.0455 0.0904,-0.10892 0.0904,-0.16414 0,-0.27306 -0.0842,-0.10148 -0.30913,-0.13653 -0.8759,-0.13653 z m -13.141238,1.8e-4 c -0.05006,0 -0.09102,0.041 -0.09102,0.091 0,0.05 0.04096,0.091 0.09102,0.091 0.05006,0 0.09102,-0.041 0.09102,-0.091 0,-0.05 -0.04096,-0.091 -0.09102,-0.091 z m 0.811717,0.10221 c -0.03162,-10e-4 -0.06777,0.004 -0.100621,0.0176 -0.07261,0.0291 -0.0511,0.0505 0.05493,0.0549 0.09595,0.004 0.14971,-0.0176 0.119464,-0.0478 -0.01512,-0.0151 -0.04216,-0.0234 -0.07378,-0.0247 z m 1.350727,0.0827 c -0.08294,0.0215 -0.159996,0.17694 -0.159996,0.36657 0,0.14723 0.03765,0.26756 0.08373,0.26756 0.09421,0 0.233282,-0.5324 0.158575,-0.60711 -0.02632,-0.0263 -0.05467,-0.0341 -0.08231,-0.027 z m -1.493302,0.2832 c -0.05128,-0.006 -0.146183,0.0439 -0.320349,0.1463 -0.225011,0.13233 -0.262285,0.20205 -0.220618,0.41173 l 0.05013,0.25226 -1.613656,-0.0247 c -0.53398,-0.008 -0.880137,-0.02 -1.129399,-0.0364 v 1.02611 c 0.0435,0.0224 0.08278,0.0483 0.107198,0.0777 0.06232,0.0751 0.180028,0.13766 0.261505,0.13937 0.3179,0.006 0.455663,0.22268 0.465591,0.73136 0.0053,0.27197 -0.0026,0.5765 -0.01742,0.67662 -0.02095,0.14092 0.0321,0.18875 0.23484,0.2119 0.201535,0.023 0.340754,-0.047 0.604254,-0.30435 0.211387,-0.20641 0.407246,-0.32082 0.511812,-0.29901 0.145921,0.0304 0.123373,0.0819 -0.162841,0.37261 -0.250863,0.25477 -0.406899,0.33781 -0.637142,0.33884 -0.385104,0.001 -0.559236,0.11052 -0.518213,0.32355 0.03424,0.17779 0.291086,0.20956 0.726919,0.0901 0.314639,-0.0862 0.758372,0.14256 0.915537,0.47199 0.0808,0.16937 0.202228,0.26018 0.37457,0.27999 0.308682,0.0355 0.41275,0.25089 0.216173,0.44746 -0.131374,0.13138 -0.172487,0.1223 -0.467545,-0.10275 -0.236899,-0.1807 -0.323549,-0.31598 -0.323549,-0.50541 0,-0.32663 -0.09119,-0.35889 -0.818117,-0.28924 -0.456022,0.0437 -0.597353,0.0919 -0.620254,0.21173 -0.02105,0.1101 0.05791,0.1776 0.271994,0.2327 0.241028,0.062 0.307772,0.12982 0.331904,0.33724 0.01661,0.14279 0.0918,0.35369 0.167108,0.46862 0.07531,0.11493 0.14903,0.40531 0.16373,0.64532 0.0147,0.23999 0.05966,0.51835 0.100087,0.61847 0.06541,0.162 0.05667,0.16824 -0.08,0.0571 -0.08446,-0.0687 -0.153596,-0.22231 -0.153596,-0.34133 0,-0.11902 -0.03613,-0.21635 -0.08035,-0.21635 -0.0831,0 -0.159014,-0.24306 -0.266839,-0.8551 -0.06433,-0.36517 -0.329245,-0.63641 -0.451902,-0.46274 -0.03612,0.0512 -0.208956,0.10547 -0.38417,0.12071 -0.19371,0.0168 -0.376177,0.10369 -0.471279,0.22364 v 0.72336 c 0.08467,-0.0664 0.11151,-0.16117 0.117687,-0.36213 0.0058,-0.18897 0.02845,-0.27618 0.05031,-0.19394 0.04067,0.15297 0.328191,0.13829 0.541678,-0.0276 0.06998,-0.0544 0.164874,0.11646 0.302571,0.54471 l 0.20053,0.6238 -0.189508,0.3376 c -0.18242,0.32479 -0.183606,0.34613 -0.02951,0.5607 0.187985,0.26174 0.614553,0.27752 0.616342,0.0227 0.0017,-0.24157 0.767375,-0.61289 1.048334,-0.50844 0.206761,0.0769 0.211565,0.0911 0.06009,0.17636 -0.09065,0.051 -0.228975,0.0681 -0.307372,0.0381 -0.14621,-0.0561 -0.392525,0.0898 -0.392525,0.23252 0,0.0439 0.122878,0.08 0.273062,0.08 0.150183,0 0.273061,0.041 0.273061,0.091 0,0.05 -0.112638,0.0918 -0.250306,0.0924 -0.137668,6.9e-4 -0.291266,0.0315 -0.341327,0.0683 -0.141497,0.10396 -0.162211,0.47219 -0.0352,0.62523 0.0303,0.0365 0.04653,0.0641 0.05618,0.0891 h 0.288704 c 0.01986,-0.0141 0.04616,-0.009 0.07395,0 h 0.461857 c 0.142221,-0.0587 0.281248,-0.14645 0.337415,-0.23733 0.07194,-0.1164 0.683009,-0.12102 0.683009,-0.005 0,0.0475 -0.06775,0.12448 -0.150575,0.17084 -0.03207,0.018 -0.0534,0.0436 -0.06969,0.0716 h 0.641942 c 0.114639,-0.0928 0.221589,-0.18237 0.351993,-0.27839 0.200203,-0.14742 0.396927,-0.3217 0.437146,-0.38737 0.05407,-0.0883 0.119279,-0.0948 0.250306,-0.0247 0.268904,0.14391 0.216449,0.24818 -0.226839,0.45013 -0.205075,0.0934 -0.332498,0.17004 -0.407459,0.24035 h 0.706119 c 0.105136,-0.0775 0.214987,-0.16739 0.326927,-0.27235 0.219986,-0.20629 0.611424,-0.53894 0.869848,-0.73919 0.491761,-0.38105 0.569666,-0.44382 0.878205,-0.70772 0.186654,-0.15965 0.188551,-0.15747 0.169063,0.18204 -0.01085,0.189 -0.02535,0.37256 -0.03236,0.40799 -0.007,0.0354 -0.207356,0.17727 -0.445147,0.3152 -0.23779,0.13792 -0.446058,0.28308 -0.462745,0.32248 -0.01668,0.0394 -0.111752,0.0716 -0.211374,0.0716 -0.258706,0 -0.177658,0.3104 0.09102,0.34862 0.116254,0.0165 0.286365,-0.0378 0.378126,-0.12089 0.154332,-0.13982 0.183702,-0.14014 0.392703,-0.003 0.07571,0.0496 0.137841,0.11711 0.185774,0.19537 h 0.972602 c -0.0068,-2.08729 -0.03887,-3.04665 -0.103109,-3.16669 -0.16093,-0.3007 -0.528586,-0.3614 -2.444928,-0.40426 -1.024002,-0.023 -1.884147,-0.0639 -1.911427,-0.0912 -0.02728,-0.0272 -0.04621,-0.28159 -0.04213,-0.56532 0.0041,-0.28372 0.01734,-1.12266 0.02951,-1.86414 0.0273,-1.66368 -0.02486,-1.79196 -0.72923,-1.79196 -0.489733,0 -0.57516,-0.14304 -0.189329,-0.31733 0.119459,-0.0539 0.198929,-0.1723 0.198929,-0.296 0,-0.12385 -0.0077,-0.18657 -0.05902,-0.19288 z m 14.145306,0.0912 c -0.11593,0.005 -0.21325,0.085 -0.23484,0.23697 -0.0196,0.13774 0.0177,0.20479 0.11378,0.20479 0.0786,0 0.14293,0.0647 0.14293,0.14382 0,0.11238 -0.0596,0.13062 -0.27306,0.0837 -0.17014,-0.0373 -0.27306,-0.0235 -0.27306,0.037 0,0.0534 -0.13732,0.15455 -0.30524,0.22471 -0.37751,0.15773 -0.39302,0.2383 -0.47857,2.49169 -0.0631,1.66102 -0.10439,1.8289 -0.38132,1.55196 -0.0849,-0.0849 -0.13336,-0.0849 -0.21831,0 -0.077,0.077 -0.601294,0.10915 -1.777208,0.10915 -1.915623,0 -1.779913,-0.0692 -1.875872,0.95767 -0.02798,0.29933 -0.05317,0.5547 -0.05582,0.56764 -0.0026,0.0129 -0.08491,-0.0264 -0.182752,-0.0875 -0.299509,-0.18704 -0.340268,0.0207 -0.0496,0.2528 0.271336,0.21663 0.273335,0.22469 0.303994,1.27695 0.0065,0.22356 0.0059,0.3781 0.0069,0.54719 h 0.841938 c 0.0099,-0.25217 0.02347,-0.42008 0.03911,-0.42008 0.02982,0 0.173419,0.0849 0.319105,0.18862 0.266581,0.18982 0.541483,0.20773 0.597321,0.0389 0.01656,-0.05 -0.179117,-0.23374 -0.435013,-0.40817 -0.435284,-0.29669 -0.626654,-0.56286 -0.626654,-0.87198 0,-0.21726 0.112889,-0.15429 0.744162,0.41546 0.332803,0.30037 0.639448,0.54633 0.681408,0.54701 0.04196,6.9e-4 0.213318,0.14211 0.380793,0.31448 0.06607,0.068 0.150254,0.1339 0.238217,0.19574 h 0.660961 c -0.0788,-0.0789 -0.1876,-0.16076 -0.334568,-0.23574 -0.396615,-0.20233 -0.456398,-0.31329 -0.217951,-0.40479 0.0903,-0.0346 0.229433,0.0161 0.347189,0.12675 0.10809,0.10155 0.22507,0.18471 0.25991,0.18471 0.0348,0 0.26733,0.14336 0.51661,0.31858 0.006,0.004 0.0104,0.006 0.0162,0.0105 h 0.46986 c -0.0167,-0.0175 -0.0276,-0.0333 -0.0471,-0.0515 -0.109,-0.10155 -0.17816,-0.20459 -0.1536,-0.22915 0.0246,-0.0246 0.39296,-0.0715 0.81865,-0.10417 l 0.77403,-0.0596 0.43324,0.33084 c 0.058,0.0443 0.11503,0.0749 0.17422,0.1136 h 1.16815 v -0.46417 c -0.081,-0.0304 -0.1622,-0.0634 -0.26062,-0.10916 -0.81612,-0.37896 -1.25724,-0.73248 -1.52281,-1.22041 -0.24799,-0.45565 -0.54431,-0.59615 -0.65403,-0.31022 -0.0758,0.19746 -0.27382,0.16766 -0.43733,-0.0658 -0.18924,-0.27018 -0.18142,-0.31564 0.0979,-0.57456 0.2241,-0.20768 0.23844,-0.2698 0.22364,-0.96212 l -0.0158,-0.74025 0.23911,0.0601 c 0.13142,0.033 0.22187,0.0274 0.20106,-0.0121 -0.2124,-0.40374 -0.34783,-0.78871 -0.3111,-0.88442 0.0416,-0.10846 0.55177,-0.27841 0.73011,-0.24319 0.0428,0.008 0.13948,-0.0358 0.21494,-0.0985 0.11407,-0.0947 0.17989,-0.0661 0.39003,0.16906 0.18112,0.2027 0.68723,0.62334 1.10487,0.93812 v -0.43715 c -1.00012,-0.76266 -1.09653,-1.03706 -0.6487,-1.36815 0.23064,-0.17053 0.25884,-0.23166 0.1776,-0.38346 -0.0739,-0.13813 -0.0635,-0.21363 0.0443,-0.32142 0.28862,-0.28862 0.14129,-0.60188 -0.33991,-0.72265 -0.2058,-0.0517 -0.23231,-0.0873 -0.14435,-0.19324 0.0766,-0.0923 0.0795,-0.15814 0.0103,-0.22737 -0.13653,-0.13654 -0.31994,7.1e-4 -0.26773,0.20071 0.0467,0.1786 -0.0973,0.26861 -0.4295,0.26861 -0.29055,0 -0.35015,-0.0958 -0.17795,-0.28604 0.13772,-0.15216 0.13733,-0.18179 -0.006,-0.39981 -0.0961,-0.14673 -0.23073,-0.2162 -0.34666,-0.21102 z m 2.12814,0.0478 c -0.24864,0.31388 -0.287,0.40939 -0.24017,0.48515 0.0597,0.0966 0.12155,0.12313 0.24017,0.0435 z m -8.151656,0.16497 c 0.02076,-0.001 0.03889,0.001 0.05298,0.0105 0.103021,0.0637 0.09708,0.30932 -0.0075,0.30932 -0.04596,0 -0.144184,0.0233 -0.218306,0.0517 -0.07412,0.0284 -0.160178,0.0108 -0.191108,-0.0393 -0.05737,-0.0928 0.218548,-0.32285 0.363905,-0.33226 z m -7.069012,0.7863 c -0.03162,-0.001 -0.06777,0.004 -0.100621,0.0176 -0.07261,0.0291 -0.0511,0.0506 0.05494,0.055 0.09595,0.004 0.14971,-0.0176 0.119464,-0.0478 -0.01512,-0.0151 -0.04216,-0.0234 -0.07378,-0.0247 z m 10.292768,6.9e-4 c -0.04125,0 -0.08249,0.006 -0.113776,0.0189 -0.06258,0.0252 -0.01138,0.046 0.113776,0.046 0.125151,0 0.176351,-0.0208 0.113775,-0.046 -0.03129,-0.0126 -0.07253,-0.0189 -0.113775,-0.0189 z m -12.071043,0.62505 c 0.03411,0.0103 0.05635,0.0331 0.05635,0.0713 0,0.0391 -0.236731,0.30534 -0.526033,0.59163 -0.289304,0.28629 -0.5541,0.52052 -0.588433,0.52052 -0.03433,0 -0.104718,-0.079 -0.156441,-0.17563 -0.117877,-0.22026 0.04583,-0.40347 0.492079,-0.55075 0.17328,-0.0572 0.340219,-0.18349 0.371015,-0.28053 0.0396,-0.12475 0.249137,-0.20737 0.351458,-0.17653 z m -1.585212,1.8e-4 c 0.215583,0 0.276261,0.04 0.276261,0.18204 0,0.12028 -0.06068,0.18204 -0.178841,0.18204 -0.09836,0 -0.222677,-0.0819 -0.276261,-0.18204 -0.08748,-0.16347 -0.06922,-0.18204 0.178841,-0.18204 z m 16.240915,0.003 c 0.0684,-0.009 0.14628,0.0149 0.18506,0.0777 0.062,0.10022 -0.16995,0.30417 -0.25226,0.22185 -0.033,-0.0329 -0.0599,-0.1144 -0.0599,-0.18114 0,-0.0678 0.0588,-0.10951 0.12711,-0.11841 z m 0.65421,0.088 c 0.0793,0 0.1279,0.0487 0.10808,0.10809 -0.0562,0.16878 -0.25226,0.19683 -0.25226,0.0361 0,-0.0793 0.0649,-0.14418 0.14418,-0.14418 z m -14.646637,0.12142 c 0.03345,0.0334 0.01054,0.15304 -0.05102,0.2656 -0.134314,0.24559 -0.528155,0.55119 -0.586477,0.4551 -0.05759,-0.0949 0.562393,-0.7958 0.637499,-0.7207 z m 14.464587,0.30897 c 0.0337,-6.8e-4 0.0541,0.0267 0.0732,0.0766 0.0329,0.0858 0.0488,0.16223 0.035,0.16959 -0.0137,0.007 -0.17588,0.1246 -0.36052,0.26044 -0.45677,0.33602 -0.51152,0.17271 -0.0825,-0.24621 0.18546,-0.18111 0.27857,-0.25952 0.33474,-0.26045 z m 1.87108,0.23538 c -0.0832,0.08 -0.0723,0.31678 0,0.51928 z m -16.414422,0.35128 c 0.071,-0.0284 0.108976,0.0886 0.108976,0.34826 0,0.38503 -0.08486,0.45411 -0.27555,0.22435 -0.09398,-0.11323 -0.09332,-0.18207 0.0041,-0.36408 0.06538,-0.12218 0.119886,-0.19149 0.162485,-0.20853 z m 15.287862,0.75145 c -0.23967,-0.0128 -0.66969,0.0826 -0.79767,0.20657 -0.12078,0.11697 -0.1015,0.16185 0.16729,0.38898 0.16711,0.1412 0.51526,0.31913 0.77367,0.39537 0.65776,0.19406 0.90022,0.19232 0.86256,-0.006 -0.0193,-0.1016 -0.16759,-0.19254 -0.40941,-0.25102 -0.20851,-0.0504 -0.40939,-0.1221 -0.44657,-0.15928 -0.0372,-0.0372 -0.14271,-0.0676 -0.23448,-0.0676 -0.24486,0 -0.20336,-0.17274 0.0661,-0.2752 0.12816,-0.0488 0.20759,-0.12964 0.17652,-0.1799 -0.0193,-0.0313 -0.0782,-0.0476 -0.15804,-0.0519 z m -15.94207,0.008 c 0.09285,0.0153 0.223891,0.0989 0.372436,0.24746 0.174786,0.17479 0.303518,0.38351 0.286039,0.46381 -0.02577,0.11839 -0.104381,0.0906 -0.41528,-0.14701 -0.210887,-0.16121 -0.384979,-0.34197 -0.386837,-0.4016 -0.0039,-0.12479 0.05079,-0.17791 0.143642,-0.16266 z m -2.438706,1.18593 v 0.16444 c 0.01988,-0.008 0.03811,-0.018 0.05049,-0.0304 0.06066,-0.0607 0.04385,-0.10008 -0.05049,-0.13405 z m 18.766196,0.31395 c -0.65929,0 -0.79112,0.0255 -0.88176,0.17066 -0.0746,0.11942 -0.17674,0.15717 -0.34044,0.12587 -0.17972,-0.0344 -0.23395,-0.007 -0.23395,0.11591 0,0.14511 0.0768,0.15573 0.79643,0.10968 0.38523,-0.0247 0.96365,-0.0241 1.40086,-0.006 v -0.47598 c -0.21929,-0.0234 -0.48799,-0.0398 -0.74114,-0.0398 z m -16.749526,0.31946 c 0.01816,6.9e-4 0.04352,0.008 0.0768,0.0205 0.251696,0.0924 0.562299,0.31269 0.562299,0.39875 0,0.0443 -0.118886,0.0805 -0.264172,0.0805 -0.210491,0 -0.283152,-0.0545 -0.357504,-0.26772 -0.06102,-0.17503 -0.07191,-0.23405 -0.01742,-0.232 z m 16.941876,0.46186 c -0.0935,-0.006 -0.21169,-0.003 -0.3527,0.0107 -0.55342,0.0534 -0.7178,0.13098 -0.61813,0.29226 0.0868,0.14043 0.89308,0.12303 1.09368,-0.0237 0.21583,-0.15784 0.15768,-0.2607 -0.12285,-0.27928 z m -13.61661,0.11278 c 0.112765,-0.004 0.227933,0.0572 0.421679,0.20996 0.182419,0.14385 0.383261,0.2615 0.446391,0.2615 0.07571,0 0.05872,0.062 -0.04995,0.18205 -0.198608,0.2195 -0.282744,0.21932 -0.637143,-7.2e-4 -0.56027,-0.34841 -0.632493,-0.50167 -0.295817,-0.62754 0.03988,-0.0149 0.07725,-0.0235 0.114843,-0.0249 z m -0.891004,0.0163 c 0.207718,0 0.125269,0.13328 -0.40977,0.66274 -0.484448,0.4794 -0.657231,0.60274 -0.657231,0.46897 0,-0.11462 0.958933,-1.13171 1.067001,-1.13171 z m 2.118712,0 c 0.166025,0 0.260459,0.0378 0.227551,0.091 -0.03094,0.05 -0.133338,0.091 -0.227551,0.091 -0.09421,0 -0.196611,-0.041 -0.227552,-0.091 -0.03291,-0.0532 0.06153,-0.091 0.227552,-0.091 z m 0.978113,0 c 0.194005,0 0.12566,0.35159 -0.09067,0.4663 -0.112637,0.0597 -0.450551,0.33111 -0.750918,0.60319 -0.300367,0.27207 -0.654401,0.57251 -0.786651,0.66754 l -0.24035,0.17279 -0.328172,-0.36337 c -0.180502,-0.19979 -0.359115,-0.36411 -0.396791,-0.36514 -0.03767,-7.2e-4 -0.170841,-0.0809 -0.295994,-0.17724 -0.180161,-0.13864 -0.204178,-0.19837 -0.115553,-0.28729 0.143368,-0.14383 0.600453,0.0755 0.531545,0.25511 -0.02716,0.0708 0.04489,0.14114 0.17884,0.17475 0.123386,0.0309 0.224351,0.11344 0.224351,0.18311 0,0.14593 0.32498,0.17252 0.410837,0.0336 0.03162,-0.0512 0.27232,-0.25186 0.534922,-0.44586 0.262602,-0.19399 0.597385,-0.47986 0.743985,-0.63518 0.146598,-0.15532 0.317875,-0.2823 0.380614,-0.2823 z m -4.333601,0.0446 c 0.0274,-0.0123 0.05188,0.003 0.07733,0.0441 0.03854,0.0624 0.05184,0.18068 0.02951,0.26275 -0.02232,0.0821 -0.139851,0.27203 -0.261328,0.42221 -0.208922,0.25829 -0.220916,0.26198 -0.221329,0.0683 -2.48e-4,-0.11264 -0.04149,-0.20479 -0.09155,-0.20479 -0.138472,0 -0.108581,-0.1558 0.04089,-0.21316 0.09193,-0.0353 0.115041,-0.007 0.07644,0.0937 -0.03785,0.0988 -0.01478,0.1296 0.07289,0.0978 0.07055,-0.0256 0.117543,-0.0944 0.104353,-0.15271 -0.01318,-0.0584 0.02192,-0.19185 0.07804,-0.29671 0.03705,-0.0692 0.06735,-0.10911 0.09475,-0.12142 z m 11.595674,0.0464 c 0.275886,0 0.267366,0.21125 -0.01031,0.25493 -0.09597,0.0151 -0.256492,0.063 -0.356615,0.10631 -0.271574,0.11745 -0.591712,0.17598 -0.590921,0.10808 0.0014,-0.11643 0.721577,-0.46932 0.957846,-0.46932 z m 0.809586,0.091 c 0.0992,0 0.5916,0.47947 0.86469,0.84194 0.26895,0.35698 -0.0749,0.12576 -0.50754,-0.34133 -0.25506,-0.27534 -0.41569,-0.50061 -0.35715,-0.50061 z m 3.88792,0.12409 c -0.0602,0.0423 -0.11481,0.0773 -0.18524,0.13297 -0.24214,0.1914 -0.56861,0.40115 -0.7255,0.46613 -0.26788,0.11095 -0.35779,0.26619 -0.22879,0.39519 0.0961,0.0961 0.69776,-0.23907 1.13953,-0.57066 z m -6.584933,0.21083 c 0.079,-0.0111 0.220279,0.0691 0.412258,0.23769 0.729261,0.64051 0.876896,0.74718 1.034824,0.74718 0.121068,0 0.158385,-0.0604 0.141508,-0.22932 -0.01872,-0.18735 0.0508,-0.26973 0.379725,-0.44942 0.339698,-0.18556 0.425478,-0.20121 0.547548,-0.0999 0.11038,0.0916 0.1202,0.14969 0.0414,0.24462 -0.0568,0.0684 -0.15447,0.12445 -0.21689,0.12445 -0.0624,0 -0.319157,0.16383 -0.570654,0.36408 -0.251496,0.20024 -0.471903,0.36204 -0.489767,0.35964 -0.09211,-0.0126 -1.352328,-1.11195 -1.352328,-1.17972 0,-0.073 0.02495,-0.11262 0.07235,-0.11929 z m -8.844797,0.73653 c 0.04398,-0.0253 0.23325,0.0667 0.420613,0.20461 l 0.340793,0.25067 -0.311994,0.23786 c -0.171507,0.13081 -0.324759,0.23508 -0.340614,0.23164 -0.133486,-0.0285 -0.438392,-0.21756 -0.438392,-0.27182 0,-0.0375 0.122879,-0.11102 0.273061,-0.16337 0.303801,-0.10591 0.348577,-0.23547 0.124798,-0.36071 -0.08152,-0.0456 -0.11224,-0.10356 -0.06827,-0.12888 z m 12.96471,0.4759 c 0.19729,0 0.35875,0.041 0.35875,0.091 0,0.05 -0.18669,0.091 -0.41492,0.091 -0.25347,0 -0.39312,-0.0354 -0.35875,-0.091 0.0309,-0.05 0.21763,-0.091 0.41492,-0.091 z m -1.42112,0.005 c 0.0789,0.004 0.17297,0.0433 0.27697,0.11928 h 1.8e-4 c 0.16534,0.12092 0.16479,0.12743 -0.0156,0.224 -0.21754,0.11642 -0.55575,-0.0679 -0.44711,-0.24373 0.0431,-0.0698 0.10672,-0.10291 0.1856,-0.0995 z m -15.430267,0.11288 c -0.02572,0.003 -0.05512,0.009 -0.088,0.0195 -0.03368,0.0107 -0.06824,0.011 -0.102931,0.006 v 0.29919 c 0.04269,-0.0351 0.09021,-0.0674 0.148086,-0.0937 0.223982,-0.10205 0.222829,-0.2516 0.04284,-0.23146 z m 0.34506,0.36427 c -0.01672,-0.003 -0.03968,0.003 -0.06471,0.0181 -0.05006,0.0309 -0.09102,0.15619 -0.09102,0.2784 0,0.0906 0.02269,0.15178 0.06169,0.18719 h 0.175996 c 0.0237,-0.0307 0.02512,-0.0827 0.0018,-0.16977 -0.03019,-0.11264 -0.05549,-0.2379 -0.05618,-0.2784 -3.42e-4,-0.0202 -0.01083,-0.0324 -0.02755,-0.0356 z"
     inkscape:export-filename=".\favicon.png"
     inkscape:export-xdpi="166.66544"
     inkscape:export-ydpi="166.66544" /><path
     id="path33"
     style="fill:#000000;stroke:none;stroke-width:0.264583;stroke-opacity:1"
     inkscape:transform-center-y="-1.3652089e-06"
     sodipodi:type="inkscape:offset"
     inkscape:radius="0"
     inkscape:original="M 64.191406 98.638672 L 55.769531 103.5 L 55.769531 113.22656 L 64.191406 118.08984 L 72.613281 113.22656 L 72.613281 103.5 L 64.191406 98.638672 z "
     d="M 64.191406,98.638672 55.769531,103.5 v 9.72656 l 8.421875,4.86328 8.421875,-4.86328 V 103.5 Z"
     transform="translate(118.58438,9.6393282)"
     inkscape:export-filename="shrine_power.png"
     inkscape:export-xdpi="39.175003"
     inkscape:export-ydpi="39.175003" /><path
     id="path34"
     style="fill:#cccccc;fill-opacity:1;stroke:#000000;stroke-width:0.264583;stroke-opacity:1"
     inkscape:transform-center-y="2.4345549e-06"
     sodipodi:type="inkscape:offset"
     inkscape:radius="0"
     inkscape:original="M 64.191406 98.638672 L 55.769531 103.5 L 55.769531 113.22656 L 64.191406 118.08984 L 72.613281 113.22656 L 72.613281 103.5 L 64.191406 98.638672 z "
     d="M 64.191406,98.638672 55.769531,103.5 v 9.72656 l 8.421875,4.86328 8.421875,-4.86328 V 103.5 Z"
     transform="matrix(0.86418492,0,0,0.85630349,127.30254,25.210897)" /><path
     id="path35"
     style="fill:#ff0000;stroke:none;stroke-width:0.264583;stroke-opacity:1"
     inkscape:transform-center-x="-0.0040621442"
     inkscape:transform-center-y="0.25300738"
     sodipodi:type="inkscape:offset"
     inkscape:radius="0"
     inkscape:original="M 49.833984 42.273438 L -0.15234375 128.32812 L 99.365234 128.58984 L 49.833984 42.273438 z "
     d="M 49.833984,42.273438 -0.15234375,128.32812 99.365234,128.58984 Z"
     transform="matrix(-0.05338746,0,0,-0.01769443,185.42639,128.47719)" /><path
     id="path38"
     style="fill:#ff6600;stroke-width:0.374567"
     inkscape:transform-center-x="7.3013146e-06"
     inkscape:transform-center-y="-1.4216524e-06"
     d="m 182.77579,126.34534 c -0.0554,-4.28638 -3.36301,-8.46707 -7.21905,-8.34175 3.8381,-0.14122 7.16066,-3.50394 7.21904,-8.34175 -0.0668,4.88892 3.01119,8.32359 7.21904,8.34175 -4.21712,-0.0137 -7.24405,4.05163 -7.21903,8.34175 z"
     sodipodi:nodetypes="ccccc" /><path
     id="path39"
     style="fill:#000000;stroke:none;stroke-width:0.264583;stroke-opacity:1"
     inkscape:transform-center-y="-1.3652089e-06"
     sodipodi:type="inkscape:offset"
     inkscape:radius="0"
     inkscape:original="M 64.191406 98.638672 L 55.769531 103.5 L 55.769531 113.22656 L 64.191406 118.08984 L 72.613281 113.22656 L 72.613281 103.5 L 64.191406 98.638672 z "
     d="M 64.191406,98.638672 55.769531,103.5 v 9.72656 l 8.421875,4.86328 8.421875,-4.86328 V 103.5 Z"
     transform="translate(96.35588,30.658114)"
     inkscape:export-filename="shrine_power_or_speed.png"
     inkscape:export-xdpi="39.175003"
     inkscape:export-ydpi="39.175003" /><path
     id="path40"
     style="fill:#cccccc;fill-opacity:1;stroke:#000000;stroke-width:0.264583;stroke-opacity:1"
     inkscape:transform-center-y="2.4345549e-06"
     sodipodi:type="inkscape:offset"
     inkscape:radius="0"
     inkscape:original="M 64.191406 98.638672 L 55.769531 103.5 L 55.769531 113.22656 L 64.191406 118.08984 L 72.613281 113.22656 L 72.613281 103.5 L 64.191406 98.638672 z "
     d="M 64.191406,98.638672 55.769531,103.5 v 9.72656 l 8.421875,4.86328 8.421875,-4.86328 V 103.5 Z"
     transform="matrix(0.86418492,0,0,0.85630349,105.07404,46.229682)" /><path
     style="fill:#ffffff;fill-opacity:1;stroke:none;stroke-width:0.264583"
     d="m 165.32726,142.95605 -0.0913,-1.05028"
     id="path42" /><path
     id="path43"
     style="fill:#ff6600;stroke-width:0.374567"
     inkscape:transform-center-x="7.3013146e-06"
     inkscape:transform-center-y="-1.4216524e-06"
     d="m 160.54729,147.36413 c -0.0554,-4.28638 -3.36301,-8.46707 -7.21905,-8.34175 3.8381,-0.14122 7.16066,-3.50394 7.21904,-8.34175 -0.0668,4.88892 3.01119,8.32359 7.21904,8.34175 -4.21712,-0.0137 -7.24405,4.05163 -7.21903,8.34175 z"
     sodipodi:nodetypes="ccccc" /><path
     id="path46"
     style="fill:#cccccc;fill-opacity:1;stroke:#000000;stroke-width:0.227604;stroke-opacity:1"
     inkscape:transform-center-y="2.4345549e-06"
     d="m 160.81958,130.8341 v 16.28221 l 6.95151,-3.97701 v -8.32921 z" /><path
     id="path41"
     style="fill:#ff0000;stroke:none;stroke-width:0.264583;stroke-opacity:1"
     inkscape:transform-center-x="-0.0040621442"
     inkscape:transform-center-y="0.25300738"
     sodipodi:type="inkscape:offset"
     inkscape:radius="0"
     inkscape:original="M 49.833984 42.273438 L -0.15234375 128.32812 L 99.365234 128.58984 L 49.833984 42.273438 z "
     d="M 49.833984,42.273438 -0.15234375,128.32812 99.365234,128.58984 Z"
     transform="matrix(-0.05338746,0,0,-0.01769443,163.19789,149.49598)" /><path
     id="path47"
     style="fill:#002255;stroke-width:0.377651"
     inkscape:transform-center-x="-0.53110109"
     inkscape:transform-center-y="4.8500643e-06"
     d="m 162.38409,133.83177 v 1.79368 l 2.02934,3.26027 -2.02934,3.26078 v 1.92598 l 3.18689,-5.12061 z" /><path
     id="path48"
     style="fill:#002255;fill-opacity:1;stroke-width:0.377651"
     inkscape:transform-center-x="-0.53110109"
     inkscape:transform-center-y="4.8500643e-06"
     d="m 160.39771,133.83177 v 1.79368 l 2.02933,3.26028 -2.02933,3.26078 v 1.92597 l 3.18689,-5.1206 z" /><path
     id="path49"
     style="fill:#002255;stroke-width:0.377651"
     inkscape:transform-center-x="-0.53110109"
     inkscape:transform-center-y="4.8500643e-06"
     d="m 160.5121,137.16963 v 3.56516 l 1.1095,-1.78284 z" /><rect
     style="fill:#000000;stroke-width:0.255769"
     id="rect49"
     width="17.500893"
     height="1.4207368"
     x="129.70978"
     y="-161.23541"
     transform="rotate(90)" /><path
     id="path50"
     style="fill:#000000;stroke:none;stroke-width:0.264583;stroke-opacity:1"
     inkscape:transform-center-y="-1.3652089e-06"
     sodipodi:type="inkscape:offset"
     inkscape:radius="0"
     inkscape:original="M 64.191406 98.638672 L 55.769531 103.5 L 55.769531 113.22656 L 64.191406 118.08984 L 72.613281 113.22656 L 72.613281 103.5 L 64.191406 98.638672 z "
     d="M 64.191406,98.638672 55.769531,103.5 v 9.72656 l 8.421875,4.86328 8.421875,-4.86328 V 103.5 Z"
     transform="translate(136.23865,9.6015246)"
     inkscape:export-filename="shrine_defense.png"
     inkscape:export-xdpi="39.175003"
     inkscape:export-ydpi="39.175003" /><path
     id="path51"
     style="fill:#cccccc;fill-opacity:1;stroke:#000000;stroke-width:0.264583;stroke-opacity:1"
     inkscape:transform-center-y="2.4345549e-06"
     sodipodi:type="inkscape:offset"
     inkscape:radius="0"
     inkscape:original="M 64.191406 98.638672 L 55.769531 103.5 L 55.769531 113.22656 L 64.191406 118.08984 L 72.613281 113.22656 L 72.613281 103.5 L 64.191406 98.638672 z "
     d="M 64.191406,98.638672 55.769531,103.5 v 9.72656 l 8.421875,4.86328 8.421875,-4.86328 V 103.5 Z"
     transform="matrix(0.86418492,0,0,0.85630349,144.95681,25.173093)" /><path
     id="path52"
     style="fill:#ff0000;stroke:none;stroke-width:0.264583;stroke-opacity:1"
     inkscape:transform-center-x="-0.0040621442"
     inkscape:transform-center-y="0.25300738"
     sodipodi:type="inkscape:offset"
     inkscape:radius="0"
     inkscape:original="M 49.833984 42.273438 L -0.15234375 128.32812 L 99.365234 128.58984 L 49.833984 42.273438 z "
     d="M 49.833984,42.273438 -0.15234375,128.32812 99.365234,128.58984 Z"
     transform="matrix(-0.05338746,0,0,-0.01769443,203.08066,128.43939)" /><circle
     style="fill:#ffffff;stroke-width:0.264583"
     id="path74"
     cx="98.984634"
     cy="113.94156"
     r="1.6016393" /><path
     id="path75"
     style="fill:#008000;stroke-width:0.177222"
     inkscape:transform-center-x="6.2839165e-06"
     inkscape:transform-center-y="1.4959669"
     d="m 200.48366,123.46475 c -4.34893,-2.32998 -4.46894,-5.30634 -4.45881,-9.60354 4.43887,1.32142 4.46672,1.31519 8.91764,0 0.003,4.18575 0.0238,7.24548 -4.45883,9.60354 z"
     sodipodi:nodetypes="cccc" /><path
     id="path76"
     style="fill:#000000;stroke:none;stroke-width:0.264583;stroke-opacity:1"
     inkscape:transform-center-y="-1.3652089e-06"
     sodipodi:type="inkscape:offset"
     inkscape:radius="0"
     inkscape:original="M 64.191406 98.638672 L 55.769531 103.5 L 55.769531 113.22656 L 64.191406 118.08984 L 72.613281 113.22656 L 72.613281 103.5 L 64.191406 98.638672 z "
     d="M 64.191406,98.638672 55.769531,103.5 v 9.72656 l 8.421875,4.86328 8.421875,-4.86328 V 103.5 Z"
     transform="translate(116.80761,30.62031)"
     inkscape:export-filename="shrine_defense_or_speed.png"
     inkscape:export-xdpi="39.175003"
     inkscape:export-ydpi="39.175003" /><path
     id="path77"
     style="fill:#cccccc;fill-opacity:1;stroke:#000000;stroke-width:0.264583;stroke-opacity:1"
     inkscape:transform-center-y="2.4345549e-06"
     sodipodi:type="inkscape:offset"
     inkscape:radius="0"
     inkscape:original="M 64.191406 98.638672 L 55.769531 103.5 L 55.769531 113.22656 L 64.191406 118.08984 L 72.613281 113.22656 L 72.613281 103.5 L 64.191406 98.638672 z "
     d="M 64.191406,98.638672 55.769531,103.5 v 9.72656 l 8.421875,4.86328 8.421875,-4.86328 V 103.5 Z"
     transform="matrix(0.86418492,0,0,0.85630349,125.52577,46.191878)" /><path
     id="path79"
     style="fill:#008000;stroke-width:0.177222"
     inkscape:transform-center-x="6.2839165e-06"
     inkscape:transform-center-y="1.4959669"
     d="m 181.05262,144.48354 c -4.34893,-2.32998 -4.46894,-5.30634 -4.45881,-9.60354 4.43887,1.32142 4.46672,1.31519 8.91764,0 0.003,4.18575 0.0238,7.24548 -4.45883,9.60354 z"
     sodipodi:nodetypes="cccc" /><path
     id="path80"
     style="fill:#cccccc;fill-opacity:1;stroke:#000000;stroke-width:0.227604;stroke-opacity:1"
     inkscape:transform-center-y="2.4345549e-06"
     d="m 181.26892,130.8341 v 16.28221 l 6.95151,-3.97701 v -8.32921 z" /><path
     id="path78"
     style="fill:#ff0000;stroke:none;stroke-width:0.264583;stroke-opacity:1"
     inkscape:transform-center-x="-0.0040621442"
     inkscape:transform-center-y="0.25300738"
     sodipodi:type="inkscape:offset"
     inkscape:radius="0"
     inkscape:original="M 49.833984 42.273438 L -0.15234375 128.32812 L 99.365234 128.58984 L 49.833984 42.273438 z "
     d="M 49.833984,42.273438 -0.15234375,128.32812 99.365234,128.58984 Z"
     transform="matrix(-0.05338746,0,0,-0.01769443,183.64962,149.45818)" /><path
     id="path81"
     style="fill:#002255;stroke-width:0.377651"
     inkscape:transform-center-x="-0.53110109"
     inkscape:transform-center-y="4.8500643e-06"
     d="m 182.83343,133.83177 v 1.79368 l 2.02934,3.26027 -2.02934,3.26078 v 1.92598 l 3.18689,-5.12061 z" /><path
     id="path82"
     style="fill:#002255;fill-opacity:1;stroke-width:0.377651"
     inkscape:transform-center-x="-0.53110109"
     inkscape:transform-center-y="4.8500643e-06"
     d="m 180.84705,133.83177 v 1.79368 l 2.02933,3.26028 -2.02933,3.26078 v 1.92597 l 3.18689,-5.1206 z" /><path
     id="path83"
     style="fill:#002255;stroke-width:0.377651"
     inkscape:transform-center-x="-0.53110109"
     inkscape:transform-center-y="4.8500643e-06"
     d="m 180.96144,137.16963 v 3.56516 l 1.1095,-1.78284 z" /><rect
     style="fill:#000000;stroke-width:0.255769"
     id="rect83"
     width="17.500893"
     height="1.4207368"
     x="129.70032"
     y="-181.7131"
     transform="rotate(90)" /><path
     id="path84"
     style="fill:#000000;stroke:none;stroke-width:0.264583;stroke-opacity:1"
     inkscape:transform-center-y="-1.3652089e-06"
     sodipodi:type="inkscape:offset"
     inkscape:radius="0"
     inkscape:original="M 64.191406 98.638672 L 55.769531 103.5 L 55.769531 113.22656 L 64.191406 118.08984 L 72.613281 113.22656 L 72.613281 103.5 L 64.191406 98.638672 z "
     d="M 64.191406,98.638672 55.769531,103.5 v 9.72656 l 8.421875,4.86328 8.421875,-4.86328 V 103.5 Z"
     transform="translate(135.4125,30.459923)"
     inkscape:export-filename="shrine_defense_or_power.png"
     inkscape:export-xdpi="39.175003"
     inkscape:export-ydpi="39.175003" /><path
     id="path85"
     style="fill:#cccccc;fill-opacity:1;stroke:#000000;stroke-width:0.264583;stroke-opacity:1"
     inkscape:transform-center-y="2.4345549e-06"
     d="M 64.191327 98.638416 L 55.769393 103.50007 L 55.769393 113.2264 L 64.191327 118.08987 L 72.613262 113.2264 L 72.613262 103.50007 L 64.191327 98.638416 z M 64.503472 98.846014 L 72.547484 103.48921 L 72.547484 113.21614 L 64.503472 117.86055 L 64.503472 98.846014 z "
     transform="matrix(0.86418492,0,0,0.85630349,144.13066,46.031491)" /><path
     id="path86"
     style="fill:#008000;stroke-width:0.177222"
     inkscape:transform-center-x="6.2839165e-06"
     inkscape:transform-center-y="1.4959669"
     d="m 199.65751,144.32315 c -4.34893,-2.32998 -4.46894,-5.30634 -4.45881,-9.60354 4.43887,1.32142 4.46672,1.31519 8.91764,0 0.003,4.18575 0.0238,7.24548 -4.45883,9.60354 z"
     sodipodi:nodetypes="cccc" /><path
     id="path87"
     style="fill:#cccccc;fill-opacity:1;stroke:#000000;stroke-width:0.227604;stroke-opacity:1"
     inkscape:transform-center-y="2.4345549e-06"
     d="m 199.87381,130.67371 v 16.28221 l 6.95151,-3.97701 v -8.32921 z" /><path
     id="path88"
     style="fill:#ff0000;stroke:none;stroke-width:0.264583;stroke-opacity:1"
     inkscape:transform-center-x="-0.0040621442"
     inkscape:transform-center-y="0.25300738"
     sodipodi:type="inkscape:offset"
     inkscape:radius="0"
     inkscape:original="M 49.833984 42.273438 L -0.15234375 128.32812 L 99.365234 128.58984 L 49.833984 42.273438 z "
     d="M 49.833984,42.273438 -0.15234375,128.32812 99.365234,128.58984 Z"
     transform="matrix(-0.05338746,0,0,-0.01769443,202.25451,149.29779)" /><path
     id="path91"
     style="fill:#ff6600;stroke-width:0.374567"
     inkscape:transform-center-x="7.3013146e-06"
     inkscape:transform-center-y="-1.4216524e-06"
     d="M 199.60384 130.48247 C 199.60378 130.48717 199.60338 130.49173 199.60332 130.49643 L 199.60384 130.49591 C 199.60389 130.49139 199.60378 130.487 199.60384 130.48247 z M 199.87359 133.01514 L 199.87359 144.91105 C 200.6998 141.55423 203.3592 138.81283 206.82303 138.82408 C 203.38759 138.80926 200.70622 136.51675 199.87359 133.01514 z M 199.60332 147.15174 C 199.60339 147.1564 199.60378 147.16103 199.60384 147.16569 C 199.60381 147.1612 199.60386 147.15675 199.60384 147.15226 L 199.60332 147.15174 z " /><rect
     style="fill:#000000;stroke-width:0.255769"
     id="rect91"
     width="17.500893"
     height="1.4207368"
     x="129.53993"
     y="-200.31799"
     transform="rotate(90)" /><path
     id="path92"
     style="fill:#000000;stroke:none;stroke-width:0.264583;stroke-opacity:1"
     inkscape:transform-center-y="-1.3652089e-06"
     sodipodi:type="inkscape:offset"
     inkscape:radius="0"
     inkscape:original="M 64.191406 98.638672 L 55.769531 103.5 L 55.769531 113.22656 L 64.191406 118.08984 L 72.613281 113.22656 L 72.613281 103.5 L 64.191406 98.638672 z "
     d="M 64.191406,98.638672 55.769531,103.5 v 9.72656 l 8.421875,4.86328 8.421875,-4.86328 V 103.5 Z"
     transform="translate(98.709371,-11.338967)"
     inkscape:export-filename="shrine_buff.png"
     inkscape:export-xdpi="39.175003"
     inkscape:export-ydpi="39.175003" /><path
     id="path93"
     style="fill:#cccccc;fill-opacity:1;stroke:#000000;stroke-width:0.264583;stroke-opacity:1"
     inkscape:transform-center-y="2.4345549e-06"
     sodipodi:type="inkscape:offset"
     inkscape:radius="0"
     inkscape:original="M 64.191406 98.638672 L 55.769531 103.5 L 55.769531 113.22656 L 64.191406 118.08984 L 72.613281 113.22656 L 72.613281 103.5 L 64.191406 98.638672 z "
     d="M 64.191406,98.638672 55.769531,103.5 v 9.72656 l 8.421875,4.86328 8.421875,-4.86328 V 103.5 Z"
     transform="matrix(0.86418492,0,0,0.85630349,107.42753,4.2326023)" /><path
     id="path94"
     style="fill:#ff0000;stroke:none;stroke-width:0.264583;stroke-opacity:1"
     inkscape:transform-center-x="-0.0040621442"
     inkscape:transform-center-y="0.25300738"
     sodipodi:type="inkscape:offset"
     inkscape:radius="0"
     inkscape:original="M 49.833984 42.273438 L -0.15234375 128.32812 L 99.365234 128.58984 L 49.833984 42.273438 z "
     d="M 49.833984,42.273438 -0.15234375,128.32812 99.365234,128.58984 Z"
     transform="matrix(-0.05338746,0,0,-0.01769443,165.55138,107.49889)" /><path
     id="path95"
     style="fill:#002255;stroke-width:0.377651"
     inkscape:transform-center-x="-0.53110109"
     inkscape:transform-center-y="4.8500643e-06"
     d="M 164.79149 91.88173 L 164.79149 93.675419 L 166.82083 96.935685 L 165.20335 99.534493 L 165.96145 100.24246 L 167.97838 97.001831 L 164.79149 91.88173 z " /><path
     id="path96"
     style="fill:#002255;stroke-width:0.377651"
     inkscape:transform-center-x="-0.53110109"
     inkscape:transform-center-y="4.8500643e-06"
     d="M 163.26652 92.622253 L 163.28822 94.450566 L 164.8349 96.935685 L 163.94762 98.361438 L 164.70571 99.069405 L 165.99245 97.001831 L 163.26652 92.622253 z " /><path
     id="path97"
     style="fill:#002255;stroke-width:0.377651"
     inkscape:transform-center-x="-0.53110109"
     inkscape:transform-center-y="4.8500643e-06"
     d="M 163.30424 95.837561 L 163.3275 97.782662 L 163.46392 97.910303 L 164.02926 97.001831 L 163.30424 95.837561 z " /><path
     id="path101"
     style="fill:#ff6600;stroke-width:0.374567"
     inkscape:transform-center-x="7.3013146e-06"
     inkscape:transform-center-y="-1.4216524e-06"
     d="M 162.89962 97.301554 L 160.68993 99.511239 C 162.02074 101.07952 162.87277 103.20989 162.90065 105.36721 C 162.88759 103.12729 163.70792 100.94981 165.0938 99.381014 L 162.89962 97.301554 z " /><path
     id="path102"
     style="fill:#008000;stroke-width:0.177222"
     inkscape:transform-center-x="6.2839165e-06"
     inkscape:transform-center-y="1.4959669"
     d="M 158.44201 92.223311 C 158.43453 95.396431 158.50007 97.849058 160.28479 99.853337 L 162.79265 97.381653 L 162.82985 93.211365 C 161.73351 93.199298 160.61737 92.8709 158.44201 92.223311 z " /><rect
     style="fill:#000000;stroke-width:0.175692"
     id="rect99"
     width="8.2579193"
     height="1.4207368"
     x="-47.070892"
     y="-184.67268"
     transform="rotate(135)" /><rect
     style="fill:#000000;stroke-width:0.186331"
     id="rect98"
     width="9.2882185"
     height="1.4207368"
     x="87.694359"
     y="-163.61934"
     transform="rotate(90)" /><rect
     style="fill:#000000;stroke-width:0.175692"
     id="rect100"
     width="8.2579193"
     height="1.4207368"
     x="183.31508"
     y="-47.113987"
     transform="rotate(45)" /></svg>
