<?xml version="1.0" encoding="UTF-8" standalone="no"?>
<!-- Created with Inkscape (http://www.inkscape.org/) -->

<svg
   width="210mm"
   height="297mm"
   viewBox="0 0 210 297"
   version="1.1"
   id="svg1"
   inkscape:version="1.3.2 (091e20e, 2023-11-25, custom)"
   sodipodi:docname="icons.svg"
   xml:space="preserve"
   inkscape:export-filename="icons.png"
   inkscape:export-xdpi="113.58048"
   inkscape:export-ydpi="113.58048"
   xmlns:inkscape="http://www.inkscape.org/namespaces/inkscape"
   xmlns:sodipodi="http://sodipodi.sourceforge.net/DTD/sodipodi-0.dtd"
   xmlns="http://www.w3.org/2000/svg"
   xmlns:svg="http://www.w3.org/2000/svg"><sodipodi:namedview
     id="namedview1"
     pagecolor="#505050"
     bordercolor="#eeeeee"
     borderopacity="1"
     inkscape:showpageshadow="0"
     inkscape:pageopacity="0"
     inkscape:pagecheckerboard="0"
     inkscape:deskcolor="#505050"
     inkscape:document-units="mm"
     inkscape:zoom="4.9489682"
     inkscape:cx="374.32045"
     inkscape:cy="494.74959"
     inkscape:window-width="1920"
     inkscape:window-height="1009"
     inkscape:window-x="1912"
     inkscape:window-y="176"
     inkscape:window-maximized="1"
     inkscape:current-layer="svg1"
     showguides="true" /><defs
     id="defs1"><inkscape:path-effect
       effect="bspline"
       id="path-effect34"
       is_visible="true"
       lpeversion="1.3"
       weight="33.333333"
       steps="2"
       helper_size="0"
       apply_no_weight="true"
       apply_with_weight="true"
       only_selected="false"
       uniform="false" /><inkscape:path-effect
       effect="mirror_symmetry"
       start_point="118.58275,103.40797"
       end_point="118.72693,122.88237"
       center_point="118.65484,113.14517"
       id="path-effect33"
       is_visible="true"
       lpeversion="1.2"
       lpesatellites=""
       mode="free"
       discard_orig_path="false"
       fuse_paths="false"
       oposite_fuse="false"
       split_items="false"
       split_open="false"
       link_styles="false" /><inkscape:path-effect
       effect="mirror_symmetry"
       start_point="118.58275,103.40797"
       end_point="118.72693,122.88237"
       center_point="118.65484,113.14517"
       id="path-effect15"
       is_visible="true"
       lpeversion="1.2"
       lpesatellites=""
       mode="free"
       discard_orig_path="false"
       fuse_paths="false"
       oposite_fuse="false"
       split_items="false"
       split_open="false"
       link_styles="false" /><inkscape:path-effect
       effect="mirror_symmetry"
       start_point="118.58275,103.40797"
       end_point="118.72693,122.88237"
       center_point="118.65484,113.14517"
       id="path-effect15-5"
       is_visible="true"
       lpeversion="1.2"
       lpesatellites=""
       mode="free"
       discard_orig_path="false"
       fuse_paths="false"
       oposite_fuse="false"
       split_items="false"
       split_open="false"
       link_styles="false" /></defs><path
     id="path1"
     style="fill:#000000;stroke:none;stroke-width:0.264583;stroke-opacity:1"
     inkscape:transform-center-x="-0.012929264"
     inkscape:transform-center-y="2.4329103"
     sodipodi:type="inkscape:offset"
     inkscape:radius="0"
     inkscape:original="M 49.833984 42.273438 L -0.15234375 128.32812 L 99.365234 128.58984 L 49.833984 42.273438 z "
     d="M 49.833984,42.273438 -0.15234375,128.32812 99.365234,128.58984 Z"
     transform="matrix(-0.1701542,0,0,-0.1701542,107.48359,132.61441)"
     inkscape:export-filename="spawn.png"
     inkscape:export-xdpi="96"
     inkscape:export-ydpi="96" /><path
     id="path2"
     style="fill:#008000;stroke:none;stroke-width:0.264583;stroke-opacity:1"
     inkscape:transform-center-x="-0.010125683"
     inkscape:transform-center-y="1.9283709"
     sodipodi:type="inkscape:offset"
     inkscape:radius="0"
     inkscape:original="M 49.833984 42.273438 L -0.15234375 128.32812 L 99.365234 128.58984 L 49.833984 42.273438 z "
     d="M 49.833984,42.273438 -0.15234375,128.32812 99.365234,128.58984 Z"
     transform="matrix(-0.13330222,0,0,-0.13486747,105.65549,129.07145)" /><text
     xml:space="preserve"
     style="font-style:normal;font-variant:normal;font-weight:normal;font-stretch:normal;font-size:6.00265px;font-family:roboto;-inkscape-font-specification:roboto;fill:#808080;stroke:#ffffff;stroke-width:0.0450199;stroke-opacity:1"
     x="93.441185"
     y="104.07806"
     id="text3"><tspan
       sodipodi:role="line"
       id="tspan3"
       style="stroke-width:0.0450199"
       x="93.441185"
       y="104.07806" /></text><text
     xml:space="preserve"
     style="font-style:normal;font-variant:normal;font-weight:normal;font-stretch:normal;font-size:6.00265px;font-family:roboto;-inkscape-font-specification:roboto;fill:#000000;stroke:#ffffff;stroke-width:0.0450199"
     x="97.001419"
     y="117.63503"
     id="text1"
     inkscape:export-filename="spawn.png"
     inkscape:export-xdpi="96"
     inkscape:export-ydpi="96"><tspan
       sodipodi:role="line"
       id="tspan1"
       style="fill:#000000;stroke-width:0.0450199"
       x="97.001419"
       y="117.63503">S</tspan><tspan
       sodipodi:role="line"
       style="fill:#000000;stroke-width:0.0450199"
       x="97.001419"
       y="125.13834"
       id="tspan4" /></text><path
     id="path4"
     style="fill:#000000;stroke:none;stroke-width:0.264583;stroke-opacity:1"
     inkscape:transform-center-y="-1.3652089e-06"
     sodipodi:type="inkscape:offset"
     inkscape:radius="0"
     inkscape:original="M 64.191406 98.638672 L 55.769531 103.5 L 55.769531 113.22656 L 64.191406 118.08984 L 72.613281 113.22656 L 72.613281 103.5 L 64.191406 98.638672 z "
     d="M 64.191406,98.638672 55.769531,103.5 v 9.72656 l 8.421875,4.86328 8.421875,-4.86328 V 103.5 Z"
     transform="translate(54.504626,9.9451568)"
     inkscape:export-filename="respawns.png"
     inkscape:export-xdpi="39.175003"
     inkscape:export-ydpi="39.175003" /><path
     id="path5"
     style="fill:#3636ff;fill-opacity:1;stroke:#000000;stroke-width:0.264583;stroke-opacity:1"
     inkscape:transform-center-y="2.4345549e-06"
     sodipodi:type="inkscape:offset"
     inkscape:radius="0"
     inkscape:original="M 64.191406 98.638672 L 55.769531 103.5 L 55.769531 113.22656 L 64.191406 118.08984 L 72.613281 113.22656 L 72.613281 103.5 L 64.191406 98.638672 z "
     d="M 64.191406,98.638672 55.769531,103.5 v 9.72656 l 8.421875,4.86328 8.421875,-4.86328 V 103.5 Z"
     transform="matrix(0.86418492,0,0,0.85630349,63.222787,25.516726)" /><path
     id="path6"
     style="fill:#800000;stroke:none;stroke-width:0.264583;stroke-opacity:1"
     inkscape:transform-center-x="-0.0018046224"
     inkscape:transform-center-y="0.33621094"
     sodipodi:type="inkscape:offset"
     inkscape:radius="0"
     inkscape:original="M 49.833984 42.273438 L -0.15234375 128.32812 L 99.365234 128.58984 L 49.833984 42.273438 z "
     d="M 49.833984,42.273438 -0.15234375,128.32812 99.365234,128.58984 Z"
     transform="matrix(-0.02372191,0,0,-0.02351379,100.20848,126.41542)" /><path
     id="path6-7"
     style="fill:#800000;stroke:none;stroke-width:0.264583;stroke-opacity:1"
     inkscape:transform-center-x="-0.0040621442"
     inkscape:transform-center-y="0.25300738"
     sodipodi:type="inkscape:offset"
     inkscape:radius="0"
     inkscape:original="M 49.833984 42.273438 L -0.15234375 128.32812 L 99.365234 128.58984 L 49.833984 42.273438 z "
     d="M 49.833984,42.273438 -0.15234375,128.32812 99.365234,128.58984 Z"
     transform="matrix(-0.05338746,0,0,-0.01769443,121.34665,128.78301)" /><path
     style="fill:#ffffff;fill-opacity:1;stroke:none;stroke-width:0.264583"
     d="m 119.59456,117.63099 1.09594,0.274 1.23294,-5.93635 -1.59825,-0.91329"
     id="path12"
     sodipodi:nodetypes="cccc" /><path
     style="fill:#ffffff;fill-opacity:1;stroke:none;stroke-width:0.264583"
     d="m 123.65867,112.97325 1.73524,0.95895 -3.15083,5.20572 -0.86762,-0.86762"
     id="path13" /><path
     style="fill:#ffffff;fill-opacity:1;stroke:none;stroke-width:0.264583"
     d="m 122.74539,119.68589 3.0595,-3.60748 0.0457,1.96356 -2.69418,2.64853"
     id="path14" /><path
     style="fill:#ffffff;fill-opacity:1;stroke:none;stroke-width:0.264583"
     d="m 123.47602,121.42113 2.4202,-1.64392 v 1.78091 l -2.4202,0.95895"
     id="path15" /><g
     id="g15"
     inkscape:path-effect="#path-effect15"><path
       style="fill:#ffffff;fill-opacity:1;stroke:none;stroke-width:0.264583"
       d="m 119.59456,117.63099 1.09594,0.274 1.23294,-5.93635 -1.59825,-0.91329 m -2.54355,6.58906 -1.09176,0.2902 -1.3207,-5.91745 1.58455,-0.93685"
       id="path7"
       sodipodi:nodetypes="cccc"
       inkscape:original-d="m 119.59456,117.63099 1.09594,0.274 1.23294,-5.93635 -1.59825,-0.91329" /><path
       style="fill:#ffffff;fill-opacity:1;stroke:none;stroke-width:0.264583"
       d="m 123.65867,112.97325 1.73524,0.95895 -3.15083,5.20572 -0.86762,-0.86762 m -7.72645,-5.22294 -1.72085,0.98453 3.22756,5.1585 0.85468,-0.88037"
       id="path8"
       inkscape:original-d="m 123.65867,112.97325 1.73524,0.95895 -3.15083,5.20572 -0.86762,-0.86762" /><path
       style="fill:#ffffff;fill-opacity:1;stroke:none;stroke-width:0.264583"
       d="m 122.74539,119.68589 3.0595,-3.60748 0.0457,1.96356 -2.69418,2.64853 m -8.49483,-0.94476 -3.11258,-3.56179 -0.0166,1.96403 2.7331,2.60834"
       id="path9"
       inkscape:original-d="m 122.74539,119.68589 3.0595,-3.60748 0.0457,1.96356 -2.69418,2.64853" /><path
       style="fill:#ffffff;fill-opacity:1;stroke:none;stroke-width:0.264583"
       d="m 123.47602,121.42113 2.4202,-1.64392 v 1.78091 l -2.4202,0.95895 m -9.51929,-1.02546 -2.44428,-1.60791 0.0264,1.78072 2.43413,0.92301"
       id="path11"
       inkscape:original-d="m 123.47602,121.42113 2.4202,-1.64392 v 1.78091 l -2.4202,0.95895" /></g><path
     id="path3"
     style="fill:#ffa236;fill-opacity:1;stroke:none;stroke-width:0.264583"
     d="m 118.69611,117.27036 a 4.972578,4.972578 0 0 0 -4.97282,4.97282 4.972578,4.972578 0 0 0 0.27182,1.58957 l 4.68602,2.74867 4.70255,-2.71301 a 4.972578,4.972578 0 0 0 0.28474,-1.62523 4.972578,4.972578 0 0 0 -4.97231,-4.97282 z" /><path
     style="fill:#ffffff;fill-opacity:1;stroke:none;stroke-width:0.264583"
     d="m 123.47602,122.24308 -0.0913,-1.05028"
     id="path10" /><path
     id="path4-0"
     style="fill:#000000;stroke:none;stroke-width:0.264583;stroke-opacity:1"
     inkscape:transform-center-y="-1.3652089e-06"
     sodipodi:type="inkscape:offset"
     inkscape:radius="0"
     inkscape:original="M 64.191406 98.638672 L 55.769531 103.5 L 55.769531 113.22656 L 64.191406 118.08984 L 72.613281 113.22656 L 72.613281 103.5 L 64.191406 98.638672 z "
     d="M 64.191406,98.638672 55.769531,103.5 v 9.72656 l 8.421875,4.86328 8.421875,-4.86328 V 103.5 Z"
     transform="translate(75.706903,9.7290001)"
     inkscape:export-filename="health.png"
     inkscape:export-xdpi="39.175003"
     inkscape:export-ydpi="39.175003" /><path
     id="path5-4"
     style="fill:#cccccc;fill-opacity:1;stroke:#000000;stroke-width:0.264583;stroke-opacity:1"
     inkscape:transform-center-y="2.4345549e-06"
     sodipodi:type="inkscape:offset"
     inkscape:radius="0"
     inkscape:original="M 64.191406 98.638672 L 55.769531 103.5 L 55.769531 113.22656 L 64.191406 118.08984 L 72.613281 113.22656 L 72.613281 103.5 L 64.191406 98.638672 z "
     d="M 64.191406,98.638672 55.769531,103.5 v 9.72656 l 8.421875,4.86328 8.421875,-4.86328 V 103.5 Z"
     transform="matrix(0.86418492,0,0,0.85630349,84.425064,25.300569)" /><path
     id="path6-7-0"
     style="fill:#800000;stroke:none;stroke-width:0.264583;stroke-opacity:1"
     inkscape:transform-center-x="-0.0040621442"
     inkscape:transform-center-y="0.25300738"
     sodipodi:type="inkscape:offset"
     inkscape:radius="0"
     inkscape:original="M 49.833984 42.273438 L -0.15234375 128.32812 L 99.365234 128.58984 L 49.833984 42.273438 z "
     d="M 49.833984,42.273438 -0.15234375,128.32812 99.365234,128.58984 Z"
     transform="matrix(-0.05338746,0,0,-0.01769443,142.54892,128.56685)" /><path
     style="fill:#ffffff;fill-opacity:1;stroke:none;stroke-width:0.264583"
     d="m 144.67829,122.02692 -0.0913,-1.05028"
     id="path10-0" /><rect
     style="fill:#800000;stroke-width:0.156429"
     id="rect1"
     width="3.1964948"
     height="11.324723"
     x="138.30006"
     y="112.37963" /><rect
     style="fill:#800000;stroke-width:0.156429"
     id="rect2"
     width="3.1964948"
     height="11.324723"
     x="116.44375"
     y="-145.56067"
     transform="rotate(90)" /><g
     id="g33"><path
       id="path20"
       style="fill:#000000;stroke:none;stroke-width:0.264583;stroke-opacity:1"
       inkscape:transform-center-y="-1.3652089e-06"
       sodipodi:type="inkscape:offset"
       inkscape:radius="0"
       inkscape:original="M 64.191406 98.638672 L 55.769531 103.5 L 55.769531 113.22656 L 64.191406 118.08984 L 72.613281 113.22656 L 72.613281 103.5 L 64.191406 98.638672 z "
       d="M 64.191406,98.638672 55.769531,103.5 v 9.72656 l 8.421875,4.86328 8.421875,-4.86328 V 103.5 Z"
       transform="translate(54.375468,30.997892)"
       inkscape:export-filename="respawns.png"
       inkscape:export-xdpi="39.175003"
       inkscape:export-ydpi="39.175003" /><path
       id="path21"
       style="fill:#3636ff;fill-opacity:1;stroke:#000000;stroke-width:0.264583;stroke-opacity:1"
       inkscape:transform-center-y="2.4345549e-06"
       sodipodi:type="inkscape:offset"
       inkscape:radius="0"
       inkscape:original="M 64.191406 98.638672 L 55.769531 103.5 L 55.769531 113.22656 L 64.191406 118.08984 L 72.613281 113.22656 L 72.613281 103.5 L 64.191406 98.638672 z "
       d="M 64.191406,98.638672 55.769531,103.5 v 9.72656 l 8.421875,4.86328 8.421875,-4.86328 V 103.5 Z"
       transform="matrix(0.86418492,0,0,0.85630349,63.093629,46.569461)" /><path
       style="fill:#ffffff;fill-opacity:1;stroke:none;stroke-width:0.264583"
       d="m 119.4654,138.68373 1.09594,0.274 1.23294,-5.93635 -1.59825,-0.91329"
       id="path23"
       sodipodi:nodetypes="cccc" /><path
       style="fill:#ffffff;fill-opacity:1;stroke:none;stroke-width:0.264583"
       d="m 123.52951,134.02599 1.73524,0.95895 -3.15083,5.20572 -0.86762,-0.86762"
       id="path24" /><path
       style="fill:#ffffff;fill-opacity:1;stroke:none;stroke-width:0.264583"
       d="m 122.61623,140.73863 3.0595,-3.60748 0.0457,1.96356 -2.69418,2.64853"
       id="path25" /><path
       style="fill:#ffffff;fill-opacity:1;stroke:none;stroke-width:0.264583"
       d="m 123.34686,142.47387 2.4202,-1.64392 v 1.78091 l -2.4202,0.95895"
       id="path26" /><g
       id="g30"
       inkscape:path-effect="#path-effect33"
       transform="translate(-0.12915788,21.052735)"><path
         style="fill:#ffffff;fill-opacity:1;stroke:none;stroke-width:0.264583"
         d="m 119.59456,117.63099 1.09594,0.274 1.23294,-5.93635 -1.59825,-0.91329 m -2.54355,6.58906 -1.09176,0.2902 -1.3207,-5.91745 1.58455,-0.93685"
         id="path27"
         sodipodi:nodetypes="cccc"
         inkscape:original-d="m 119.59456,117.63099 1.09594,0.274 1.23294,-5.93635 -1.59825,-0.91329" /><path
         style="fill:#ffffff;fill-opacity:1;stroke:none;stroke-width:0.264583"
         d="m 123.65867,112.97325 1.73524,0.95895 -3.15083,5.20572 -0.86762,-0.86762 m -7.72645,-5.22294 -1.72085,0.98453 3.22756,5.1585 0.85468,-0.88037"
         id="path28"
         inkscape:original-d="m 123.65867,112.97325 1.73524,0.95895 -3.15083,5.20572 -0.86762,-0.86762" /><path
         style="fill:#ffffff;fill-opacity:1;stroke:none;stroke-width:0.264583"
         d="m 122.74539,119.68589 3.0595,-3.60748 0.0457,1.96356 -2.69418,2.64853 m -8.49483,-0.94476 -3.11258,-3.56179 -0.0166,1.96403 2.7331,2.60834"
         id="path29"
         inkscape:original-d="m 122.74539,119.68589 3.0595,-3.60748 0.0457,1.96356 -2.69418,2.64853" /><path
         style="fill:#ffffff;fill-opacity:1;stroke:none;stroke-width:0.264583"
         d="m 123.47602,121.42113 2.4202,-1.64392 v 1.78091 l -2.4202,0.95895 m -9.51929,-1.02546 -2.44428,-1.60791 0.0264,1.78072 2.43413,0.92301"
         id="path30"
         inkscape:original-d="m 123.47602,121.42113 2.4202,-1.64392 v 1.78091 l -2.4202,0.95895" /></g><path
       id="path31"
       style="fill:#ffa236;fill-opacity:1;stroke:none;stroke-width:0.264583"
       d="m 118.56695,138.3231 a 4.972578,4.972578 0 0 0 -4.97282,4.97282 4.972578,4.972578 0 0 0 0.27182,1.58957 l 4.68602,2.74867 4.70255,-2.71301 a 4.972578,4.972578 0 0 0 0.28474,-1.62523 4.972578,4.972578 0 0 0 -4.97231,-4.97282 z" /><path
       style="fill:#ffffff;fill-opacity:1;stroke:none;stroke-width:0.264583"
       d="m 123.34686,143.29582 -0.0913,-1.05028"
       id="path32" /></g><rect
     style="fill:#000000;stroke-width:0.255769"
     id="rect33"
     width="17.500893"
     height="1.4207368"
     x="130.05391"
     y="-119.27724"
     transform="rotate(90)" /><rect
     style="fill:#000000;stroke-width:0.255769"
     id="rect34"
     width="17.500893"
     height="1.4207368"
     x="130.06247"
     y="-119.27724"
     transform="rotate(90)" /><g
     id="g39"
     transform="translate(-20.088646,0.49110775)"><g
       id="g38"><g
         id="g37"
         transform="translate(-0.98221546,-0.70158248)"><g
           id="g20"><path
             id="path16"
             style="fill:#000000;stroke:none;stroke-width:0.264583;stroke-opacity:1"
             inkscape:transform-center-y="-1.3652089e-06"
             d="m 64.191345,98.638721 -8.421708,4.861199 v 9.72654 l 8.421708,4.86327 0.0098,-0.006 V 98.644406 Z"
             transform="translate(75.448587,31.233788)" /><path
             id="path17"
             style="fill:#cccccc;fill-opacity:1;stroke:#000000;stroke-width:0.264583;stroke-opacity:1"
             inkscape:transform-center-y="2.4345549e-06"
             d="m 64.191335,98.63849 -8.421934,4.86166 v 9.72633 l 8.421934,4.86346 0.01136,-0.007 V 98.645128 Z"
             transform="matrix(0.86418492,0,0,0.85630349,84.166748,46.805357)" /><path
             id="path18"
             style="fill:#800000;stroke:none;stroke-width:0.264583;stroke-opacity:1"
             inkscape:transform-center-x="-0.0040621442"
             inkscape:transform-center-y="0.25300738"
             d="M 99.363592,128.58058 49.833551,42.280056 49.46573,42.922564 v 85.511986 z"
             transform="matrix(-0.05338746,0,0,-0.01769443,142.2906,150.07164)" /><path
             id="rect19"
             style="fill:#800000;stroke-width:0.156429"
             d="m 138.04158,133.88467 v 11.32437 h 1.60817 v -11.32437 z" /><path
             id="rect20"
             style="fill:#800000;stroke-width:0.156429"
             d="m 137.9485,-133.97775 h 3.19671 v -5.672 h -3.19671 z"
             transform="rotate(90)" /></g><path
           id="rect35"
           style="fill:#000000;stroke-width:0.255769"
           d="m 130.30039,-138.99294 h 17.50074 v -0.65681 h -17.50074 z"
           transform="rotate(90)" /></g></g></g><g
     id="g36"><path
       id="path22"
       style="fill:#800000;stroke:none;stroke-width:0.264583;stroke-opacity:1"
       inkscape:transform-center-x="-0.0040621442"
       inkscape:transform-center-y="0.25300738"
       sodipodi:type="inkscape:offset"
       inkscape:radius="0"
       inkscape:original="M 49.833984 42.273438 L -0.15234375 128.32812 L 99.365234 128.58984 L 49.833984 42.273438 z "
       d="M 49.833984,42.273438 -0.15234375,128.32812 99.365234,128.58984 Z"
       transform="matrix(-0.05338746,0,0,-0.01769443,121.21749,149.83575)" /><rect
       style="fill:#800000;stroke-width:0.264583"
       id="rect36"
       width="0.27491862"
       height="0.086816408"
       x="118.42791"
       y="147.56308" /></g><path
     id="path4-0-3"
     style="fill:#000000;stroke:none;stroke-width:0.264583;stroke-opacity:1"
     inkscape:transform-center-y="-1.3652089e-06"
     sodipodi:type="inkscape:offset"
     inkscape:radius="0"
     inkscape:original="M 64.191406 98.638672 L 55.769531 103.5 L 55.769531 113.22656 L 64.191406 118.08984 L 72.613281 113.22656 L 72.613281 103.5 L 64.191406 98.638672 z "
     d="M 64.191406,98.638672 55.769531,103.5 v 9.72656 l 8.421875,4.86328 8.421875,-4.86328 V 103.5 Z"
     transform="translate(98.48255,9.9066398)"
     inkscape:export-filename="shrine_speed.png"
     inkscape:export-xdpi="39.175003"
     inkscape:export-ydpi="39.175003" /><path
     id="path5-4-1"
     style="fill:#cccccc;fill-opacity:1;stroke:#000000;stroke-width:0.264583;stroke-opacity:1"
     inkscape:transform-center-y="2.4345549e-06"
     sodipodi:type="inkscape:offset"
     inkscape:radius="0"
     inkscape:original="M 64.191406 98.638672 L 55.769531 103.5 L 55.769531 113.22656 L 64.191406 118.08984 L 72.613281 113.22656 L 72.613281 103.5 L 64.191406 98.638672 z "
     d="M 64.191406,98.638672 55.769531,103.5 v 9.72656 l 8.421875,4.86328 8.421875,-4.86328 V 103.5 Z"
     transform="matrix(0.86418492,0,0,0.85630349,107.20071,25.478209)" /><path
     id="path6-7-0-0"
     style="fill:#800000;stroke:none;stroke-width:0.264583;stroke-opacity:1"
     inkscape:transform-center-x="-0.0040621442"
     inkscape:transform-center-y="0.25300738"
     sodipodi:type="inkscape:offset"
     inkscape:radius="0"
     inkscape:original="M 49.833984 42.273438 L -0.15234375 128.32812 L 99.365234 128.58984 L 49.833984 42.273438 z "
     d="M 49.833984,42.273438 -0.15234375,128.32812 99.365234,128.58984 Z"
     transform="matrix(-0.05338746,0,0,-0.01769443,165.32456,128.7445)" /><path
     style="fill:#ffffff;fill-opacity:1;stroke:none;stroke-width:0.264583"
     d="m 167.45393,122.20457 -0.0913,-1.05028"
     id="path10-0-9" /><path
     id="path19"
     style="fill:#002255;stroke-width:0.377651"
     inkscape:transform-center-x="-0.53110109"
     inkscape:transform-center-y="4.8500643e-06"
     d="m 164.56491,113.12717 v 1.79368 l 2.02934,3.26027 -2.02934,3.26078 v 1.92598 l 3.18689,-5.12061 z" /><path
     id="path53"
     style="fill:#002255;stroke-width:0.377651"
     inkscape:transform-center-x="-0.53110109"
     inkscape:transform-center-y="4.8500643e-06"
     d="m 162.57853,113.12717 v 1.79368 l 2.02933,3.26028 -2.02933,3.26078 v 1.92597 l 3.18689,-5.1206 z" /><path
     id="path54"
     style="fill:#002255;stroke-width:0.377651"
     inkscape:transform-center-x="-0.53110109"
     inkscape:transform-center-y="4.8500643e-06"
     d="m 160.61554,113.12717 v 1.79368 l 2.02933,3.26028 -2.02933,3.26078 v 1.92597 l 3.18689,-5.1206 z" /><path
     id="path55"
     style="fill:#002255;stroke-width:0.377651;fill-opacity:1"
     inkscape:transform-center-x="-0.53110109"
     inkscape:transform-center-y="4.8500643e-06"
     d="m 158.62514,113.12717 v 1.79368 l 2.02933,3.26028 -2.02933,3.26078 v 1.92597 l 3.18689,-5.1206 z" /><path
     id="path56"
     style="fill:#000000;stroke:none;stroke-width:0.264583;stroke-opacity:1"
     inkscape:transform-center-y="-1.3652089e-06"
     sodipodi:type="inkscape:offset"
     inkscape:radius="0"
     inkscape:original="M 64.191406 98.638672 L 55.769531 103.5 L 55.769531 113.22656 L 64.191406 118.08984 L 72.613281 113.22656 L 72.613281 103.5 L 64.191406 98.638672 z "
     d="M 64.191406,98.638672 55.769531,103.5 v 9.72656 l 8.421875,4.86328 8.421875,-4.86328 V 103.5 Z"
     transform="translate(75.657732,30.673482)"
     inkscape:export-filename="shrine_health_or_speed.png"
     inkscape:export-xdpi="39.175003"
     inkscape:export-ydpi="39.175003" /><path
     id="path57"
     style="fill:#cccccc;fill-opacity:1;stroke:#000000;stroke-width:0.264583;stroke-opacity:1"
     inkscape:transform-center-y="2.4345549e-06"
     sodipodi:type="inkscape:offset"
     inkscape:radius="0"
     inkscape:original="M 64.191406 98.638672 L 55.769531 103.5 L 55.769531 113.22656 L 64.191406 118.08984 L 72.613281 113.22656 L 72.613281 103.5 L 64.191406 98.638672 z "
     d="M 64.191406,98.638672 55.769531,103.5 v 9.72656 l 8.421875,4.86328 8.421875,-4.86328 V 103.5 Z"
     transform="matrix(0.86418492,0,0,0.85630349,84.375892,46.245051)" /><path
     id="path58"
     style="fill:#800000;stroke:none;stroke-width:0.264583;stroke-opacity:1"
     inkscape:transform-center-x="-0.0040621442"
     inkscape:transform-center-y="0.25300738"
     sodipodi:type="inkscape:offset"
     inkscape:radius="0"
     inkscape:original="M 49.833984 42.273438 L -0.15234375 128.32812 L 99.365234 128.58984 L 49.833984 42.273438 z "
     d="M 49.833984,42.273438 -0.15234375,128.32812 99.365234,128.58984 Z"
     transform="matrix(-0.05338746,0,0,-0.01769443,142.49974,149.51134)" /><path
     style="fill:#ffffff;fill-opacity:1;stroke:none;stroke-width:0.264583"
     d="m 144.62911,142.97141 -0.0913,-1.05028"
     id="path59" /><path
     id="path60"
     style="fill:#002255;stroke-width:0.377651"
     inkscape:transform-center-x="-0.53110109"
     inkscape:transform-center-y="4.8500643e-06"
     d="m 141.74009,133.89401 v 1.79368 l 2.02934,3.26027 -2.02934,3.26078 v 1.92598 l 3.18689,-5.12061 z" /><path
     id="path61"
     style="fill:#002255;stroke-width:0.377651;fill-opacity:1"
     inkscape:transform-center-x="-0.53110109"
     inkscape:transform-center-y="4.8500643e-06"
     d="m 139.75371,133.89401 v 1.79368 l 2.02933,3.26028 -2.02933,3.26078 v 1.92597 l 3.18689,-5.1206 z" /><path
     id="path62"
     style="fill:#002255;stroke-width:0.377651"
     inkscape:transform-center-x="-0.53110109"
     inkscape:transform-center-y="4.8500643e-06"
     d="m 137.79072,133.89401 v 1.79368 l 2.02933,3.26028 -2.02933,3.26078 v 1.92597 l 3.18689,-5.1206 z" /><path
     id="path63"
     style="fill:#0000ff;stroke-width:0.377651"
     inkscape:transform-center-x="-0.53110109"
     inkscape:transform-center-y="4.8500643e-06"
     d="m 135.80032,133.89401 v 1.79368 l 2.02933,3.26028 -2.02933,3.26078 v 1.92597 l 3.18689,-5.1206 z" /><g
     id="g71"
     transform="translate(1.169304,0.09354433)"><g
       id="g70"><g
         id="g69"
         transform="translate(-0.98221546,-0.70158248)"><g
           id="g68"><path
             id="path64"
             style="fill:#000000;stroke:none;stroke-width:0.264583;stroke-opacity:1"
             inkscape:transform-center-y="-1.3652089e-06"
             d="m 64.191345,98.638721 -8.421708,4.861199 v 9.72654 l 8.421708,4.86327 0.0098,-0.006 V 98.644406 Z"
             transform="translate(75.448587,31.233788)" /><path
             id="path65"
             style="fill:#cccccc;fill-opacity:1;stroke:#000000;stroke-width:0.264583;stroke-opacity:1"
             inkscape:transform-center-y="2.4345549e-06"
             d="m 64.191335,98.63849 -8.421934,4.86166 v 9.72633 l 8.421934,4.86346 0.01136,-0.007 V 98.645128 Z"
             transform="matrix(0.86418492,0,0,0.85630349,84.166748,46.805357)" /><path
             id="path66"
             style="fill:#800000;stroke:none;stroke-width:0.264583;stroke-opacity:1"
             inkscape:transform-center-x="-0.0040621442"
             inkscape:transform-center-y="0.25300738"
             d="M 99.363592,128.58058 49.833551,42.280056 49.46573,42.922564 v 85.511986 z"
             transform="matrix(-0.05338746,0,0,-0.01769443,142.2906,150.07164)" /><path
             id="path67"
             style="fill:#800000;stroke-width:0.156429"
             d="m 138.04158,133.88467 v 11.32437 h 1.60817 v -11.32437 z" /><path
             id="path68"
             style="fill:#800000;stroke-width:0.156429"
             d="m 137.9485,-133.97775 h 3.19671 v -5.672 h -3.19671 z"
             transform="rotate(90)" /></g><path
           id="path69"
           style="fill:#000000;stroke-width:0.255769"
           d="m 130.30039,-138.99294 h 17.50074 v -0.65681 h -17.50074 z"
           transform="rotate(90)" /></g></g></g><g
     id="g72"
     transform="translate(21.22287,-0.36248429)"><path
       id="path71"
       style="fill:#800000;stroke:none;stroke-width:0.264583;stroke-opacity:1"
       inkscape:transform-center-x="-0.0040621442"
       inkscape:transform-center-y="0.25300738"
       sodipodi:type="inkscape:offset"
       inkscape:radius="0"
       inkscape:original="M 49.833984 42.273438 L -0.15234375 128.32812 L 99.365234 128.58984 L 49.833984 42.273438 z "
       d="M 49.833984,42.273438 -0.15234375,128.32812 99.365234,128.58984 Z"
       transform="matrix(-0.05338746,0,0,-0.01769443,121.21749,149.83575)" /><rect
       style="fill:#800000;stroke-width:0.264583"
       id="rect71"
       width="0.27491862"
       height="0.086816408"
       x="118.42791"
       y="147.56308" /></g><rect
     style="fill:#000000;stroke-width:0.255769"
     id="rect72"
     width="17.500893"
     height="1.4207368"
     x="129.6918"
     y="-140.60478"
     transform="rotate(90)" /><path
     style="fill:#d38d5f;stroke-width:0.210178"
     d="m 77.930586,125.04807 c 0.440342,0.79189 1.321026,2.37569 4.145332,2.77164 2.824306,0.39593 7.592044,-0.39595 9.975961,-0.78531 2.383916,-0.38935 2.383916,-0.37616 2.315586,2.57373 -0.06832,2.9499 -0.204985,8.83619 -0.296093,11.7926 -0.0911,2.95642 -0.136665,2.98281 -2.94579,3.00262 -2.809124,0.0198 -8.381609,0.033 -11.122352,-3.27322 -2.740744,-3.30621 -2.649641,-9.93161 -2.596496,-13.29717 0.05314,-3.36556 0.06833,-3.47113 0.07592,-3.52392 0.0076,-0.0528 0.0076,-0.0529 0.447934,0.73903 z"
     id="path38" /><path
     id="path34"
     style="fill:#000000;stroke-width:0.406567"
     d="m 64.711062,110.93298 c -0.207335,0 -0.377363,0.0986 -0.377363,0.21925 0,0.12088 0.121978,0.21926 0.270715,0.21926 0.447638,0 1.092154,0.67734 0.958786,1.0076 -0.130649,0.32358 -0.890641,0.42728 -1.057226,0.14426 -0.05326,-0.0905 -0.0657,-0.0419 -0.02768,0.10709 0.09445,0.37061 -0.884367,1.79241 -1.241804,1.80372 -0.340109,0.0116 -0.396122,0.44825 -0.05743,0.44825 0.126998,0 0.230723,0.19713 0.230723,0.4385 0,0.32456 0.153727,0.43949 0.590653,0.43949 0.324974,0 0.539591,-0.0798 0.476827,-0.17632 -0.06277,-0.0966 0.08752,-0.29469 0.333268,-0.44046 0.547546,-0.32494 0.579933,-0.10651 0.06461,0.43461 -0.210168,0.2207 -0.651806,0.40758 -0.981345,0.41513 l -0.598856,0.0132 0.552712,0.21048 c 0.421638,0.16028 0.655346,0.12351 0.981345,-0.15689 0.235333,-0.20114 0.428632,-0.28972 0.428632,-0.19392 0,0.096 -0.181429,0.29982 -0.401973,0.45313 -0.378164,0.26276 -0.374851,0.30796 0.05435,0.79223 0.341826,0.38564 0.280929,0.36257 -0.246108,-0.0907 -0.895801,-0.77041 -1.279214,-0.78615 -0.543481,-0.0225 l 0.55989,0.58176 -0.519897,-0.12182 c -0.285917,-0.0669 -0.461871,-0.0326 -0.390692,0.077 0.07116,0.10941 -0.02383,0.1988 -0.21124,0.1988 -0.187401,0 -0.39331,-0.12389 -0.457344,-0.27481 -0.06407,-0.15085 -0.12442,-0.002 -0.13434,0.32937 -0.01806,0.59775 -0.006,0.6032 1.481756,0.6032 h 1.501241 v -1.7589 -1.75891 l 4.981578,0.0585 4.982602,0.0585 -0.07281,1.5036 c -0.07193,1.48457 -0.06397,1.50685 0.617313,1.79203 0.581195,0.24332 0.562755,0.38287 -0.03998,0.305 -0.187243,-0.0241 -0.618758,0.67683 -0.491185,0.79808 0.05056,0.048 0.430558,-0.20541 0.843936,-0.5642 0.41338,-0.35879 0.895399,-0.6529 1.070558,-0.6529 0.453402,0 0.63688,-0.37439 0.389665,-0.79419 -0.144421,-0.24533 -0.262241,-0.28024 -0.372233,-0.11103 -0.08857,0.13615 -0.25987,0.24752 -0.380439,0.24752 -0.120572,0 -0.09,-0.19662 0.06769,-0.43656 0.292921,-0.44572 1.333068,0.21499 1.333068,0.84681 0,0.11597 0.130431,0.25474 0.289174,0.30792 0.204858,0.0684 0.13575,0.29588 -0.237903,0.78543 -0.708942,0.92882 -0.304543,0.87723 0.610136,-0.078 0.404453,-0.42237 0.833743,-0.76789 0.953657,-0.76789 0.119938,0 0.158213,-0.1484 0.08511,-0.32934 -0.0731,-0.18084 -0.01846,-0.32938 0.122014,-0.32938 0.140571,0 0.256361,0.14124 0.256361,0.31378 0,0.34584 0.693338,0.50191 1.673514,0.37613 0.622846,-0.08 0.634747,-0.10987 0.634747,-1.59226 v -1.51043 h 4.839036 4.83801 l 0.0687,1.59033 0.0677,1.59033 2.25084,0.0633 c 0.37145,0.009 0.64037,0.0132 0.90238,0.0151 0.004,-0.18649 0.0139,-0.51054 0.0178,-0.68699 -0.42784,0.17989 -1.18686,0.0409 -1.04698,-0.32351 0.14029,-0.3657 0.12561,-0.3657 -0.31379,0 -0.76304,0.63498 -0.90615,0.43178 -0.19387,-0.27481 0.83196,-0.82524 0.49506,-0.86805 -0.42861,-0.0545 -0.64742,0.57011 -0.6644,0.57341 -0.30355,0.0633 0.21005,-0.29689 0.6166,-0.66323 0.90342,-0.81465 0.48883,-0.25792 0.49235,-0.27718 0.0595,-0.29038 -0.57995,-0.0189 -1.41049,-0.59784 -1.17619,-0.82051 0.0964,-0.0916 0.3073,0.006 0.46966,0.21632 0.16232,0.2109 0.54353,0.3809 0.847,0.37713 0.50795,-0.006 0.51964,-0.0298 0.14763,-0.29819 -0.22224,-0.16028 -0.40184,-0.42873 -0.39993,-0.59637 0.002,-0.24687 0.0439,-0.24386 0.21843,0.0189 0.39482,0.59326 0.50221,0.0641 0.14981,-0.73767 -0.41239,-0.93784 -0.66686,-1.03841 -0.4758,-0.188 0.12342,0.54934 0.10555,0.5691 -0.19487,0.21926 -0.18157,-0.21132 -0.28009,-0.63101 -0.21942,-0.93257 0.0941,-0.46795 0.0246,-0.54862 -0.47479,-0.54862 -0.32169,0 -0.6222,-0.10536 -0.66756,-0.23484 -0.048,-0.13691 -0.3453,-0.039 -0.71165,0.23484 -0.34619,0.25909 -0.62963,0.37272 -0.62963,0.25336 0,-0.11937 0.13037,-0.26081 0.28918,-0.31474 0.11703,-0.0398 0.17582,-0.11747 0.16092,-0.19392 -0.20499,0.0311 -0.37064,0.0536 -0.59677,0.0886 -0.004,5.6e-4 -0.01,0.001 -0.0139,0.002 -0.0139,0.0116 -0.0282,0.0189 -0.042,0.0302 -0.36217,0.31147 -0.89376,0.33938 -1.26027,0.16574 -0.50409,0.0777 -1.0368,0.15614 -1.60481,0.2407 -0.18393,0.28642 -0.22889,0.64487 -0.0359,0.92477 0.21186,0.3073 0.29545,0.55694 0.18559,0.55545 -0.10982,-0.001 -0.43399,-0.34701 -0.72088,-0.76787 -0.15093,-0.22145 -0.3163,-0.41735 -0.46042,-0.55741 -0.11077,0.0151 -0.18298,0.0288 -0.29533,0.0449 0.0497,0.0941 0.1194,0.20212 0.2215,0.32546 0.26319,0.31799 0.47653,0.68896 0.47375,0.82341 -0.006,0.2927 -0.58545,-0.37087 -1.02749,-1.10406 -0.41571,0.0581 -0.85392,0.1145 -1.28692,0.17142 -0.0121,0.0209 -0.0474,0.0232 -0.09741,0.0132 -1.312301,0.17216 -2.671256,0.33182 -4.060735,0.46676 -0.194823,0.63607 -0.591441,1.39129 -0.900335,1.62248 -0.308581,0.2309 -0.284761,0.26628 0.178432,0.27382 0.294799,0.003 0.692425,-0.14048 0.882902,-0.32157 0.190497,-0.18103 0.463751,-0.32937 0.607061,-0.32937 0.19258,0 0.192481,0.0636 0.001,0.24555 -0.142317,0.1354 -0.207842,0.37312 -0.145611,0.52718 0.06223,0.15407 -0.01507,0.35489 -0.17228,0.44729 -0.201649,0.11843 -0.241376,0.0562 -0.133309,-0.21146 0.15841,-0.39213 0.17498,-0.39202 -1.17105,-0.0243 -0.330017,0.09 -0.519896,0.0479 -0.519896,-0.11691 0,-0.17122 -0.201661,-0.13426 -0.592703,0.10918 -0.465326,0.28983 -0.663111,0.31306 -0.922895,0.10825 -0.399289,-0.3149 -0.423592,-0.12635 -0.06665,0.52035 0.262932,0.47644 0.261072,0.47703 -0.233802,0.0594 -0.492433,-0.4157 -0.503761,-0.4149 -1.10337,0.10917 l -0.606035,0.53012 0.285073,-0.52037 c 0.156823,-0.28594 0.508249,-0.5757 0.781383,-0.64509 0.479554,-0.12163 0.476376,-0.13181 -0.08101,-0.28161 -0.548624,-0.14746 -0.551186,-0.15558 -0.05743,-0.17632 0.472207,-0.0198 0.782273,-0.46092 0.324037,-0.46092 -0.184622,0 -0.454877,-0.55158 -0.640897,-1.15961 -1.673184,0.066 -3.262971,0.0551 -4.664717,-0.0732 -0.0029,0.002 -0.005,0.006 -0.0082,0.008 -0.04456,0.0262 -0.105229,0.009 -0.169206,-0.0252 -0.204433,-0.0204 -0.413613,-0.0377 -0.609109,-0.0633 0.0129,0.0592 0.01627,0.10744 -0.0042,0.12671 -0.03409,0.0324 -0.127633,-0.036 -0.248156,-0.16669 -0.558181,-0.0819 -1.079059,-0.18574 -1.561742,-0.3089 -0.236787,0.34627 -0.430384,0.58431 -0.433759,0.50378 -0.0032,-0.0779 0.114709,-0.30803 0.262512,-0.54472 -0.128883,-0.0345 -0.246525,-0.0749 -0.370183,-0.11207 -0.0907,0.12314 -0.194724,0.23847 -0.293276,0.31573 -0.336149,0.26351 -0.347201,0.24393 -0.106634,-0.18518 0.04704,-0.0839 0.07154,-0.14124 0.112791,-0.21829 -0.321598,-0.10524 -0.630526,-0.21515 -0.916742,-0.33618 0.0054,0.006 0.0067,0.008 0.0123,0.0132 0.241912,0.25942 0.323171,0.47164 0.180476,0.47164 -0.142813,0 -0.200236,0.14841 -0.127157,0.32938 0.197283,0.48854 8.16e-4,0.4012 -0.622439,-0.2748 -0.305962,-0.33291 -0.40784,-0.48024 -0.225597,-0.32939 0.535497,0.4432 0.810981,0.31445 0.353776,-0.16556 -0.230635,-0.24212 -0.533394,-0.42013 -0.671662,-0.39561 -0.459652,0.0815 -1.29,-0.28718 -1.29,-0.57204 0,-0.42337 -0.810604,-1.22489 -1.238728,-1.22489 z m 5.207172,7.13111 c -0.33112,-9.8e-4 -0.578654,0.0132 -0.662432,0.0439 -0.320849,0.11692 -0.452618,2.92202 -0.150732,3.2089 v 9.7e-4 c 0.08466,0.0806 0.909631,0.14615 1.832458,0.14615 1.899565,0 1.914578,-0.0195 1.745293,-2.21981 l -0.07793,-1.01443 -1.52175,-0.11597 c -0.418606,-0.0323 -0.833776,-0.0486 -1.164896,-0.0498 z m 17.133016,0.0132 c -0.33248,-0.002 -0.56251,0.009 -0.61014,0.0332 -0.21419,0.10883 -0.23179,3.00519 -0.0194,3.20696 v 9.8e-4 c 0.0847,0.0806 0.90578,0.14614 1.82426,0.14614 h 1.67043 l 0.081,-0.93255 c 0.0446,-0.51287 0.049,-1.24256 0.01,-1.62152 l -0.0707,-0.68893 -1.6612,-0.0993 c -0.45684,-0.0273 -0.89189,-0.0428 -1.22438,-0.0449 z m -21.809012,2.29 c -0.126998,0 -0.289902,0.1484 -0.363005,0.32935 -0.08664,0.21448 -0.446625,0.32839 -1.032617,0.32839 -0.754697,0 -0.898282,0.0732 -0.898282,0.45412 0,0.36056 0.10711,0.42861 0.519895,0.33132 0.285721,-0.0671 0.389472,-0.0654 0.230724,0.003 -0.382584,0.16688 -0.372892,1.18591 0.01136,1.18591 0.165078,0 0.440149,-0.12294 0.611159,-0.27382 0.250068,-0.22088 0.276513,-0.21833 0.137416,0.0151 -0.09511,0.15934 -0.395852,0.37495 -0.668587,0.47942 -0.475037,0.18216 -0.470908,0.19144 0.08819,0.20464 0.55395,0.0132 1.54271,0.80935 1.296153,1.04366 -0.06379,0.0607 -0.252032,-0.0968 -0.418379,-0.34984 -0.166348,-0.25309 -0.537523,-0.46092 -0.824451,-0.46092 -0.572655,0 -0.705394,0.32494 -0.20714,0.50672 0.360927,0.13163 0.672252,1.02903 0.356853,1.02903 -0.115088,0 -0.209191,-0.19714 -0.209191,-0.4385 0,-0.29249 -0.154619,-0.43851 -0.46247,-0.43851 -0.253981,0 -0.461447,0.0986 -0.461447,0.21926 0,0.12087 0.167339,0.21925 0.372233,0.21925 0.283874,0 0.34827,0.15972 0.26969,0.66849 -0.117115,0.75836 0.146523,1.02785 0.630644,0.64605 0.180655,-0.14218 0.461479,-0.20839 0.624492,-0.14614 0.18629,0.0711 0.146326,0.11917 -0.107672,0.1305 -0.272219,0.0116 -0.404023,0.19662 -0.404023,0.56615 0,0.37026 -0.131283,0.5548 -0.404021,0.56422 -0.345512,0.0132 -0.337448,0.0425 0.05743,0.20366 l 0.461447,0.18906 -0.461447,0.0189 c -0.346182,0.0132 -0.582747,0.0709 -0.717805,0.13841 0.0131,0.0835 0.02534,0.16707 0.03897,0.25041 0.112021,0.0344 0.277483,0.0577 0.510669,0.0585 0.936711,0.003 0.977507,-0.0234 0.839833,-0.54472 -0.07967,-0.3017 -0.0557,-0.54991 0.05332,-0.55156 0.109016,-10e-4 0.449138,-0.0666 0.754724,-0.14425 0.386228,-0.0983 0.505182,-0.0653 0.391716,0.10917 -0.344463,0.52965 1.227532,0.0845 2.091894,-0.59249 0.564517,-0.4428 0.917535,-0.59611 0.977243,-0.42582 0.05139,0.14651 -0.01148,0.29935 -0.13946,0.34008 -0.723167,0.22906 -1.110293,0.71116 -0.529126,0.65874 0.522817,-0.0471 0.57732,0.0247 0.57732,0.76983 0,0.53166 -0.107172,0.82335 -0.302503,0.82341 -0.166347,1e-5 -0.24459,0.0879 -0.174324,0.19587 0.07027,0.10802 -0.04604,0.26003 -0.257385,0.33716 -0.211349,0.0771 -0.46875,0.0132 -0.572194,-0.14218 -0.134697,-0.20166 -0.189188,-0.1616 -0.191767,0.1403 -0.0061,0.72833 0.671735,1.27255 1.090039,0.87505 0.190954,-0.1814 0.395296,-0.28402 0.45427,-0.22802 0.05895,0.056 -0.101613,0.30024 -0.356852,0.54278 l -0.463499,0.44044 -0.768053,-1.07482 c -1.018513,-1.4271 -1.281832,-1.38498 -0.407097,0.0653 l 0.695246,1.1518 -0.694223,-0.76787 c -0.382009,-0.42238 -0.697827,-0.84205 -0.701399,-0.93256 -0.0034,-0.0906 -0.113622,-0.16462 -0.245079,-0.16462 -0.155472,0 -0.144062,0.17292 0.03179,0.49404 l 0.269692,0.49308 -0.550661,-0.47749 c -0.490311,-0.42552 -0.599838,-0.44366 -0.998776,-0.16462 -0.723773,0.50612 -0.947947,0.35996 -0.359929,-0.23484 0.29825,-0.30172 0.432993,-0.54862 0.299429,-0.54862 -0.133586,0 -0.374807,0.15065 -0.535278,0.33423 -0.142139,0.16311 -0.379759,0.24307 -0.599883,0.22121 0.147694,0.77619 0.317115,1.54367 0.513743,2.2968 h 0.853165 c 1.182674,0 2.022442,0.10073 2.193413,0.26311 0.215493,0.20481 0.276868,0.20481 0.276868,0 0,-0.14482 0.237836,-0.26311 0.5281,-0.26311 0.368805,0 0.527075,0.12861 0.527075,0.42681 0,0.31425 -0.07463,0.36669 -0.285071,0.20075 -0.493325,-0.38907 -1.678611,0.15312 -1.689922,0.77275 -0.0038,0.20274 1.437528,0.0702 2.131885,-0.19587 0.336928,-0.12917 0.403907,-0.0324 0.404022,0.58176 1.49e-4,0.79603 -1.14235,1.05524 -1.926797,0.43655 -0.214182,-0.16877 -0.513943,-0.19181 -0.873673,-0.0653 -0.301173,0.10535 -0.676905,0.14973 -0.835731,0.0966 -0.195181,-0.0653 -0.237981,0.0313 -0.130233,0.29818 0.131225,0.32489 0.06233,0.30858 -0.389668,-0.0917 -0.01026,-0.009 -0.02494,-0.017 -0.0359,-0.0264 0.09697,0.26665 0.197998,0.52956 0.30353,0.78931 0.06775,-0.1633 0.2783,0.35062 0.419403,0.96375 0.210771,0.45101 0.437147,0.88775 0.678839,1.30968 0.110726,0.0151 0.268317,0.0891 0.377363,0.18904 0.120645,0.11068 0.465781,0.23444 0.767026,0.2748 0.217195,0.0291 0.03172,0.37307 -0.321987,0.81952 0.133426,0.18632 0.270736,0.36902 0.412227,0.54667 1.670329,-1.68028 1.828402,-2.06099 0.863418,-2.06099 -0.584921,0 -0.693197,-0.0854 -0.693197,-0.54861 0,-0.50252 0.0861,-0.54863 1.022363,-0.54863 h 1.022362 l 0.07383,-1.9197 c 0.04107,-1.05595 0.02352,-3.54962 -0.03998,-5.54078 l -0.115882,-3.62013 -1.731964,-0.10918 -1.730938,-0.1101 -0.11587,-1.64491 c -0.08698,-1.23986 -0.19395,-1.63059 -0.432735,-1.58251 -0.20169,0.0405 -0.267351,-0.0587 -0.180477,-0.27384 0.07509,-0.18593 0.03267,-0.33813 -0.09433,-0.33813 z m 11.598727,0.0643 c -0.447768,0.0459 -0.931563,1.08339 -1.067482,2.39426 -0.08451,0.81495 -0.22495,1.47202 -0.312758,1.46071 -1.565468,-0.21276 -3.045549,0.0687 -3.045549,0.57883 0,0.3017 -0.125491,0.54766 -0.277894,0.54766 -0.215498,0 -0.215498,0.0594 0,0.26408 0.35845,0.34064 0.35845,1.76519 0,2.10581 -0.215498,0.20464 -0.215498,0.26311 0,0.26311 0.647368,0 0.354895,4.58114 -0.302506,4.73784 -0.335518,0.0801 -0.72745,0.0226 -0.929046,-0.13653 -0.290301,-0.22892 -0.324139,-0.21416 -0.203035,0.0858 0.09455,0.23402 0.413853,0.35958 0.913665,0.35958 0.690448,0 0.776896,0.0696 0.841883,0.68114 l 0.07177,0.68116 3.69465,0.0984 c 2.031843,0.0543 3.792443,0.19268 3.913072,0.30695 v -9.6e-4 c 0.120633,0.11427 0.380496,0.20049 0.577321,0.19295 0.253648,-0.0116 0.223721,-0.071 -0.103568,-0.20464 -0.326414,-0.13332 -0.0387,-0.19236 0.981345,-0.20367 l 1.44279,-0.0151 v -1.64487 c 0,-1.85113 -0.151306,-1.73956 2.23443,-1.65075 1.346307,0.0501 1.460227,-0.25556 1.460227,-3.93 v -3.08614 h -1.789393 -1.78939 v -1.59128 -1.59032 l -2.25186,-0.0633 c -1.899392,-0.053 -2.250837,-0.009 -2.250837,0.2748 0,0.41888 1.525367,0.47536 1.682745,0.0624 0.08362,-0.21942 0.20165,-0.21942 0.592701,0 0.268851,0.15085 0.762203,0.2748 1.096193,0.2748 h 0.60706 l -0.162022,1.43636 c -0.101222,0.89818 -0.07161,1.53798 0.07793,1.7092 0.177063,0.20273 -0.02585,0.4714 -0.780357,1.03292 -1.02763,0.76477 -1.420883,1.50702 -0.631669,1.19177 0.860783,-0.34378 1.496128,-0.37718 1.683768,-0.0886 0.156704,0.24103 0.272905,0.22695 0.628592,-0.0791 0.537982,-0.46273 0.908499,-0.49641 0.515796,-0.0468 -0.505427,0.57874 0.0054,0.35419 1.057227,-0.46483 0.717386,-0.55864 1.020306,-0.69373 1.020306,-0.4541 0,0.18744 -0.20746,0.40384 -0.461444,0.4804 -0.253979,0.0765 -0.461447,0.23506 -0.461447,0.35179 0,0.12916 0.180159,0.11955 0.461447,-0.0234 0.440294,-0.22393 0.461444,-0.16594 0.461444,1.22685 0,1.2736 -0.0447,1.42505 -0.346593,1.1869 -0.193196,-0.15236 -0.345574,-0.17593 -0.345574,-0.0535 0,0.12068 0.155096,0.34278 0.345574,0.49306 0.190493,0.15029 0.346593,0.40311 0.346593,0.56227 0,0.58115 -0.524979,0.57282 -1.120799,-0.017 -0.609027,-0.60356 -0.281345,-0.55612 0.486057,0.0702 0.231998,0.18933 0.404022,0.22849 0.404022,0.0917 0,-0.27494 -1.383085,-1.26798 -1.388443,-0.99687 -0.002,0.0986 -0.104557,0.0318 -0.227645,-0.14917 -0.176726,-0.25988 -0.224871,-0.21183 -0.227649,0.22997 -0.0034,0.54176 -0.371959,1.08654 -0.735238,1.08654 -0.09761,0 -0.117946,-0.14821 -0.04513,-0.3284 0.07283,-0.18027 0.225737,-0.27335 0.339421,-0.2066 0.113682,0.0668 0.207139,-0.13067 0.207139,-0.43947 0,-0.30881 -0.104753,-0.56128 -0.23175,-0.56128 -0.126998,0 -0.231878,0.12294 -0.233799,0.27382 -0.0023,0.18687 -0.07187,0.17179 -0.217392,-0.0468 -0.185397,-0.27871 -0.326689,-0.26997 -1.064406,0.0644 -0.467688,0.21195 -0.783763,0.4479 -0.702425,0.52521 0.08133,0.0773 0.271181,0.024 0.421456,-0.11879 0.150274,-0.14294 0.486188,-0.25887 0.746518,-0.25823 0.399083,9.9e-4 0.364583,0.0652 -0.219443,0.40927 -0.475417,0.28018 -0.817634,0.34711 -1.091065,0.21341 -0.315331,-0.15407 -0.428822,-0.0794 -0.544509,0.3586 -0.131006,0.49605 -0.262089,0.55349 -1.262313,0.55349 -0.613688,0 -1.178501,0.0966 -1.255138,0.21439 -0.08598,0.13105 0.306836,0.18422 1.025439,0.13633 0.640601,-0.043 1.164898,-0.0492 1.164898,-0.0132 0,0.0357 0.06977,0.23756 0.154838,0.44825 0.105474,0.26119 0.0683,0.33238 -0.115869,0.22414 -0.494904,-0.29067 -0.278734,0.14162 0.553737,1.10698 0.452971,0.52528 0.703694,0.95497 0.556813,0.95497 -0.146881,0 -0.462009,-0.22253 -0.700375,-0.49405 -0.238363,-0.27147 -0.436772,-0.37011 -0.440939,-0.21925 -0.01087,0.38805 -0.918525,0.34222 -1.07876,-0.0545 -0.187203,-0.46366 -0.446066,-0.40929 -0.446066,0.0935 0,0.23238 0.07409,0.37884 0.165096,0.32547 0.091,-0.0534 0.230939,0.003 0.31071,0.12578 0.18357,0.28242 -0.348387,0.28491 -0.805995,0.003 -0.281787,-0.17311 -0.286489,-0.21256 -0.02256,-0.21632 0.257989,-0.002 0.246475,-0.0852 -0.05743,-0.40442 -0.210159,-0.22068 -0.382488,-0.51019 -0.382488,-0.64313 0,-0.13295 -0.233144,-0.28495 -0.518871,-0.33716 -0.440458,-0.0806 -0.421427,-0.0992 0.123048,-0.12465 0.385211,-0.0189 0.696201,0.10431 0.777281,0.30501 0.09792,0.24251 0.215763,0.27133 0.427609,0.10432 0.211848,-0.16689 0.329678,-0.13823 0.427606,0.10431 0.07433,0.18405 0.319314,0.33314 0.545533,0.32937 0.342046,-0.003 0.317448,-0.0741 -0.15073,-0.4161 -0.309643,-0.22611 -0.69224,-0.36409 -0.849064,-0.30695 -0.156822,0.0572 -0.401422,-0.10235 -0.543481,-0.35469 -0.209675,-0.37242 -0.34261,-0.41471 -0.709603,-0.22802 -0.252992,0.1286 -0.452218,0.14105 -0.452218,0.0283 0,-0.11092 0.207467,-0.25373 0.461448,-0.31671 0.253979,-0.0632 0.461447,-0.2227 0.461447,-0.3547 0,-0.30039 -0.385365,-0.31404 -0.576298,-0.0205 -0.07848,0.12087 -0.261177,0.21924 -0.406074,0.21924 -0.183909,0 -0.176864,-0.0824 0.0246,-0.27382 0.158748,-0.15067 0.62112,-0.27589 1.027489,-0.27967 0.556288,-0.003 0.730676,-0.0989 0.706526,-0.38394 -0.01766,-0.20824 0.06626,-0.37906 0.186628,-0.37906 0.120365,0 0.155393,-0.0986 0.07691,-0.21926 -0.298497,-0.45896 -1.01715,-0.24443 -0.916743,0.27382 l 0.09537,0.49406 -0.397868,-0.46872 c -0.256624,-0.30288 -0.786052,-0.5214 -1.494064,-0.61682 -0.603201,-0.0813 -1.096194,-0.25181 -1.096194,-0.37909 0,-0.12728 -0.268593,-0.0641 -0.596804,0.1403 -0.56183,0.35106 -0.623417,0.35029 -1.039794,-0.008 -0.613073,-0.52724 -0.645295,-2.34241 -0.03794,-2.13505 0.305959,0.10443 0.267987,-0.003 -0.155871,-0.44628 -0.75513,-0.7874 -0.32199,-0.73543 0.649102,0.0779 0.429924,0.36012 0.897245,0.65179 1.038768,0.64803 0.141544,-0.003 0.05578,-0.15219 -0.190735,-0.32938 -0.246507,-0.17707 -0.34439,-0.32157 -0.217392,-0.32157 0.126998,0 0.432335,0.14426 0.67884,0.32157 0.518485,0.37252 0.887499,0.43618 0.679864,0.11691 -0.155375,-0.23873 1.322446,-0.3151 1.568921,-0.0809 0.08019,0.0762 0.0403,0.34756 -0.08921,0.6032 -0.202918,0.40052 -0.193533,0.41604 0.06665,0.113 0.235153,-0.27388 0.594951,-0.328 1.628396,-0.24654 1.115805,0.0879 1.326917,0.048 1.326917,-0.25142 0,-0.27088 -0.226744,-0.35664 -0.945455,-0.35664 -1.063636,0 -2.219744,-0.55101 -2.421057,-1.15377 -0.09245,-0.27628 -0.271036,-0.35939 -0.577323,-0.26699 -0.482726,0.14558 -0.587725,-0.10895 -0.197899,-0.47944 0.134697,-0.12805 0.250241,-0.63346 0.257385,-1.12258 0.01271,-0.86786 0.660148,-1.44743 1.012107,-0.90627 0.07112,0.10941 -0.03274,0.1988 -0.230724,0.1988 -0.197978,0 -0.359927,0.0951 -0.359927,0.21146 0,0.25286 0.768522,0.6725 1.196686,0.65288 0.167081,-0.008 0.06316,-0.10616 -0.230725,-0.21827 -0.293884,-0.11195 -0.469608,-0.30244 -0.39069,-0.42389 0.08594,-0.13218 0.478091,-0.003 0.97724,0.31767 1.035743,0.66882 1.180441,0.58736 1.160796,-0.6519 -0.01806,-1.13167 -0.182222,-1.12798 -0.382489,0.008 l -0.137414,0.7786 -0.808047,-0.66069 c -0.543016,-0.44337 -0.720888,-0.7154 -0.542457,-0.83024 0.582461,-0.37497 0.454981,-1.0459 -0.212265,-1.11869 -0.351375,-0.0384 -0.583502,-0.155 -0.515796,-0.25921 0.0677,-0.10408 0.01468,-0.25264 -0.117934,-0.33033 -0.06137,-0.036 -0.124716,-0.0504 -0.188672,-0.0439 z m 16.528005,0.18329 c -0.0359,0.006 -0.0921,0.0692 -0.17442,0.19 -0.12303,0.18103 -0.2247,1.04479 -0.22661,1.91971 l -0.004,1.5913 -1.67352,0.0252 c -0.92068,0.0151 -1.7259,0.0251 -1.7894,0.0195 -0.0634,-0.003 -0.085,1.56371 -0.0472,3.48468 l 0.0687,3.49246 h 1.02136 c 0.78926,0 0.99193,0.0707 0.89416,0.31281 -0.15041,0.3724 0.83887,0.20961 1.11876,-0.18424 0.10359,-0.14557 0.17105,-0.0891 0.17324,0.1452 0.002,0.21119 -0.1788,0.39705 -0.40097,0.41025 -0.38479,0.0243 -0.38479,0.0302 0,0.12578 0.31348,0.0779 0.40403,0.33385 0.40403,1.14402 0,0.57356 0.0693,1.10805 0.15379,1.18981 0.0848,0.0806 1.16853,0.14615 2.40876,0.14615 h 0.51375 c 0.01,-0.37236 0.0203,-0.71904 0.0308,-1.10505 -0.48621,-0.50583 -0.79779,-0.5536 -0.79779,-0.11496 0,0.33723 -0.41643,0.67819 -0.60704,0.49698 -0.0629,-0.0597 0.18632,-0.44002 0.55373,-0.84487 0.36737,-0.40491 0.73632,-0.91544 0.82034,-1.13427 0.0216,-0.0566 0.0483,-0.10431 0.079,-0.14426 0.004,-0.1354 0.006,-0.23593 0.01,-0.37225 -0.0436,0.003 -0.0871,0.009 -0.12918,0.0225 -0.27588,0.0907 -0.25364,0.0267 0.081,-0.23192 0.0248,-0.019 0.0333,-0.0267 0.0553,-0.0438 0.002,-0.0816 0.004,-0.1403 0.006,-0.2222 -0.0423,0.009 -0.0668,0.0132 -0.12008,0.0252 -0.39998,0.0897 -0.51889,0.0209 -0.51889,-0.30111 0,-0.44806 -0.60171,-1.11759 -1.34536,-1.4958 -0.67051,-0.341 -0.69347,-2.43323 -0.0266,-2.43323 0.2467,0 0.44812,-0.1484 0.44812,-0.32937 0,-0.18084 -0.0887,-0.32938 -0.19685,-0.32938 -0.32267,0 0.74806,-1.95318 1.0767,-1.9645 0.16609,-0.006 0.23743,-0.10802 0.15896,-0.229 -0.18653,-0.28664 -0.96717,-0.28263 -1.11772,0.006 -0.0646,0.12371 -0.0911,0.10084 -0.0595,-0.0498 0.0315,-0.15049 0.30924,-0.33296 0.61731,-0.40538 0.55214,-0.12992 0.55327,-0.1337 0.0616,-0.28843 -0.27434,-0.0864 -0.67793,-0.42514 -0.89725,-0.7523 l -0.39889,-0.59441 0.72396,0.64412 c 0.39844,0.35443 0.72498,0.54268 0.72498,0.41804 0,-0.12446 -0.20873,-0.40556 -0.4635,-0.62465 -0.25475,-0.21908 -0.41109,-0.44734 -0.34762,-0.50768 0.0635,-0.0603 0.34102,0.0783 0.61732,0.3089 0.45008,0.37561 0.48681,0.3791 0.35479,0.0351 -0.11923,-0.31083 -0.0159,-0.38396 0.53836,-0.38396 0.17481,0 0.30527,0.0132 0.4071,0.039 0.006,-0.23249 0.0139,-0.48216 0.0178,-0.70746 -0.4043,0.002 -0.69535,-8.9e-4 -1.18334,0.009 -1.15038,0.0232 -1.55917,-0.044 -1.56175,-0.25724 -0.001,-0.10617 -0.0178,-0.15652 -0.0534,-0.15011 z m -3.11836,5.35759 c 0.13322,0.003 0.49891,0.22371 0.88086,0.534 0.84156,0.6837 1.39039,0.885 0.90855,0.33328 -0.40248,-0.46087 0.0122,-0.3974 0.63576,0.0975 0.57642,0.45697 0.73606,1.87622 0.23073,2.05027 -0.15875,0.0547 0.15239,0.27059 0.69217,0.48042 0.53971,0.20982 0.98134,0.51917 0.98134,0.68699 0,0.21632 -0.13434,0.17745 -0.46144,-0.1335 -0.25399,-0.24133 -0.61025,-0.4385 -0.79166,-0.4385 -0.18136,0 -0.49362,-0.15538 -0.69318,-0.34497 -0.19955,-0.1897 -0.36199,-0.24701 -0.36199,-0.12766 0,0.11937 -0.0699,0.38956 -0.15478,0.60025 -0.10225,0.25327 -0.0674,0.33128 0.10359,0.23096 0.14506,-0.0852 0.37992,0.0643 0.53529,0.34009 l 0.27685,0.49114 -0.64706,-0.40344 c -0.5602,-0.34874 -0.62804,-0.35425 -0.50349,-0.0458 0.18097,0.44772 0.0699,0.45349 -0.31171,0.017 -0.16292,-0.18631 -0.45641,-0.28041 -0.65117,-0.2095 -0.29031,0.10582 -0.28269,0.0551 0.0379,-0.28164 0.60616,-0.6365 0.46055,-0.84377 -0.18652,-0.26601 -0.6105,0.54502 -0.86669,0.16443 -0.28816,-0.42779 0.2309,-0.23646 0.2309,-0.26423 0,-0.1403 -0.2161,0.11597 -0.28916,-0.15764 -0.28916,-1.08845 0,-1.01492 0.0639,-1.21988 0.34659,-1.11674 0.47128,0.17179 0.43727,-0.0773 -0.0573,-0.42098 -0.22203,-0.15425 -0.34504,-0.33669 -0.27379,-0.4044 0.009,-0.008 0.023,-0.0132 0.042,-0.0116 z m -15.589726,10.69575 c -0.02332,-0.0169 -0.05445,0.017 -0.09025,0.10026 -0.07763,0.18273 -0.656432,0.27383 -1.736067,0.27383 h -1.619166 l -1.276671,1.31259 c -0.701955,0.72183 -1.369611,1.25774 -1.483809,1.1908 -0.114195,-0.0671 -0.179463,-0.0151 -0.144579,0.11497 0.0012,0.006 -0.0086,0.02 -0.01026,0.0273 0.175833,0.17725 0.356216,0.34931 0.541431,0.51549 0.783512,-0.90718 2.687591,-2.50143 3.1604,-2.50143 0.360226,0 0.413251,0.21112 0.413251,1.64586 0,0.9051 0.07703,1.64561 0.17228,1.64588 0.09525,2.8e-4 0.13958,-0.69075 0.09741,-1.53575 l -0.07691,-1.53575 h 0.711654 0.711655 v 1.99861 1.99861 l -0.815224,-0.0905 c -0.7164,-0.0794 -0.833389,-0.0226 -0.962887,0.46773 -0.01408,0.0534 -0.03321,0.10443 -0.05127,0.15595 0.233267,0.11673 0.469532,0.22883 0.708578,0.3362 0.06588,-0.23705 0.267199,-0.26019 0.89008,-0.26019 0.779441,0 0.922893,-0.0705 0.922893,-0.45311 0,-0.63824 0.416142,-1.30189 0.81625,-1.30189 0.26888,0 0.338393,0.36041 0.338393,1.75793 v 1.33307 c 0.420368,0.12163 0.843398,0.23637 1.269493,0.33813 0.468891,-0.0485 0.881836,-0.14313 0.96904,-0.23387 0.105547,-0.10976 -0.0077,-0.12672 -0.262513,-0.039 -0.426358,0.14633 -0.429243,0.1335 -0.05435,-0.26019 0.373719,-0.39243 0.367321,-0.44894 -0.11075,-1.05241 -0.277669,-0.3498 -0.361781,-0.51336 -0.18766,-0.36251 0.431512,0.37383 0.699886,0.34501 0.537331,-0.0575 -0.100587,-0.2491 -0.02647,-0.29461 0.29635,-0.18216 0.415936,0.14463 0.415821,0.13464 0.01026,-0.30501 -0.272946,-0.29583 -0.333474,-0.50423 -0.173292,-0.59832 0.135272,-0.0794 0.246103,-0.25761 0.246103,-0.39564 0,-0.13802 -0.394626,0.11485 -0.876748,0.56227 -0.842504,0.78178 -0.875788,0.79321 -0.865469,0.28258 0.006,-0.29217 0.09391,-0.61053 0.195855,-0.70746 0.101955,-0.0969 0.111068,0.0189 0.0205,0.2563 -0.144461,0.37912 -0.08952,0.36712 0.449142,-0.0993 0.576631,-0.49937 0.590555,-0.55666 0.230724,-0.93449 -0.478034,-0.50198 -0.721853,-0.33131 -0.284047,0.19878 0.29235,0.3539 0.285376,0.36151 -0.08203,0.0876 -0.319824,-0.23894 -0.404021,-0.24239 -0.404021,-0.0189 0,0.15539 -0.05941,0.2261 -0.132277,0.15689 -0.141305,-0.13425 0.521748,-1.48313 0.729087,-1.48313 0.06773,0 0.06812,0.0839 0.001,0.18706 -0.06707,0.10316 0.149064,0.42424 0.480931,0.7133 l 0.603983,0.52524 -0.433759,-0.65776 c -0.389987,-0.59235 -0.392729,-0.62772 -0.02768,-0.35276 0.223109,0.16838 0.465569,0.24851 0.538354,0.17932 0.07278,-0.0692 -0.08539,-0.25515 -0.351724,-0.41318 -0.266347,-0.15801 -0.485031,-0.42669 -0.485031,-0.59734 0,-0.23558 -0.124438,-0.21014 -0.518873,0.10709 l -0.519898,0.41804 0.434785,-0.4882 c 0.239206,-0.26875 0.518125,-0.43963 0.619367,-0.38004 0.101246,0.0592 0.249414,0.008 0.329164,-0.11508 0.07977,-0.12276 0.736501,-0.21705 1.459199,-0.2095 1.105331,0.0116 1.223304,0.0486 0.742417,0.23094 -0.44159,0.16744 -0.499317,0.25921 -0.252258,0.4044 0.412213,0.24211 0.939302,0.05 0.939302,-0.34301 0,-0.16819 0.173968,-0.30598 0.386591,-0.30598 0.352561,0 -0.07271,0.64569 -0.86547,1.31455 -0.253772,0.21411 -0.443654,0.90441 -0.211241,0.76788 0.293746,-0.17254 0.289507,0.0312 -0.01136,0.56518 -0.137099,0.24339 -0.147358,0.42389 -0.0246,0.42389 0.117689,0 0.279212,0.24693 0.358904,0.54863 0.137832,0.52186 0.702747,0.75831 0.866494,0.3625 0.04233,-0.10234 0.389132,0.003 0.770104,0.23777 l 0.692171,0.42388 -0.909563,-0.14519 c -0.808995,-0.12993 -0.87563,-0.1086 -0.608085,0.19782 0.165455,0.1895 0.382864,0.29619 0.484005,0.2368 0.3174,-0.18632 0.917475,0.14369 0.945455,0.52035 0.02298,0.30926 0.04167,0.30611 0.132277,-0.0234 0.05808,-0.21125 0.253615,-0.38392 0.434785,-0.38392 0.199472,0 0.33019,-0.22229 0.33019,-0.56227 0,-0.30885 -0.09347,-0.50625 -0.207139,-0.43949 -0.113683,0.0668 -0.269783,-0.0339 -0.346598,-0.22412 -0.231549,-0.57342 -0.1622,-0.61713 0.321988,-0.20074 0.253979,0.21843 0.462473,0.67094 0.462473,1.00564 0,0.3347 0.172439,0.77289 0.383514,0.97348 0.296154,0.28141 0.318021,0.40355 0.09433,0.53498 -0.160891,0.0945 0.233269,0.17047 0.885976,0.17047 h 1.176176 v -1.73358 c 0,-1.55332 0.0497,-1.75031 0.47888,-1.90116 0.26338,-0.0933 -0.51616,-0.12748 -1.731963,-0.077 l -2.210844,0.0926 v -1.72676 -1.72676 l -4.1561,0.0419 c -3.762852,0.0384 -4.157888,0.008 -4.174556,-0.32839 -0.0055,-0.11427 -0.02078,-0.18103 -0.04409,-0.19781 z m -8.252722,0.58955 c 0.107611,0.17518 0.218621,0.34646 0.33224,0.51549 0.06229,-0.0264 0.120865,-0.0405 0.164065,-0.0189 0.05985,0.0303 -0.136345,-0.16594 -0.435811,-0.43752 -0.02316,-0.0209 -0.03912,-0.0393 -0.06051,-0.0594 z m 28.995288,0.003 c -2.21806,0 -3.36343,0.23024 -3.36343,0.67628 0,0.13709 0.15617,0.19236 0.34658,0.12276 0.53328,-0.19445 0.47911,1.51943 -0.0573,1.8164 -0.38482,0.21333 -0.38482,0.2234 0,0.23095 0.22225,0.003 0.40404,0.10559 0.40404,0.22608 0,0.12162 -0.60862,0.21924 -1.36384,0.21924 -1.25012,0 -1.35352,-0.0362 -1.24284,-0.4385 0.17285,-0.62823 -0.13368,-0.5435 -0.39479,0.10918 -0.18741,0.4684 -0.36555,0.54862 -1.21822,0.54862 -1.11433,0 -1.55252,0.28751 -1.55252,1.01832 0,0.99469 0.97547,0.88126 1.35666,-0.15784 0.47508,-1.29507 0.9516,-0.79206 0.9516,1.00467 h 0.001 c 0,1.31646 0.0685,1.64585 0.34557,1.64585 0.31513,0 0.45078,-0.26552 0.37019,-0.72303 -0.0169,-0.0956 0.17899,-0.0677 0.43478,0.0624 0.572,0.29091 0.61113,0.4762 0.0616,0.29234 -0.30151,-0.10084 -0.34139,-0.0693 -0.15484,0.1237 0.35687,0.36956 1.11399,0.0669 0.78241,-0.3128 -0.18117,-0.20739 -0.16967,-0.4092 0.0431,-0.7328 0.2541,-0.38662 0.21761,-0.52669 -0.27481,-1.04169 l -0.56912,-0.59541 0.62758,0.42098 c 0.34521,0.23166 0.64063,0.61909 0.65729,0.86044 0.0252,0.36542 0.0601,0.34644 0.20715,-0.1101 l 0.1774,-0.54862 0.24713,0.54862 c 0.13613,0.30157 0.25457,0.42564 0.2625,0.27478 0.009,-0.15067 0.12403,-0.27478 0.25843,-0.27478 0.13454,0 0.19705,0.0741 0.1395,0.16462 -0.0578,0.0905 0.0419,0.2933 0.22046,0.4502 0.26812,0.23552 0.34906,0.22622 0.46246,-0.0545 0.0756,-0.18707 0.27566,-0.34009 0.44506,-0.34009 0.16946,0 0.37969,-0.11011 0.46656,-0.24362 0.11006,-0.16952 -0.0778,-0.19726 -0.62142,-0.0936 l -0.77933,0.14803 0.69218,-0.42096 c 0.41433,-0.25187 0.75169,-0.33481 0.83983,-0.20657 0.21133,0.30725 0.6614,-0.017 0.6614,-0.47652 0,-0.21412 0.0683,-0.45563 0.1528,-0.53595 0.14049,-0.13352 0.20721,-0.33014 0.21329,-0.55838 9e-4,-0.0243 0.002,-0.0465 0.004,-0.0711 -0.0139,-0.41964 -0.22944,-0.93768 -0.62038,-1.40518 -0.37331,-0.44642 -0.61834,-0.86923 -0.54451,-0.93938 0.0738,-0.0702 0.3415,0.11823 0.59476,0.41804 0.4459,0.52811 0.45566,0.52971 0.31479,0.0516 -0.0985,-0.33426 -0.0883,-0.44175 0.3302,-0.4765 0.006,-0.19175 0.0122,-0.47237 0.0178,-0.67238 -0.12008,-7.5e-4 -0.19665,-0.003 -0.33224,-0.003 z" /></svg>
